<svg xmlns="http://www.w3.org/2000/svg" xmlns:xlink="http://www.w3.org/1999/xlink" width="367.949" height="185.25" viewBox="0 0 367.949 185.25">
  <defs>
    <clipPath id="clip-path">
      <rect id="Rectángulo_366086" data-name="Rectángulo 366086" width="367.949" height="158.58" fill="none"/>
    </clipPath>
    <clipPath id="clip-path-3">
      <rect id="Rectángulo_366083" data-name="Rectángulo 366083" width="40.933" height="40.933" fill="none"/>
    </clipPath>
    <clipPath id="clip-path-4">
      <rect id="Rectángulo_402528" data-name="Rectángulo 402528" width="111.399" height="61.749" fill="none"/>
    </clipPath>
    <clipPath id="clip-path-5">
      <rect id="Rectángulo_402527" data-name="Rectángulo 402527" width="111.399" height="61.75" fill="none"/>
    </clipPath>
    <clipPath id="clip-path-6">
      <rect id="Rectángulo_402522" data-name="Rectángulo 402522" width="69.081" height="36.068" fill="none"/>
    </clipPath>
    <clipPath id="clip-path-7">
      <rect id="Rectángulo_402523" data-name="Rectángulo 402523" width="9.081" height="9.131" fill="none"/>
    </clipPath>
    <clipPath id="clip-path-8">
      <rect id="Rectángulo_402524" data-name="Rectángulo 402524" width="71.582" height="31.092" fill="none"/>
    </clipPath>
    <clipPath id="clip-path-9">
      <rect id="Rectángulo_406249" data-name="Rectángulo 406249" width="88.571" height="52.618" fill="none"/>
    </clipPath>
    <clipPath id="clip-path-10">
      <rect id="Rectángulo_406259" data-name="Rectángulo 406259" width="73.722" height="54.695" fill="none"/>
    </clipPath>
    <clipPath id="clip-path-11">
      <path id="Trazado_911492" data-name="Trazado 911492" d="M.5,27.567A27.067,27.067,0,1,0,27.567.5,27.067,27.067,0,0,0,.5,27.567" transform="translate(-0.5 -0.5)" fill="none"/>
    </clipPath>
    <linearGradient id="linear-gradient" x1="-0.005" y1="1.005" x2="0.005" y2="1.005" gradientUnits="objectBoundingBox">
      <stop offset="0" stop-color="#ffa975"/>
      <stop offset="1" stop-color="#d43420"/>
    </linearGradient>
    <clipPath id="clip-path-13">
      <path id="Trazado_911494" data-name="Trazado 911494" d="M13.266,33.171A19.906,19.906,0,1,0,33.172,13.265,19.906,19.906,0,0,0,13.266,33.171" transform="translate(-13.266 -13.265)" fill="none"/>
    </clipPath>
    <radialGradient id="radial-gradient" cx="0.209" cy="0.256" r="0.5" gradientTransform="matrix(1, 0, 0, -1, 0, 2.374)" gradientUnits="objectBoundingBox">
      <stop offset="0" stop-color="#fff"/>
      <stop offset="1" stop-color="#d4d4d4"/>
    </radialGradient>
    <clipPath id="clip-path-14">
      <path id="Trazado_911495" data-name="Trazado 911495" d="M26.032,38.776A12.745,12.745,0,1,0,38.776,26.031,12.744,12.744,0,0,0,26.032,38.776" transform="translate(-26.032 -26.031)" fill="none"/>
    </clipPath>
    <clipPath id="clip-path-15">
      <path id="Trazado_911496" data-name="Trazado 911496" d="M38.8,44.381A5.583,5.583,0,1,0,44.381,38.8,5.583,5.583,0,0,0,38.8,44.381" transform="translate(-38.798 -38.798)" fill="none"/>
    </clipPath>
    <radialGradient id="radial-gradient-2" cx="0.317" cy="0.334" r="0.5" gradientTransform="matrix(1, 0, 0, -1, 0, 5.898)" xlink:href="#radial-gradient"/>
    <clipPath id="clip-path-17">
      <path id="Trazado_911498" data-name="Trazado 911498" d="M99.28,9.145l-.94,3.779,3.746,1.067,9.31-4.857L107.377,7.7l.691-4.588Z" transform="translate(-98.34 -3.116)" fill="#12263f"/>
    </clipPath>
  </defs>
  <g id="Grupo_1115050" data-name="Grupo 1115050" transform="translate(-990.051 -7580.985)">
    <g id="Grupo_1032952" data-name="Grupo 1032952" transform="translate(990.051 7607.656)">
      <g id="Grupo_1032951" data-name="Grupo 1032951" clip-path="url(#clip-path)">
        <g id="Grupo_1032950" data-name="Grupo 1032950">
          <g id="Grupo_1032949" data-name="Grupo 1032949" clip-path="url(#clip-path)">
            <path id="Trazado_779306" data-name="Trazado 779306" d="M367.949,327.4c0,2-82.368,3.619-183.975,3.619S0,329.4,0,327.4s82.368-3.618,183.975-3.618,183.975,1.62,183.975,3.618" transform="translate(0 -172.839)" fill="#e0dfe5"/>
            <path id="Trazado_779307" data-name="Trazado 779307" d="M341.994,5.3V114.975a5.3,5.3,0,0,1-5.3,5.3H161.856a5.3,5.3,0,0,1-5.305-5.3V5.3A5.3,5.3,0,0,1,161.856,0H336.693a5.3,5.3,0,0,1,5.3,5.3" transform="translate(-83.57 0)" fill="#e0dfe5"/>
            <path id="Trazado_779308" data-name="Trazado 779308" d="M341.994,5.3V7.459H156.551V5.3A5.3,5.3,0,0,1,161.856,0H336.693a5.3,5.3,0,0,1,5.3,5.3" transform="translate(-83.57 0)" fill="#c0bfc1"/>
            <path id="Trazado_779309" data-name="Trazado 779309" d="M530.07,7.395a.164.164,0,0,1-.1-.3l4.662-3.419a.164.164,0,0,1,.194.264l-4.662,3.419a.163.163,0,0,1-.1.032" transform="translate(-282.873 -1.948)" fill="#304572"/>
            <path id="Trazado_779310" data-name="Trazado 779310" d="M534.731,7.4a.163.163,0,0,1-.1-.032l-4.662-3.419a.164.164,0,0,1,.194-.264L534.828,7.1a.164.164,0,0,1-.1.3" transform="translate(-282.873 -1.948)" fill="#304572"/>
            <path id="Trazado_779311" data-name="Trazado 779311" d="M515.13,7.395h-6.06a.164.164,0,0,1-.164-.164V3.812a.164.164,0,0,1,.164-.164h6.06a.164.164,0,0,1,.164.164V7.231a.164.164,0,0,1-.164.164m-5.9-.328h5.733V3.976h-5.733Z" transform="translate(-271.663 -1.947)" fill="#304572"/>
            <path id="Trazado_779312" data-name="Trazado 779312" d="M496.131,7.643h-4.895a.164.164,0,1,1,0-.328h4.895a.164.164,0,1,1,0,.328" transform="translate(-262.143 -3.905)" fill="#304572"/>
            <path id="Trazado_779313" data-name="Trazado 779313" d="M277.788,53.951V96.182a6.867,6.867,0,0,1-6.867,6.867H191.433a6.864,6.864,0,0,1-6.867-6.867V53.951a6.867,6.867,0,0,1,6.867-6.867h79.489a6.87,6.87,0,0,1,6.867,6.867" transform="translate(-98.525 -25.134)" fill="#c1c1c1"/>
            <rect id="Rectángulo_366067" data-name="Rectángulo 366067" width="93.222" height="0.466" transform="translate(86.041 31.04)" fill="#e0dfe5"/>
            <path id="Trazado_779314" data-name="Trazado 779314" d="M277.788,87.254v.466H184.72a.227.227,0,0,1-.154-.061v-.345a.227.227,0,0,1,.154-.061Z" transform="translate(-98.525 -46.578)" fill="#e0dfe5"/>
            <path id="Trazado_779315" data-name="Trazado 779315" d="M277.788,106.708v.438a.218.218,0,0,1-.079.014H184.566v-.466h93.143a.218.218,0,0,1,.079.014" transform="translate(-98.525 -56.955)" fill="#e0dfe5"/>
            <path id="Trazado_779316" data-name="Trazado 779316" d="M277.788,127.364v.466H184.641a.194.194,0,0,1-.075-.014v-.438a.194.194,0,0,1,.075-.014Z" transform="translate(-98.525 -67.989)" fill="#e0dfe5"/>
            <path id="Trazado_779317" data-name="Trazado 779317" d="M277.788,148.038v.438a.218.218,0,0,1-.079.014H184.566v-.466h93.143a.218.218,0,0,1,.079.014" transform="translate(-98.525 -79.018)" fill="#e0dfe5"/>
            <rect id="Rectángulo_366068" data-name="Rectángulo 366068" width="0.466" height="55.965" transform="translate(95.318 21.95)" fill="#e0dfe5"/>
            <rect id="Rectángulo_366069" data-name="Rectángulo 366069" width="0.466" height="55.965" transform="translate(104.95 21.95)" fill="#e0dfe5"/>
            <rect id="Rectángulo_366070" data-name="Rectángulo 366070" width="0.466" height="55.965" transform="translate(114.017 21.95)" fill="#e0dfe5"/>
            <rect id="Rectángulo_366071" data-name="Rectángulo 366071" width="0.466" height="55.965" transform="translate(123.648 21.95)" fill="#e0dfe5"/>
            <rect id="Rectángulo_366072" data-name="Rectángulo 366072" width="0.466" height="55.965" transform="translate(133.284 21.95)" fill="#e0dfe5"/>
            <rect id="Rectángulo_366073" data-name="Rectángulo 366073" width="0.466" height="55.965" transform="translate(142.659 21.95)" fill="#e0dfe5"/>
            <rect id="Rectángulo_366074" data-name="Rectángulo 366074" width="0.466" height="55.965" transform="translate(152.295 21.95)" fill="#e0dfe5"/>
            <rect id="Rectángulo_366075" data-name="Rectángulo 366075" width="0.466" height="55.965" transform="translate(161.358 21.95)" fill="#e0dfe5"/>
            <rect id="Rectángulo_366076" data-name="Rectángulo 366076" width="0.466" height="55.965" transform="translate(170.994 21.95)" fill="#e0dfe5"/>
            <path id="Trazado_779318" data-name="Trazado 779318" d="M342.419,156.617H274.6a2.165,2.165,0,0,1-2.165-2.165v-38.08a2.165,2.165,0,0,1,2.165-2.165h67.823a2.166,2.166,0,0,1,2.165,2.165v38.08a2.166,2.166,0,0,1-2.165,2.165" transform="translate(-145.428 -60.966)" fill="#c0bfc1"/>
            <rect id="Rectángulo_366077" data-name="Rectángulo 366077" width="4.244" height="11.649" transform="translate(141.235 76.584)" fill="#e0dfe5"/>
            <rect id="Rectángulo_366078" data-name="Rectángulo 366078" width="4.244" height="11.649" transform="translate(180.057 76.584)" fill="#e0dfe5"/>
            <rect id="Rectángulo_366079" data-name="Rectángulo 366079" width="4.244" height="17.604" transform="translate(150.941 70.587)" fill="#e0dfe5"/>
            <rect id="Rectángulo_366080" data-name="Rectángulo 366080" width="4.244" height="22.67" transform="translate(160.646 65.521)" fill="#e0dfe5"/>
            <rect id="Rectángulo_366081" data-name="Rectángulo 366081" width="4.244" height="27.676" transform="translate(170.352 60.609)" fill="#e0dfe5"/>
            <path id="Trazado_779319" data-name="Trazado 779319" d="M224.8,85.172a2.254,2.254,0,1,1-2.254-2.254,2.254,2.254,0,0,1,2.254,2.254" transform="translate(-117.595 -44.263)" fill="#e29233"/>
            <path id="Trazado_779320" data-name="Trazado 779320" d="M244.749,125.782a2.254,2.254,0,1,1-2.254-2.254,2.254,2.254,0,0,1,2.254,2.254" transform="translate(-128.245 -65.941)" fill="#373f51"/>
            <path id="Trazado_779321" data-name="Trazado 779321" d="M326.859,85.672a2.254,2.254,0,1,1-2.254-2.254,2.254,2.254,0,0,1,2.254,2.254" transform="translate(-172.077 -44.53)" fill="#5573c6"/>
            <path id="Trazado_779322" data-name="Trazado 779322" d="M476.592,57.685H435.977a2.175,2.175,0,1,1,0-4.351h40.615a2.175,2.175,0,1,1,0,4.351" transform="translate(-231.571 -28.471)" fill="#b0c0d2"/>
            <path id="Trazado_779323" data-name="Trazado 779323" d="M476.592,75.018H435.977a2.175,2.175,0,1,1,0-4.351h40.615a2.175,2.175,0,1,1,0,4.351" transform="translate(-231.571 -37.723)" fill="#b0c0d2"/>
            <path id="Trazado_779324" data-name="Trazado 779324" d="M476.592,92.274H435.977a2.175,2.175,0,1,1,0-4.351h40.615a2.175,2.175,0,1,1,0,4.351" transform="translate(-231.571 -46.935)" fill="#b0c0d2"/>
            <path id="Trazado_779325" data-name="Trazado 779325" d="M490.181,124.028H461.433a2.175,2.175,0,1,1,0-4.35h28.748a2.175,2.175,0,1,1,0,4.35" transform="translate(-245.16 -63.886)" fill="#373f51"/>
            <path id="Trazado_779326" data-name="Trazado 779326" d="M490.181,141.776H461.433a2.175,2.175,0,0,1,0-4.351h28.748a2.175,2.175,0,1,1,0,4.351" transform="translate(-245.16 -73.36)" fill="#373f51"/>
            <path id="Trazado_779327" data-name="Trazado 779327" d="M490.181,173.531H461.433a2.175,2.175,0,0,1,0-4.351h28.748a2.175,2.175,0,1,1,0,4.351" transform="translate(-245.16 -90.311)" fill="#ffce79"/>
            <path id="Trazado_779328" data-name="Trazado 779328" d="M490.181,191.278H461.433a2.175,2.175,0,0,1,0-4.351h28.748a2.175,2.175,0,1,1,0,4.351" transform="translate(-245.16 -99.785)" fill="#ffce79"/>
            <path id="Trazado_779329" data-name="Trazado 779329" d="M643.241,21.661V55.15a1.8,1.8,0,0,1-1.8,1.8H585.116a1.721,1.721,0,0,1-.635-.12,1.393,1.393,0,0,1-.267-.124,1.792,1.792,0,0,1-.894-1.553V21.661a1.8,1.8,0,0,1,1.8-1.8h56.328a1.8,1.8,0,0,1,1.8,1.8" transform="translate(-311.386 -10.602)" fill="#e0dfe5"/>
            <path id="Trazado_779330" data-name="Trazado 779330" d="M644.261,65.5v1.011a1.8,1.8,0,0,1-1.8,1.8h-56.2a2.483,2.483,0,0,1-.767-.12,2.04,2.04,0,0,1-.271-.1l0-.023.445-2.365,11.986-17.028,2.819,4.623,8.467-12.153,8.479,11.429,1.6-2.695,7.224,7.8,1.414-1.433,7.325,6.191,1.541-3.074,5.316,5.718.593-1.912Z" transform="translate(-312.406 -21.959)" fill="#373f51"/>
            <path id="Trazado_779331" data-name="Trazado 779331" d="M639.28,64.605H585.116a1.757,1.757,0,0,1-.906-.248,1.786,1.786,0,0,1-.891-1.549V60.653l9.9-18.019,2.462,5.173,7.395-13.6L610.487,47l1.4-3.016,6.311,8.727,1.235-1.6,6.4,6.927,1.344-3.442,4.646,6.4.515-2.141Z" transform="translate(-311.386 -18.261)" fill="#c0bfc1"/>
            <path id="Trazado_779332" data-name="Trazado 779332" d="M604.343,51.28a1.509,1.509,0,1,1-1.508-1.509,1.509,1.509,0,0,1,1.508,1.509" transform="translate(-320.998 -26.569)" fill="#fff"/>
            <path id="Trazado_779333" data-name="Trazado 779333" d="M661.149,68.729a1.509,1.509,0,1,1-1.509-1.509,1.509,1.509,0,0,1,1.509,1.509" transform="translate(-351.323 -35.883)" fill="#fff"/>
            <path id="Trazado_779334" data-name="Trazado 779334" d="M644.374,51.956a1.509,1.509,0,1,1-1.509-1.509,1.509,1.509,0,0,1,1.509,1.509" transform="translate(-342.368 -26.93)" fill="#fff"/>
            <path id="Trazado_779335" data-name="Trazado 779335" d="M625.487,32.484a1.509,1.509,0,1,1-1.509-1.509,1.509,1.509,0,0,1,1.509,1.509" transform="translate(-332.286 -16.535)" fill="#fff"/>
            <path id="Trazado_779336" data-name="Trazado 779336" d="M677.522,76.2a1.509,1.509,0,1,1-1.509-1.509,1.509,1.509,0,0,1,1.509,1.509" transform="translate(-360.063 -39.871)" fill="#fff"/>
            <path id="Trazado_779337" data-name="Trazado 779337" d="M385.647,257.326a11.658,11.658,0,0,1-.67-15.633,10.916,10.916,0,0,1,.779-.858,11.6,11.6,0,0,1,7.846-3.35,10.612,10.612,0,0,1,1.074.022,1.249,1.249,0,0,1,.151,0c.138.009.282.025.425.041.239.027.477.059.709.1s.456.087.681.136c.029.009.053.012.082.021.183.045.365.095.546.151.012,0,.024,0,.029.009.106.03.211.066.316.1a.324.324,0,0,1,.128.044c.251.082.5.182.749.288.156.066.306.131.462.2a2.545,2.545,0,0,1,.287.14c.092.047.189.094.281.146.182.1.365.2.54.314q.314.2.626.414a11.5,11.5,0,0,1,1.56,1.322,11.662,11.662,0,0,1,2.227,13.2,11.5,11.5,0,0,1-2.336,3.293,11.664,11.664,0,0,1-16.49-.108" transform="translate(-204.072 -126.771)" fill="#ffce79"/>
            <path id="Trazado_779338" data-name="Trazado 779338" d="M417.822,255.2l-10.529-5.009,2.146-9.012,2.4-1.719a11.2,11.2,0,0,1,2.19,1.218,11.356,11.356,0,0,1,1.56,1.324,11.661,11.661,0,0,1,2.231,13.2" transform="translate(-217.42 -127.827)" fill="#373f51"/>
            <path id="Trazado_779339" data-name="Trazado 779339" d="M397.021,249.131l-8.966-7.438a10.63,10.63,0,0,1,.778-.858,11.6,11.6,0,0,1,7.847-3.35,10.6,10.6,0,0,1,1.074.022Z" transform="translate(-207.151 -126.771)" fill="#304572"/>
            <path id="Trazado_779340" data-name="Trazado 779340" d="M406.9,249.131l-.342-11.646a10.6,10.6,0,0,1,1.074.022,1.11,1.11,0,0,1,.151,0c.138.009.282.025.426.041.239.027.477.059.709.1s.456.087.68.136c.03.009.054.012.083.021.182.044.365.095.546.151a.048.048,0,0,1,.03.009c.1.03.21.066.315.1a.324.324,0,0,1,.128.045,10.182,10.182,0,0,1,1.211.49,2.618,2.618,0,0,1,.287.14c.092.047.19.094.281.146.183.1.364.2.54.314q.314.2.626.414Z" transform="translate(-217.027 -126.771)" fill="#6662cc"/>
            <path id="Trazado_779341" data-name="Trazado 779341" d="M546.846,297.488l2.418-3.514-8.4-5.667-3.684,3.174,5.641,6.575Z" transform="translate(-286.754 -153.903)" fill="#d8998b"/>
            <path id="Trazado_779342" data-name="Trazado 779342" d="M592.852,301.03l-.115,6.121,10.822-.113-.461-6.575Z" transform="translate(-316.414 -160.393)" fill="#d8998b"/>
            <path id="Trazado_779343" data-name="Trazado 779343" d="M560.625,318.543a.432.432,0,0,1-.353-.511c.2-1.166.9-4.426,2.743-5.81,2.267-1.7,7.019-2.38,8.746-3.514s3.66-3.87,4.692-3.352,2.975,2.9,5.782,2.558,4.1-1.02,4.859-.34,1.188,10.2.864,10.768-4.278.043-4.623.135-1.316-2.175-1.964-1.835-1.438,1.4-2.393,1.892c-.89.455-15.523.387-18.354.008" transform="translate(-299.079 -162.97)" fill="#373f51"/>
            <path id="Trazado_779344" data-name="Trazado 779344" d="M577.992,198.4l1.321-25.957,16.178-.113a76.436,76.436,0,0,1,2.531,13.149c.551,6.461,1.981,47.493,1.761,48.06s-18.16,1.247-19.26.566-2.531-35.7-2.531-35.7" transform="translate(-308.542 -91.991)" fill="#ffce79"/>
            <path id="Trazado_779345" data-name="Trazado 779345" d="M499.371,290.929a.428.428,0,0,1-.005-.62c.829-.856,3.271-3.165,5.6-3.283,2.864-.145,7.225,1.94,9.315,1.964s5.264-1.165,5.831-.161.838,4.058,3.38,5.341,4.012,1.442,4.257,2.426-4.813,9.111-5.407,9.4-3.6-2.348-3.943-2.464.138-2.535-.6-2.614-2,.361-3.078.234c-1-.119-13.2-8.329-15.354-10.221" transform="translate(-266.501 -153.216)" fill="#373f51"/>
            <path id="Trazado_779346" data-name="Trazado 779346" d="M553.135,172.083s-19.04,51.574-18.82,52.707,14.748,9.181,15.628,9.181,7.264-11.675,7.264-11.675l.771-50.1Z" transform="translate(-285.226 -91.861)" fill="#ffce79"/>
            <path id="Trazado_779347" data-name="Trazado 779347" d="M589.541,312.7a.168.168,0,0,1-.093-.029l-2.628-1.82a.164.164,0,1,1,.187-.269l2.628,1.82a.164.164,0,0,1-.093.3" transform="translate(-313.217 -165.78)" fill="#fff"/>
            <path id="Trazado_779348" data-name="Trazado 779348" d="M584.549,315.277a.163.163,0,0,1-.1-.033l-2.065-1.565a.164.164,0,0,1,.2-.261l2.065,1.565a.164.164,0,0,1-.1.295" transform="translate(-310.853 -167.291)" fill="#fff"/>
            <path id="Trazado_779349" data-name="Trazado 779349" d="M534.4,294.068a.165.165,0,0,1-.138-.075l-1.741-2.68a.163.163,0,0,1,.048-.227.166.166,0,0,1,.227.048l1.742,2.68a.164.164,0,0,1-.049.227.161.161,0,0,1-.089.027" transform="translate(-284.255 -155.373)" fill="#fff"/>
            <path id="Trazado_779350" data-name="Trazado 779350" d="M527.392,292.916a.164.164,0,0,1-.141-.081l-1.317-2.231a.164.164,0,0,1,.282-.166l1.317,2.231a.164.164,0,0,1-.141.247" transform="translate(-280.74 -154.998)" fill="#fff"/>
            <path id="Trazado_779351" data-name="Trazado 779351" d="M608.755,184.118c-2.934,0-4.727-3.645-4.746-3.685a.164.164,0,0,1,.3-.142c.021.042,2.049,4.153,5.225,3.408a.164.164,0,1,1,.076.318,3.669,3.669,0,0,1-.849.1" transform="translate(-322.422 -96.193)" fill="#304572"/>
            <path id="Trazado_779352" data-name="Trazado 779352" d="M578.024,232.5a.167.167,0,0,1-.164-.172l2-42.119-4.385-2.895a.164.164,0,1,1,.18-.273l4.463,2.946a.162.162,0,0,1,.074.144l-2.007,42.212a.164.164,0,0,1-.164.156" transform="translate(-307.161 -99.833)" fill="#304572"/>
            <path id="Trazado_779353" data-name="Trazado 779353" d="M581.742,112.862s-4.433.2-6.19,3.752-3.086,24.719-3.086,24.719a31.567,31.567,0,0,0,12.088,2.078c7.173-.094,9.6-1.952,9.6-1.952l1.38-13.054s-.576-13.758-2.364-14.723-8.458-1.585-11.426-.821" transform="translate(-305.593 -60.065)" fill="#7f7aff"/>
            <path id="Trazado_779354" data-name="Trazado 779354" d="M591.25,82.823s-2.253-4.363-.125-5.147,4.468,1.676,4.468,1.676,4.614.684,6.23,3.273-2.974,6.684-2.974,6.684Z" transform="translate(-315.065 -41.383)"/>
            <path id="Trazado_779355" data-name="Trazado 779355" d="M600.223,104.724l.013,4.289s-.77,1.235-3.278,1.447a4.447,4.447,0,0,1-2.527-.263l.254-2.173.251-2.119,4.528-1.01Z" transform="translate(-317.318 -55.904)" fill="#d8998b"/>
            <path id="Trazado_779356" data-name="Trazado 779356" d="M599.755,105.09a1.428,1.428,0,0,1-.124.414c-.953,2.145-3.576,2.614-4.654,2.715l.25-2.119Z" transform="translate(-317.609 -56.099)"/>
            <path id="Trazado_779357" data-name="Trazado 779357" d="M591.626,84.46s-2.235,5.384-1.339,8.369,3.621,2.463,5.246,1.853a5.414,5.414,0,0,0,2.366-1.627,2.449,2.449,0,0,0,1.99-4.367,2.4,2.4,0,0,0-1.9.291l.784-1.567s-3.567-7.825-7.143-2.951" transform="translate(-314.992 -44.233)" fill="#d8998b"/>
            <path id="Trazado_779358" data-name="Trazado 779358" d="M607.206,98.961a.164.164,0,0,1-.1-.3l1.928-1.4a.164.164,0,1,1,.192.265l-1.928,1.4a.164.164,0,0,1-.1.031" transform="translate(-324.05 -51.907)"/>
            <path id="Trazado_779359" data-name="Trazado 779359" d="M609.525,100.126a.153.153,0,0,1-.041-.005l-1.273-.324a.164.164,0,1,1,.081-.317l1.273.324a.164.164,0,0,1-.041.323" transform="translate(-324.608 -53.101)"/>
            <path id="Trazado_779360" data-name="Trazado 779360" d="M593.544,96.606a.164.164,0,0,1-.162-.138,2.518,2.518,0,0,1,.768-2.307.164.164,0,0,1,.208.254,2.19,2.19,0,0,0-.651,2,.165.165,0,0,1-.137.187l-.025,0" transform="translate(-316.739 -50.245)"/>
            <path id="Trazado_779361" data-name="Trazado 779361" d="M592.062,93.323a.173.173,0,0,1-.043-.006.164.164,0,0,1-.116-.2l.265-.985a.162.162,0,0,1,.2-.116.164.164,0,0,1,.116.2l-.265.985a.165.165,0,0,1-.158.121" transform="translate(-315.966 -49.117)"/>
            <path id="Trazado_779362" data-name="Trazado 779362" d="M597.885,93.714a.174.174,0,0,1-.043-.006.164.164,0,0,1-.116-.2l.265-.985a.162.162,0,0,1,.2-.116.164.164,0,0,1,.116.2l-.265.985a.165.165,0,0,1-.159.121" transform="translate(-319.074 -49.325)"/>
            <path id="Trazado_779363" data-name="Trazado 779363" d="M591.985,84.343a1.812,1.812,0,0,1,1.533-.874,2.312,2.312,0,0,1,1.7.741,2.633,2.633,0,0,0,.994,2.756,3.554,3.554,0,0,0,2.583.682l1.054-.379.77-1.544-3.062-3.281L593.6,80.369,591.587,82.2Z" transform="translate(-315.8 -42.902)"/>
            <path id="Trazado_779364" data-name="Trazado 779364" d="M601.756,79.621s.132-2.374,2.628-1.331,2.3,4.281,2.3,4.281Z" transform="translate(-321.228 -41.651)"/>
            <path id="Trazado_779365" data-name="Trazado 779365" d="M591.828,88.865a.164.164,0,0,1-.015-.327l.814-.077a.161.161,0,0,1,.179.148.164.164,0,0,1-.148.179l-.814.077h-.015" transform="translate(-315.841 -47.222)"/>
            <path id="Trazado_779366" data-name="Trazado 779366" d="M598.43,90.785a.164.164,0,0,1-.066-.014l-1.1-.479a.164.164,0,1,1,.131-.3l1.1.478a.164.164,0,0,1-.066.314" transform="translate(-318.778 -48.032)"/>
            <path id="Trazado_779367" data-name="Trazado 779367" d="M592.007,101.1a.164.164,0,0,1-.138-.076l-.608-.951a.164.164,0,1,1,.276-.176l.608.951a.164.164,0,0,1-.138.252" transform="translate(-315.612 -53.287)"/>
            <path id="Trazado_779368" data-name="Trazado 779368" d="M575.713,105s2.756-9.04,3.9-8.9,3.432,2.433,3.9,3.275a2.445,2.445,0,0,1,0,1.913s.453.568,0,.935-1.754-.412-1.754-.412,1.148,5.753-2.219,6.441S575.713,105,575.713,105" transform="translate(-307.326 -51.297)" fill="#d8998b"/>
            <path id="Trazado_779369" data-name="Trazado 779369" d="M568.107,130.227a27.065,27.065,0,0,0,2.014-5.733c.649-3.026,1.552-7.544,1.552-7.544l-5.955-4.43s-4.972,7.6-6.705,14.862-.448,9.478,3.253,9.03c4.383-.531,5.841-6.185,5.841-6.185" transform="translate(-298.005 -60.065)" fill="#7f7aff"/>
            <path id="Trazado_779370" data-name="Trazado 779370" d="M567.551,148.733l-1.857,7.192c-1.478,0-5.461-.053-6.719-.632-1.557-.716-1.763-1.689-1.763-1.689s-1.068-1.016-1-1.563.668-3.031.668-3.031-.863-2.041-.074-2.152,2.147-.295,2.147-.295,2.546-1.115,3.646-.8,4.025,3,4.025,3Z" transform="translate(-296.912 -77.78)" fill="#d8998b"/>
            <path id="Trazado_779371" data-name="Trazado 779371" d="M596.135,115.05a4.747,4.747,0,0,1-2.337-.408.164.164,0,1,1,.174-.277,5.658,5.658,0,0,0,2.971.329,4.256,4.256,0,0,0,3.147-1.583.164.164,0,1,1,.271.183,4.523,4.523,0,0,1-3.4,1.726c-.3.021-.578.03-.831.03" transform="translate(-316.938 -60.342)" fill="#373f51"/>
            <path id="Trazado_779372" data-name="Trazado 779372" d="M566.587,147.607a.165.165,0,0,1-.047-.007l-2.779-.82a.164.164,0,1,1,.093-.314l2.78.821a.164.164,0,0,1-.047.321" transform="translate(-300.883 -78.183)"/>
            <path id="Trazado_779373" data-name="Trazado 779373" d="M557.979,152.042a.164.164,0,0,1-.078-.02l-.979-.533a.164.164,0,0,1,.157-.288l.979.533a.164.164,0,0,1-.078.308" transform="translate(-297.249 -80.703)"/>
            <path id="Trazado_779374" data-name="Trazado 779374" d="M589.373,103.936a.163.163,0,0,1-.1-.035l-2.519-1.974a.164.164,0,1,1,.2-.258l2.519,1.974a.164.164,0,0,1,.027.23.162.162,0,0,1-.129.063" transform="translate(-313.186 -54.254)"/>
            <path id="Trazado_779375" data-name="Trazado 779375" d="M589,100.375a.162.162,0,0,1-.089-.026l-2.144-1.385a.164.164,0,1,1,.178-.275l2.143,1.385a.164.164,0,0,1-.089.3" transform="translate(-313.185 -52.667)"/>
            <path id="Trazado_779376" data-name="Trazado 779376" d="M577.008,131.573l-1.3,8.754s19.114,5.542,23.154-4.2c4.056-9.775-.576-19.614-3.966-21.255s-6.75,13.8-6.75,13.8Z" transform="translate(-307.326 -61.258)" fill="#7f7aff"/>
            <path id="Trazado_779377" data-name="Trazado 779377" d="M577.621,159.307l-2.343-.265a.748.748,0,0,1-.66-.827l1.039-9.2a.748.748,0,0,1,.827-.66l2.343.264a.748.748,0,0,1,.66.827l-1.039,9.2a.748.748,0,0,1-.827.66" transform="translate(-306.739 -79.192)" fill="#e6f4ff"/>
            <path id="Trazado_779378" data-name="Trazado 779378" d="M578.991,117.469l-1.363,2.023a.708.708,0,0,1-.982.192l-6.73-4.535a.707.707,0,0,1-.191-.982l1.363-2.023a.708.708,0,0,1,.983-.192l6.73,4.535a.708.708,0,0,1,.192.982" transform="translate(-304.064 -59.698)" fill="#e6f4ff"/>
            <path id="Trazado_779379" data-name="Trazado 779379" d="M591.451,145.719a.164.164,0,0,1-.072-.311,28.712,28.712,0,0,1,8.686-2.485.162.162,0,0,1,.177.15.164.164,0,0,1-.15.177,28.347,28.347,0,0,0-8.57,2.453.159.159,0,0,1-.072.017" transform="translate(-315.64 -76.294)" fill="#373f51"/>
            <path id="Trazado_779380" data-name="Trazado 779380" d="M602.206,142.155a.164.164,0,0,1-.134-.258c.15-.214,1.5-2.094,2.495-2.188a.692.692,0,0,1,.572.2.508.508,0,0,1,.164.5c-.2.816-2.573,1.593-3.048,1.74a.174.174,0,0,1-.049.007m2.44-2.122-.049,0c-.573.054-1.428.984-1.944,1.633,1-.356,2.23-.919,2.33-1.338a.188.188,0,0,0-.074-.191.358.358,0,0,0-.264-.107" transform="translate(-321.381 -74.577)" fill="#373f51"/>
            <path id="Trazado_779381" data-name="Trazado 779381" d="M581.85,296.247a.164.164,0,0,1-.007-.328l19.928-.776a.156.156,0,0,1,.171.158.165.165,0,0,1-.157.17l-19.928.776Z" transform="translate(-310.514 -157.552)" fill="#304572"/>
            <path id="Trazado_779382" data-name="Trazado 779382" d="M553.207,286.781a.164.164,0,0,1-.077-.02l-16.812-9.043a.164.164,0,0,1,.155-.289l16.812,9.043a.164.164,0,0,1-.077.308" transform="translate(-286.25 -148.087)" fill="#304572"/>
            <path id="Trazado_779383" data-name="Trazado 779383" d="M646.58,122.939s-8.765-11.07-9.311-10.332,7.914,11.041,7.914,11.041Z" transform="translate(-340.172 -60.093)" fill="#373f51"/>
            <path id="Trazado_779384" data-name="Trazado 779384" d="M666.039,142.23s-3.195.052-4.6-1.2,1.543-4.139,1.543-4.139l3.059,2.076Z" transform="translate(-352.884 -73.076)" fill="#d8998b"/>
            <path id="Trazado_779385" data-name="Trazado 779385" d="M653.237,133.056a2.917,2.917,0,0,0-1.3-.474c-1.571-.206-6.073,0-6.625,1.578-.529,1.515,1.975,1.48,1.975,1.48s-2.012.432-1.249,1.7a2,2,0,0,0,1.949.844s-2.05.649-.555,1.869,6.114.613,7.526-.171-.573-2.14-.573-2.14,1.411-1.045.971-1.9c-.466-.9-1.854-.623-1.854-.623a1.38,1.38,0,0,0-.263-2.168" transform="translate(-344.439 -70.739)" fill="#d8998b"/>
            <path id="Trazado_779386" data-name="Trazado 779386" d="M661.62,129.369s-5.737-2.8-6.807-2.643-5.063,3.544-4.086,4.474,4.086-1.468,4.086-1.468,3.19,5.355,5.284,4.75,1.523-5.113,1.523-5.113" transform="translate(-347.288 -67.645)" fill="#d8998b"/>
            <path id="Trazado_779387" data-name="Trazado 779387" d="M649.443,138.859a.164.164,0,0,1-.008-.328l5.707-.294a.151.151,0,0,1,.172.155.164.164,0,0,1-.155.172l-5.707.294h-.009" transform="translate(-346.597 -73.793)"/>
            <path id="Trazado_779388" data-name="Trazado 779388" d="M650.947,144.24a.164.164,0,0,1-.01-.327l5.721-.365a.159.159,0,0,1,.174.153.163.163,0,0,1-.153.174l-5.721.365h-.011" transform="translate(-347.4 -76.628)"/>
            <path id="Trazado_779389" data-name="Trazado 779389" d="M663.721,137.955a.162.162,0,0,1-.046-.007,6.764,6.764,0,0,1-4.356-4.921.164.164,0,1,1,.32-.069,6.428,6.428,0,0,0,4.129,4.674.164.164,0,0,1-.047.321" transform="translate(-351.954 -70.907)"/>
            <path id="Trazado_779390" data-name="Trazado 779390" d="M696.479,298.648v5.681l-10.325-.4v-5.28Z" transform="translate(-366.281 -159.424)" fill="#e29233"/>
            <path id="Trazado_779391" data-name="Trazado 779391" d="M748.5,297.275v5.681l-9.557-.4v-5.28Z" transform="translate(-394.458 -158.691)" fill="#e29233"/>
            <path id="Trazado_779392" data-name="Trazado 779392" d="M694.55,161.378s-6.283,11.445-10.7,31.015a225.449,225.449,0,0,0-4.9,32.612h17.421s1.938-14.554,2.455-20.312a129.121,129.121,0,0,1,2.233-13.467s2.391,33.216,2.961,33.779,17.246.124,17.068-.639-6.332-56.26-6.783-59.892c-1.388-11.165-19.76-3.1-19.76-3.1" transform="translate(-362.439 -84.642)" fill="#727997"/>
            <path id="Trazado_779393" data-name="Trazado 779393" d="M733.849,314.438c0,1,.325,2.15.991,2.438a40.41,40.41,0,0,0,10.771.465c4.515-.409,5.451-.754,5.784-1.179.163-.216-.155-1.219-.519-2.19-.023-.048-.039-.1-.062-.152-.186-.489-.38-.962-.519-1.3a5.647,5.647,0,0,0-.511-.923,16.2,16.2,0,0,1-1.7-2.888c-.325-.994-.821-3.144-1.154-4.155a1.808,1.808,0,0,0-1.146-1.2s-9.284-.657-9.95-.08-.991,5.3-.991,6.016V310a18.182,18.182,0,0,1-.728,3.072c-.077.273-.139.53-.186.762a3.245,3.245,0,0,0-.077.6" transform="translate(-391.742 -161.766)" fill="#5573c6"/>
            <path id="Trazado_779394" data-name="Trazado 779394" d="M651.793,316.963c.589.265,25.637,1.011,26.219,0a9.3,9.3,0,0,0,.383-2.639c.206-3.064.206-7.62.206-7.62a19.805,19.805,0,0,0,.147-2.278c-.03-.714-12.079-.441-12.079-.441l-7.832,6.729a13.789,13.789,0,0,0-4.5,0c-1.244.217-2.046,1.877-2.444,3.441-.353,1.388-.383,2.679-.1,2.807" transform="translate(-347.838 -162.245)" fill="#5573c6"/>
            <path id="Trazado_779395" data-name="Trazado 779395" d="M718.734,208.337a.164.164,0,0,1-.164-.152c-.005-.072-.549-7.228-.706-10.4-.135-2.709-.16-4.215-.164-4.608l-5.549-2.559a.164.164,0,0,1-.08-.217.166.166,0,0,1,.218-.08l5.643,2.6a.164.164,0,0,1,.1.148c0,.015.007,1.531.164,4.7s.7,10.321.707,10.393a.164.164,0,0,1-.152.176h-.012" transform="translate(-380.108 -101.588)" fill="#e29233"/>
            <path id="Trazado_779396" data-name="Trazado 779396" d="M750.228,310.962a.161.161,0,0,1-.044-.006c-.036-.01-3.663-1.008-5.484-.684l-1.881.334a.162.162,0,0,1-.176-.09.163.163,0,0,1,.039-.194c.138-.122,3.4-2.973,5.352-2.107a.164.164,0,1,1-.133.3c-1.349-.6-3.547.909-4.517,1.659l1.259-.224c1.9-.339,5.477.648,5.629.691a.164.164,0,0,1-.044.322" transform="translate(-396.428 -164.443)" fill="#373f51"/>
            <path id="Trazado_779397" data-name="Trazado 779397" d="M670.462,312.135a.164.164,0,0,1-.017-.327l4.393-.469-1.445-1.762a.164.164,0,0,1,.253-.208l1.638,2a.164.164,0,0,1-.109.267l-4.7.5h-.017" transform="translate(-357.817 -165.115)" fill="#373f51"/>
            <path id="Trazado_779398" data-name="Trazado 779398" d="M749.814,184.335a.164.164,0,0,1-.1-.031,13.279,13.279,0,0,1-4.244-6,.164.164,0,0,1,.312-.1,12.924,12.924,0,0,0,4.124,5.83.164.164,0,0,1-.1.3" transform="translate(-397.943 -95.07)" fill="#e29233"/>
            <path id="Trazado_779399" data-name="Trazado 779399" d="M720.848,106.954a17.164,17.164,0,0,1,9.295,3.838c4.137,3.561,8.36,15.368,6.033,19.074s-5.288,3.964-5.288,3.964l.172,4.309-22.61.211s1.863-27.427,2.772-29.461,9.626-1.935,9.626-1.935" transform="translate(-378.183 -57.094)" fill="#ffce79"/>
            <path id="Trazado_779400" data-name="Trazado 779400" d="M720.556,80.112s-1.85,2.035-.881,4.321,2.133-4.1,2.133-4.1Z" transform="translate(-384.026 -42.765)"/>
            <path id="Trazado_779401" data-name="Trazado 779401" d="M728.426,100.155l.012,4.088s-.734,1.177-3.125,1.378a4.236,4.236,0,0,1-2.408-.251l.243-2.071.239-2.02,4.316-.963Z" transform="translate(-385.899 -53.465)" fill="#d8998b"/>
            <path id="Trazado_779402" data-name="Trazado 779402" d="M727.877,100.5c-.01.112.651.472.585.624-.909,2.045-4.2,3.033-5.23,3.128l.329-2.789Z" transform="translate(-386.074 -53.65)"/>
            <path id="Trazado_779403" data-name="Trazado 779403" d="M720.762,79.917a3.853,3.853,0,0,0-1.211,1.754c-.557,1.57-1.686,5.237-1.012,7.505.877,2.947,3.53,2.435,5.112,1.835a5.261,5.261,0,0,0,2.3-1.6,2.224,2.224,0,0,0,2.466-.934,1.952,1.952,0,0,0-2.388-3.088l.762-1.546s-2.889-6.409-6.031-3.923" transform="translate(-383.458 -42.356)" fill="#d8998b"/>
            <path id="Trazado_779404" data-name="Trazado 779404" d="M735.072,94.661a.164.164,0,0,1-.1-.3l1.838-1.33a.164.164,0,1,1,.192.266l-1.838,1.33a.163.163,0,0,1-.1.031" transform="translate(-392.307 -49.647)"/>
            <path id="Trazado_779405" data-name="Trazado 779405" d="M737.284,95.77a.153.153,0,0,1-.041-.005l-1.214-.309a.164.164,0,0,1,.081-.318l1.214.309a.164.164,0,0,1-.041.323" transform="translate(-392.84 -50.784)"/>
            <path id="Trazado_779406" data-name="Trazado 779406" d="M721.879,92.077a.163.163,0,0,1-.147-.093,2.685,2.685,0,0,1,.337-2.516.164.164,0,0,1,.267.191,2.4,2.4,0,0,0-.309,2.183.163.163,0,0,1-.076.219.161.161,0,0,1-.071.016" transform="translate(-385.167 -47.723)"/>
            <path id="Trazado_779407" data-name="Trazado 779407" d="M720.639,89.287a.171.171,0,0,1-.043-.006.164.164,0,0,1-.116-.2l.254-.938a.162.162,0,0,1,.2-.116.165.165,0,0,1,.116.2l-.254.938a.164.164,0,0,1-.158.121" transform="translate(-384.602 -46.987)"/>
            <path id="Trazado_779408" data-name="Trazado 779408" d="M693.79,111.826l-.627,27.49h-6.112l.725-12.018a59.334,59.334,0,0,1-9.842.892,35.392,35.392,0,0,1-7.738-.52l.948-9.636a29.629,29.629,0,0,0,12.281-3.718c5.578-3.384,7.654-6.868,11.182-6.784s-.817,4.295-.817,4.295" transform="translate(-357.762 -57.401)" fill="#ffce79"/>
            <path id="Trazado_779409" data-name="Trazado 779409" d="M726.188,89.66a.173.173,0,0,1-.043-.006.164.164,0,0,1-.116-.2l.254-.938a.162.162,0,0,1,.2-.116.164.164,0,0,1,.116.2l-.254.938a.163.163,0,0,1-.158.121" transform="translate(-387.564 -47.186)"/>
            <path id="Trazado_779410" data-name="Trazado 779410" d="M720.639,86.328a.164.164,0,0,1-.015-.327l.777-.073a.161.161,0,0,1,.179.148.164.164,0,0,1-.148.179l-.777.073h-.015" transform="translate(-384.603 -45.87)"/>
            <path id="Trazado_779411" data-name="Trazado 779411" d="M726.709,86.867a.165.165,0,0,1-.066-.014l-1.048-.456a.164.164,0,0,1,.132-.3l1.048.456a.164.164,0,0,1-.066.314" transform="translate(-387.283 -45.953)"/>
            <path id="Trazado_779412" data-name="Trazado 779412" d="M727.317,84.458s-.448,1.7-.771,1.483-.594-2.669-.336-3.763.444-1.644.444-1.644-4.459-.46-5.621-1.537,1.333-1.727,3.869-1.21a7.366,7.366,0,0,1,3.525,1.487s1.6-.215,2.178.765-.825,4.654-.825,4.654-.389-.932-2.464-.234" transform="translate(-384.744 -41.428)"/>
            <path id="Trazado_779413" data-name="Trazado 779413" d="M724.386,97.6a.164.164,0,0,1-.092-.3l1.094-.741a.164.164,0,1,1,.184.271l-1.094.741a.163.163,0,0,1-.092.028" transform="translate(-386.602 -51.529)"/>
            <path id="Trazado_779414" data-name="Trazado 779414" d="M714.9,132.98a.163.163,0,0,1-.153-.105c-1.124-2.934-3-7.9-2.92-8.218a21.006,21.006,0,0,1,1.985-2.581,12.292,12.292,0,0,1-2.376-2.319c-.081-.4,2.294-4.777,3.319-6.638a.164.164,0,0,1,.287.158,69.332,69.332,0,0,0-3.283,6.434,16.347,16.347,0,0,0,2.389,2.218.164.164,0,0,1,.021.233,25.536,25.536,0,0,0-2.026,2.576c.016.348,1.748,4.991,2.908,8.02a.164.164,0,0,1-.153.223" transform="translate(-379.776 -60.339)" fill="#373f51"/>
            <path id="Trazado_779415" data-name="Trazado 779415" d="M719.416,144.378h7.867L725.3,118.245h-5.437Z" transform="translate(-384.037 -63.122)" fill="#373f51"/>
            <path id="Trazado_779416" data-name="Trazado 779416" d="M732.048,125.634s1.847,23.45,1.963,23.347,9.853-.27,9.853-.27l-.323-6.837Z" transform="translate(-390.78 -67.066)" fill="#ffce79"/>
            <path id="Trazado_779417" data-name="Trazado 779417" d="M736.069,132.98a.162.162,0,0,1-.059-.011.164.164,0,0,1-.094-.212c1.16-3.029,2.892-7.672,2.9-8.046a29.166,29.166,0,0,0-2.021-2.55.164.164,0,0,1,.021-.233,15.18,15.18,0,0,0,2.391-2.238c-.025-.364-2.028-4.13-3.286-6.414a.164.164,0,0,1,.287-.158c1.025,1.861,3.4,6.234,3.32,6.638a12.317,12.317,0,0,1-2.376,2.319,21.034,21.034,0,0,1,1.985,2.581c.079.315-1.8,5.284-2.92,8.218a.163.163,0,0,1-.153.105" transform="translate(-392.839 -60.339)" fill="#373f51"/>
            <path id="Trazado_779418" data-name="Trazado 779418" d="M721.4,104.507s-6.215-3.89-6.911-3.439,2.7,3.291,2.7,3.291a13.677,13.677,0,0,0-1.627,1.552c-.083.248-.451.858-.735,1.523s-.158,1.109.486,1.8a19.9,19.9,0,0,0,5.76,2.78l.927.064,2.761-4.735s.152-4.146-.738-4.647-1.317,2.728-1.317,2.728Z" transform="translate(-381.357 -53.932)" fill="#d8998b"/>
            <path id="Trazado_779419" data-name="Trazado 779419" d="M729.058,107.308a.163.163,0,0,1-.087-.025l-2.6-1.633a.164.164,0,1,1,.175-.277l2.393,1.5c.048-.244.141-.689.308-1.4.309-1.318,1.113-1.224,1.148-1.22a.164.164,0,0,1-.042.325c-.032,0-.552-.037-.787.97-.274,1.166-.347,1.617-.348,1.621a.165.165,0,0,1-.094.124.167.167,0,0,1-.068.014" transform="translate(-387.71 -55.651)"/>
            <path id="Trazado_779420" data-name="Trazado 779420" d="M720.9,108.752a.165.165,0,0,1-.108-.04l-.7-.607a.164.164,0,1,1,.214-.248l.7.607a.164.164,0,0,1-.107.288" transform="translate(-384.366 -57.555)"/>
            <path id="Trazado_779421" data-name="Trazado 779421" d="M695.282,127.694a.583.583,0,0,1-.4-.164c-.651-.591-.7-2.741-.7-2.984a.164.164,0,0,1,.3-.092c.256.39,1.514,2.369,1.2,3.009a.411.411,0,0,1-.354.229l-.049,0m-.741-2.527a4.1,4.1,0,0,0,.561,2.121.261.261,0,0,0,.2.078c.066-.006.079-.03.086-.046.139-.285-.344-1.3-.849-2.152" transform="translate(-370.567 -66.396)" fill="#373f51"/>
            <path id="Trazado_779422" data-name="Trazado 779422" d="M707.718,147.963l-.024,0a.164.164,0,0,1-.138-.186l.254-1.7a.164.164,0,0,1,.324.048l-.254,1.7a.165.165,0,0,1-.162.14" transform="translate(-377.705 -77.903)" fill="#373f51"/>
            <path id="Trazado_779423" data-name="Trazado 779423" d="M732.9,113.385l-4.066,6.371s3.552,15.528,12.1,17.315,6.723-8.038,6.723-8.038Z" transform="translate(-389.067 -60.527)" fill="#ffce79"/>
            <path id="Trazado_779424" data-name="Trazado 779424" d="M750.782,125.453a.164.164,0,0,1-.135-.072c-2.01-2.967-7.691-8.427-7.748-8.482a.164.164,0,1,1,.227-.236c.057.055,5.763,5.539,7.792,8.534a.164.164,0,0,1-.136.256" transform="translate(-396.545 -62.252)" fill="#373f51"/>
            <path id="Trazado_779425" data-name="Trazado 779425" d="M755.995,129.026c-.941,0-2.844-1.708-3.237-2.07a.164.164,0,0,1,.152-.279c.316.083,3.1.832,3.544,1.6a.449.449,0,0,1,.058.352.494.494,0,0,1-.348.377.6.6,0,0,1-.17.022m-2.467-1.83c.92.774,2.116,1.617,2.546,1.493.045-.013.095-.041.123-.146.009-.035.044-.363-1.564-.972-.388-.147-.784-.276-1.1-.375" transform="translate(-401.807 -67.619)" fill="#373f51"/>
            <path id="Trazado_779426" data-name="Trazado 779426" d="M151.444,304.947s8.555,4.392,11.052,6.884,2.581,4.144,2.264,4.946-18.229-.5-18.229-.5-.059-4.932-1.978-4.667-1,4.707-1,4.707l-5.42-.2a42.048,42.048,0,0,1,.332-6.816,47.9,47.9,0,0,1,1.757-5.259Z" transform="translate(-73.732 -162.305)" fill="#7f7aff"/>
            <path id="Trazado_779427" data-name="Trazado 779427" d="M152.039,301.241s7.345,4.415,5.971,4.815-9.064.261-11.3-.622-4.085-3.612-4.085-3.612l5.215-1.941Z" transform="translate(-76.138 -160.082)" fill="#e29a8f"/>
            <path id="Trazado_779428" data-name="Trazado 779428" d="M151.981,261.1s5.321-30.993,1.874-35.382-11.334,6.689-11.334,6.689l.051,29.274s7.011,2.4,9.409-.581" transform="translate(-76.08 -119.945)" fill="#e29a8f"/>
            <path id="Trazado_779429" data-name="Trazado 779429" d="M128.984,234.843s-1.056,29.428-2.473,32.54-9.157,0-9.157,0L115.525,235.5Z" transform="translate(-61.669 -125.363)" fill="#d8998b"/>
            <path id="Trazado_779430" data-name="Trazado 779430" d="M135.251,168.834a118.553,118.553,0,0,1,3.894,16.244c1.055,7.4,1.312,19.308.4,19.69s-11.41.237-11.41.237a35.868,35.868,0,0,1-9.666.249,45.987,45.987,0,0,1-5.138-.685,1.287,1.287,0,0,1-1.031-1.3c.153-5.02,1.254-28.592,4.385-32.818,2.781-3.752,18.567-1.612,18.567-1.612" transform="translate(-59.947 -89.802)" fill="#e29233"/>
            <path id="Trazado_779431" data-name="Trazado 779431" d="M125.95,301.494s2.757,9.513,2.192,11.5-6.366,4.285-8.3,4.181-5.364-3.436-5.834-4.638,1.915-12.674,4.632-11.944a42.574,42.574,0,0,0,7.309.9" transform="translate(-60.828 -160.443)" fill="#7f7aff"/>
            <path id="Trazado_779432" data-name="Trazado 779432" d="M128.885,296.882s-1.347,6.273-4.537,6.273-4.9-5.3-4.9-5.3l1.292-5.933Z" transform="translate(-63.763 -155.832)" fill="#d8998b"/>
            <path id="Trazado_779433" data-name="Trazado 779433" d="M161.864,133.505s-6.2-14.169-13.12-16.158.528,17.77.528,17.77Z" transform="translate(-77.831 -62.567)" fill="#5573c6"/>
            <path id="Trazado_779434" data-name="Trazado 779434" d="M107.432,115.81s-13.476,2.812-15.244,13.808c-2.434,15.14,16.132,16.333,16.132,16.333Z" transform="translate(-49.094 -61.821)" fill="#5573c6"/>
            <path id="Trazado_779435" data-name="Trazado 779435" d="M128.267,97.111s-6.242.83-4.22-7.246,7.8-3.492,7.8-3.492Z" transform="translate(-66.003 -45.416)"/>
            <path id="Trazado_779436" data-name="Trazado 779436" d="M137.964,143.977s.092-25.5-4.987-27.9c-6.367-3.015-15.584-1.626-17.266,1.442-1.921,3.5.821,24.652.821,24.652a29.576,29.576,0,0,0,21.431,1.811" transform="translate(-61.404 -61.065)" fill="#5573c6"/>
            <path id="Trazado_779437" data-name="Trazado 779437" d="M130.58,106.276l-.359,4.341s.358,1.436,2.88,1.852a5.183,5.183,0,0,0,2.9-.186l-.082-2.22-.083-2.165-4.5-1.387Z" transform="translate(-69.515 -56.732)" fill="#d8998b"/>
            <path id="Trazado_779438" data-name="Trazado 779438" d="M132.611,106.777a1.439,1.439,0,0,0,.091.429c.793,2.248,3.41,2.935,4.494,3.123l-.083-2.165Z" transform="translate(-70.79 -56.999)"/>
            <path id="Trazado_779439" data-name="Trazado 779439" d="M134.738,86.607s1.829,5.631.682,8.581-3.865,2.2-5.46,1.452A5.5,5.5,0,0,1,127.7,94.8a2.487,2.487,0,0,1-1.663-4.582,2.436,2.436,0,0,1,1.905.448l-.668-1.65s4.241-7.634,7.469-2.412" transform="translate(-66.63 -45.257)" fill="#d8998b"/>
            <path id="Trazado_779440" data-name="Trazado 779440" d="M170.468,124.528s4.408-9.161,3.758-9.283-4.657,8.6-4.657,8.6Z" transform="translate(-90.519 -61.519)"/>
            <path id="Trazado_779441" data-name="Trazado 779441" d="M160.216,140.3a.168.168,0,0,1-.163-.183c.244-2.059-1.435-8.559-1.452-8.624a.164.164,0,1,1,.317-.082c.07.269,1.711,6.625,1.461,8.745a.164.164,0,0,1-.163.144" transform="translate(-84.661 -70.084)" fill="#fff"/>
            <path id="Trazado_779442" data-name="Trazado 779442" d="M169.38,136.6s-2.823-5.936-4.439-6.768-5.8-.493-5.863,0,3.655,1.539,3.655,1.539-2.574,3.465-2.708,4.3,1.494,3.5,1.887,3.79,1.613-.937,1.613-.937a6.278,6.278,0,0,0,2.6,2.188c1.6.633,3.786-1.64,3.786-1.64Z" transform="translate(-84.918 -69.037)" fill="#d8998b"/>
            <path id="Trazado_779443" data-name="Trazado 779443" d="M145.68,97.919a.164.164,0,0,1-.163-.152l-.08-1.064a.163.163,0,0,1,.111-.168l.523-.173a.164.164,0,0,1,.1.311l-.4.133.071.937a.164.164,0,0,1-.151.176h-.013" transform="translate(-77.636 -51.436)"/>
            <path id="Trazado_779444" data-name="Trazado 779444" d="M168.706,149.4s-1.566-1.685-1.574-3.039,2.958-1.167,2.958-1.167l.361,2.637Z" transform="translate(-89.218 -77.503)" fill="#ff9c85"/>
            <path id="Trazado_779445" data-name="Trazado 779445" d="M155.408,158.883H135.785a1.259,1.259,0,0,1-1.259-1.259V144.345a1.259,1.259,0,0,1,1.259-1.259h19.623a1.259,1.259,0,0,1,1.259,1.259v13.279a1.259,1.259,0,0,1-1.259,1.259" transform="translate(-71.812 -76.382)"/>
            <path id="Trazado_779446" data-name="Trazado 779446" d="M152.378,158.883h-19.54a1.256,1.256,0,0,1-1.256-1.256V144.342a1.256,1.256,0,0,1,1.256-1.256h19.54a1.256,1.256,0,0,1,1.256,1.256v13.284a1.257,1.257,0,0,1-1.256,1.256" transform="translate(-70.24 -76.382)" fill="#304572"/>
            <path id="Trazado_779447" data-name="Trazado 779447" d="M156.809,157.9a1.858,1.858,0,1,1-1.859-1.859,1.859,1.859,0,0,1,1.859,1.859" transform="translate(-81.723 -83.298)" fill="#fff"/>
            <path id="Trazado_779448" data-name="Trazado 779448" d="M139.086,97.554a.164.164,0,0,1-.164-.159l-.026-.953a.164.164,0,0,1,.1-.153l.513-.236a.164.164,0,0,1,.137.3l-.415.191.024.845a.164.164,0,0,1-.159.168Z" transform="translate(-74.145 -51.266)"/>
            <path id="Trazado_779449" data-name="Trazado 779449" d="M121.008,156.874s3.9-1.268,4.411-1.433a5.877,5.877,0,0,1-.116,1.65c-.171.247,7.5,1.43,7.481,2.171a.97.97,0,0,1-.732.906s1.536.329,1.124,1.07a1.451,1.451,0,0,1-1.124.771s1.511.734,0,1.669-8.923,1.512-11.3-.859c-1.747-1.743.256-5.945.256-5.945" transform="translate(-64.078 -82.977)" fill="#d8998b"/>
            <path id="Trazado_779450" data-name="Trazado 779450" d="M129.455,89.422s2.581-.215,3.816-1.75a10.342,10.342,0,0,0,1.64-3.089,6.837,6.837,0,0,1,1.137,1.521,14.168,14.168,0,0,1,.859,1.816s1.168-3.525-1.992-4.974a5.408,5.408,0,0,0-7.036,2.49c-.966,1.969,1.574,3.986,1.574,3.986" transform="translate(-68.148 -44.011)"/>
            <path id="Trazado_779451" data-name="Trazado 779451" d="M111.021,150.035l-.2,9.854s-3.691.6-8.782-2.8c-7.075-4.726-4.626-6.21-4.626-6.21l6.852-3.986Z" transform="translate(-51.784 -78.412)" fill="#5573c6"/>
            <path id="Trazado_779452" data-name="Trazado 779452" d="M140.6,164.976l-4.405-.508a.164.164,0,0,1-.144-.182.167.167,0,0,1,.181-.144l4.386.507a.164.164,0,0,1-.019.327" transform="translate(-72.625 -87.622)"/>
            <path id="Trazado_779453" data-name="Trazado 779453" d="M140.6,169.506h-4.386a.164.164,0,0,1,0-.328H140.6a.164.164,0,1,1,0,.328" transform="translate(-72.625 -90.31)"/>
            <path id="Trazado_779454" data-name="Trazado 779454" d="M119.312,149.178a.159.159,0,0,1-.073-.018c-.061-.03-6.118-3.059-9.124-3.273a.164.164,0,0,1-.151-.175.167.167,0,0,1,.175-.152c3.072.22,9,3.182,9.248,3.308a.164.164,0,0,1-.074.31" transform="translate(-58.7 -77.702)" fill="#fff"/>
            <path id="Trazado_779455" data-name="Trazado 779455" d="M117.84,145.151a.161.161,0,0,1-.1-.036c-.818-.65-3.468-2.829-3.23-3.553.037-.113.145-.251.447-.262h.039c1.565,0,2.941,3.479,3,3.629a.164.164,0,0,1-.153.223m-2.846-3.524h-.028c-.113,0-.145.03-.147.037-.1.3,1.192,1.6,2.605,2.773-.525-1.124-1.51-2.811-2.43-2.811" transform="translate(-61.118 -75.428)" fill="#fff"/>
            <path id="Trazado_779456" data-name="Trazado 779456" d="M123.243,83.43s.744-4.7-3.266-5.175-3.507,7.468,1.655,7.367,1.611-2.192,1.611-2.192" transform="translate(-62.626 -41.763)"/>
            <path id="Trazado_779457" data-name="Trazado 779457" d="M124.719,90.359a.149.149,0,0,1-.035,0,.164.164,0,0,1-.125-.195,5.157,5.157,0,0,1,1.735-3.179.164.164,0,0,1,.185.271,4.951,4.951,0,0,0-1.6,2.978.164.164,0,0,1-.16.129" transform="translate(-66.49 -46.417)" fill="#fff"/>
            <path id="Trazado_779458" data-name="Trazado 779458" d="M138.155,93.905a.164.164,0,0,1-.024-.325l1.427-.212a.166.166,0,0,1,.186.138.164.164,0,0,1-.138.186l-1.427.211-.024,0" transform="translate(-73.662 -49.841)"/>
            <path id="Trazado_779459" data-name="Trazado 779459" d="M146.215,93.945a.2.2,0,0,1-.033,0l-.955-.192a.164.164,0,1,1,.065-.321l.955.192a.164.164,0,0,1-.032.324" transform="translate(-77.455 -49.872)"/>
            <path id="Trazado_779460" data-name="Trazado 779460" d="M143.073,100.35a.164.164,0,0,1-.111-.284c.625-.577,0-2.033-.01-2.048a.164.164,0,0,1,.084-.216.165.165,0,0,1,.216.084c.03.069.728,1.686-.069,2.421a.163.163,0,0,1-.111.043" transform="translate(-76.288 -52.201)"/>
            <path id="Trazado_779461" data-name="Trazado 779461" d="M139.272,104.319a.165.165,0,0,1-.047-.007,1.517,1.517,0,0,1-1-1.178.164.164,0,0,1,.323-.057,1.189,1.189,0,0,0,.77.922.164.164,0,0,1-.048.32" transform="translate(-73.787 -54.952)"/>
            <path id="Trazado_779462" data-name="Trazado 779462" d="M128.553,100.024a.162.162,0,0,1-.114-.046l-1.655-1.6a.164.164,0,0,1,.227-.236l1.655,1.6a.163.163,0,0,1-.114.281" transform="translate(-67.653 -52.366)"/>
            <path id="Trazado_779463" data-name="Trazado 779463" d="M126.856,100.8a.164.164,0,0,1-.022-.326l1.093-.151a.164.164,0,0,1,.045.324l-1.094.151h-.022" transform="translate(-67.631 -53.554)"/>
            <path id="Trazado_779464" data-name="Trazado 779464" d="M133.559,118.011a5.052,5.052,0,0,1-3.848-1.542.164.164,0,0,1,.241-.222c2.353,2.558,6.439.927,6.481.91a.164.164,0,0,1,.124.3,8.909,8.909,0,0,1-3,.55" transform="translate(-69.219 -62.026)" fill="#fff"/>
            <path id="Trazado_779465" data-name="Trazado 779465" d="M168.866,134.359a.164.164,0,0,1-.112-.044,4.831,4.831,0,0,0-2.04-.636.163.163,0,0,1-.144-.181.165.165,0,0,1,.181-.144,5.241,5.241,0,0,1,2.227.721.164.164,0,0,1-.112.284" transform="translate(-88.917 -71.186)"/>
            <path id="Trazado_779466" data-name="Trazado 779466" d="M118.533,241.288a.164.164,0,0,1-.157-.118l-1.346-4.6-.945,4.22a.162.162,0,0,1-.2.124.164.164,0,0,1-.124-.2l1.084-4.841a.164.164,0,0,1,.154-.128.171.171,0,0,1,.163.118l1.524,5.208a.163.163,0,0,1-.111.2.158.158,0,0,1-.046.007" transform="translate(-61.795 -125.849)" fill="#304572"/>
            <path id="Trazado_779467" data-name="Trazado 779467" d="M134.115,267.532a1.192,1.192,0,0,0,1.192-1.193V209.058h-2.385V266.34a1.192,1.192,0,0,0,1.192,1.193" transform="translate(-70.957 -111.599)" fill="#12171e"/>
            <rect id="Rectángulo_366082" data-name="Rectángulo 366082" width="4.634" height="31.606" transform="translate(20.056 115.879)" fill="#c0bfc1"/>
            <path id="Trazado_779468" data-name="Trazado 779468" d="M25.38,317.094H44.824a1.457,1.457,0,1,0,0-2.913H25.38a1.457,1.457,0,0,0,0,2.913" transform="translate(-12.771 -167.715)" fill="#c0bfc1"/>
            <path id="Trazado_779469" data-name="Trazado 779469" d="M63.174,321.631a3.132,3.132,0,1,0,3.132-3.132,3.132,3.132,0,0,0-3.132,3.132" transform="translate(-33.723 -170.02)" fill="#c0bfc1"/>
            <path id="Trazado_779470" data-name="Trazado 779470" d="M41.273,321.631a3.132,3.132,0,1,0,3.132-3.132,3.132,3.132,0,0,0-3.132,3.132" transform="translate(-22.032 -170.02)" fill="#c0bfc1"/>
            <path id="Trazado_779471" data-name="Trazado 779471" d="M19.463,321.631A3.132,3.132,0,1,0,22.6,318.5a3.132,3.132,0,0,0-3.132,3.132" transform="translate(-10.39 -170.02)" fill="#c0bfc1"/>
            <path id="Trazado_779472" data-name="Trazado 779472" d="M9.724,185.356A18.267,18.267,0,0,0,2.092,204.1c2.512,14.815,17.282,19.618,30.094,16.118s10.677-13.594,10.677-13.594Z" transform="translate(-0.948 -98.946)" fill="#e0dfe5"/>
            <path id="Trazado_779473" data-name="Trazado 779473" d="M10.057,232.557a.164.164,0,0,1-.111-.043c-3.266-3.021-3.873-8.728-3.9-8.97a.164.164,0,0,1,.326-.033c.006.058.619,5.826,3.793,8.762a.164.164,0,0,1-.111.283" transform="translate(-3.229 -119.236)" fill="#fff"/>
            <path id="Trazado_779474" data-name="Trazado 779474" d="M38.424,147.47s6.684.592,9.194,3.819-.806,23.462-.986,23.744S41.8,177.376,33.681,177.2s-10.088-1.73-10.357-2.164-1.972-23.279,0-25.214,10.208-2.94,15.1-2.348" transform="translate(-11.949 -78.632)" fill="#283f65"/>
            <path id="Trazado_779475" data-name="Trazado 779475" d="M63.032,291.112v8.61L56.475,302.2l-4.132-4.633-.679-7.964Z" transform="translate(-27.579 -154.597)" fill="#d8998b"/>
            <path id="Trazado_779476" data-name="Trazado 779476" d="M88.5,287.283v8.61l-6.987,2.481-4.4-4.633-.724-7.964Z" transform="translate(-40.779 -152.553)" fill="#d8998b"/>
            <path id="Trazado_779477" data-name="Trazado 779477" d="M60.744,203.425s16.7,8.4,18.752,11.816-.208,31.23-.208,31.23l-14.809.2-2.051-15.545L51.172,204.939Z" transform="translate(-27.317 -108.592)" fill="#b0c0d2"/>
            <path id="Trazado_779478" data-name="Trazado 779478" d="M27.614,207.221a91.329,91.329,0,0,0-.434,9.913c.241,2.45,7.969,8.221,7.969,8.221l.382,23.893,17.123.765s.372-27.3.087-29.876-11.677-11.924-11.677-11.924Z" transform="translate(-14.481 -110.618)" fill="#b0c0d2"/>
            <path id="Trazado_779479" data-name="Trazado 779479" d="M48.248,140.176l.1,4.348s.812,1.233,3.36,1.383a4.507,4.507,0,0,0,2.555-.331l-.313-2.2-.308-2.142-4.616-.908Z" transform="translate(-25.756 -74.828)" fill="#d8998b"/>
            <path id="Trazado_779480" data-name="Trazado 779480" d="M49.909,140.505a1.429,1.429,0,0,0,.136.417c1.021,2.151,3.692,2.56,4.788,2.633l-.308-2.142Z" transform="translate(-26.642 -75.004)"/>
            <path id="Trazado_779481" data-name="Trazado 779481" d="M50.793,119.363s2.4,5.4,1.571,8.45-3.608,2.589-5.271,2.012a5.488,5.488,0,0,1-2.44-1.59,2.483,2.483,0,0,1-2.129-4.376,2.434,2.434,0,0,1,1.939.247l-.835-1.569s3.416-8.023,7.166-3.173" transform="translate(-22.162 -62.886)" fill="#d8998b"/>
            <path id="Trazado_779482" data-name="Trazado 779482" d="M60.255,132.961a.161.161,0,0,1-.048-.007.164.164,0,0,1-.108-.205,2.783,2.783,0,0,0-.446-2.093.164.164,0,0,1,.268-.189,3.066,3.066,0,0,1,.491,2.379.164.164,0,0,1-.157.115" transform="translate(-31.828 -69.609)"/>
            <path id="Trazado_779483" data-name="Trazado 779483" d="M45.472,134.589a.163.163,0,0,1-.119-.051l-1.472-1.559a.164.164,0,1,1,.238-.225l1.472,1.559a.164.164,0,0,1-.119.276" transform="translate(-23.401 -70.839)"/>
            <path id="Trazado_779484" data-name="Trazado 779484" d="M43.816,135.3a.164.164,0,0,1-.024-.325l1.018-.155a.164.164,0,0,1,.049.324l-1.018.154a.111.111,0,0,1-.025,0" transform="translate(-23.302 -71.969)"/>
            <path id="Trazado_779485" data-name="Trazado 779485" d="M55.38,130.031a.164.164,0,0,1-.162-.143l-.129-1.009a.164.164,0,0,1,.325-.041l.129,1.009a.164.164,0,0,1-.142.183H55.38" transform="translate(-29.407 -68.699)"/>
            <path id="Trazado_779486" data-name="Trazado 779486" d="M61.786,129.518a.163.163,0,0,1-.162-.14l-.148-1.007a.164.164,0,1,1,.324-.048l.148,1.007a.164.164,0,0,1-.138.186l-.024,0" transform="translate(-32.816 -68.426)"/>
            <path id="Trazado_779487" data-name="Trazado 779487" d="M54.046,126.732a.166.166,0,0,1-.079-.02.165.165,0,0,1-.065-.223,1.2,1.2,0,0,1,1.315-.478.164.164,0,1,1-.078.318c-.028-.007-.688-.159-.949.317a.165.165,0,0,1-.144.085" transform="translate(-28.763 -67.247)"/>
            <path id="Trazado_779488" data-name="Trazado 779488" d="M61.239,125.946a.164.164,0,0,1-.13-.064.785.785,0,0,0-.454-.283.455.455,0,0,0-.342.129.164.164,0,1,1-.215-.247.771.771,0,0,1,.592-.207,1.108,1.108,0,0,1,.679.41.164.164,0,0,1-.13.263" transform="translate(-32.051 -66.871)"/>
            <path id="Trazado_779489" data-name="Trazado 779489" d="M44.065,122.572a3.184,3.184,0,0,0,1.38-2.5,3.561,3.561,0,0,0-.419-1.891,14.211,14.211,0,0,0,3.132-.551,4.281,4.281,0,0,0,1.32-.632l.4.467c.433-.02,1.422-2.643.771-3.109s-4.14.75-4.14.75-3.674-.864-5.82,1.748.259,5.69.259,5.69.635-1.347,3.121.029" transform="translate(-21.243 -60.988)"/>
            <path id="Trazado_779490" data-name="Trazado 779490" d="M57.06,138.444a1.133,1.133,0,0,1-.32-.046.691.691,0,0,1-.441-.342.928.928,0,0,1-.037-.655.163.163,0,0,1,.085-.1.159.159,0,0,1,.128-.006l1.4.525a.164.164,0,0,1,.055.273,1.389,1.389,0,0,1-.874.345m-.515-.768a.459.459,0,0,0,.045.23.373.373,0,0,0,.242.178.88.88,0,0,0,.629-.065Z" transform="translate(-30.01 -73.287)"/>
            <path id="Trazado_779491" data-name="Trazado 779491" d="M117.861,165.835l.154-.971a37.031,37.031,0,0,1,6.015-3.77c.964-.393,2.315-.065,1.175,1.211a5.4,5.4,0,0,0-.922,1.507,14.675,14.675,0,0,0,3.1-1.418c.809-.536,1.99-2.689,2.683-2.223,1.1.743-.165,2.845-.165,2.845s.572-2.663,1.661-1.623-1.877,6.265-3.287,7.514-8.85,2.7-8.85,2.7Z" transform="translate(-62.916 -85.467)" fill="#d8998b"/>
            <path id="Trazado_779492" data-name="Trazado 779492" d="M134.49,168.23a.164.164,0,0,1-.016-.327,6.54,6.54,0,0,0,3.179-1.613.164.164,0,1,1,.225.239,6.748,6.748,0,0,1-3.371,1.7h-.016" transform="translate(-71.706 -88.745)"/>
            <path id="Trazado_779493" data-name="Trazado 779493" d="M134.891,170.452a.164.164,0,0,1-.085-.024l-3.262-1.979a.164.164,0,0,1,.17-.28l3.168,1.922,1.467-1.1a.164.164,0,0,1,.2.262l-1.556,1.165a.164.164,0,0,1-.1.033" transform="translate(-70.179 -89.759)"/>
            <path id="Trazado_779494" data-name="Trazado 779494" d="M125.169,170.391a.164.164,0,0,1-.049-.32,7.233,7.233,0,0,0,2.937-1.87.164.164,0,0,1,.247.216,7.429,7.429,0,0,1-3.086,1.966.15.15,0,0,1-.049.008" transform="translate(-66.73 -89.759)"/>
            <path id="Trazado_779495" data-name="Trazado 779495" d="M72.145,154.009s7.578,6.7,13.7,7.088a21.416,21.416,0,0,0,6.907-1.219l3.515,9.2S83.9,180.789,71.309,171.56c-3.618-2.652.835-17.551.835-17.551" transform="translate(-37.31 -82.213)" fill="#283f65"/>
            <path id="Trazado_779496" data-name="Trazado 779496" d="M74.136,170.082a.164.164,0,0,1-.164-.164c0-1.1-2-7.158-2.017-7.219a.164.164,0,0,1,.311-.1c.083.251,2.034,6.169,2.034,7.322a.164.164,0,0,1-.164.164" transform="translate(-38.407 -86.737)" fill="#e29233"/>
            <path id="Trazado_779497" data-name="Trazado 779497" d="M73.876,312.847s.307-13.843,2.458-13.554a9.573,9.573,0,0,1,4.3,2.307s4.917-2.6,7.068-1.154a11.338,11.338,0,0,1,3.387,4.614l11.978,7.787s1.448,2.307,1.032,3.46c-.325.9-18.542.4-26.534.131a3.7,3.7,0,0,1-3.691-3.591" transform="translate(-39.436 -159.765)" fill="#385721"/>
            <path id="Trazado_779498" data-name="Trazado 779498" d="M66.644,311s-3-7.35-4.942-8.619-6.79,2.759-6.79,2.759-4.062-4.277-5.062-2.033-1.483,10.279-.726,12.053,6.33,4.727,13.651,4.707c3.45-.009,8.425-1.075,8.428-2.26,0-1.864-3.382-5.378-4.558-6.606" transform="translate(-26.025 -161.283)" fill="#385721"/>
            <path id="Trazado_779499" data-name="Trazado 779499" d="M74.045,315.67H68.427a.164.164,0,1,1,0-.328h5.618a.164.164,0,1,1,0,.328" transform="translate(-36.44 -168.335)" fill="#fff"/>
            <path id="Trazado_779500" data-name="Trazado 779500" d="M55.62,152.767l2.459,16.3H56.043l-1.809-16.631Z" transform="translate(-28.951 -81.371)" fill="#304572"/>
            <path id="Trazado_779501" data-name="Trazado 779501" d="M117.889,176.959l1.788-.6a.444.444,0,0,0,.281-.562l-3.254-9.751a.444.444,0,0,0-.562-.281l-1.788.6a.444.444,0,0,0-.281.562l3.254,9.751a.444.444,0,0,0,.562.281" transform="translate(-60.882 -88.478)" fill="#304572"/>
            <path id="Trazado_779502" data-name="Trazado 779502" d="M75.656,321.125H69.705a.164.164,0,1,1,0-.328h5.951a.164.164,0,1,1,0,.328" transform="translate(-37.122 -171.247)" fill="#fff"/>
            <path id="Trazado_779503" data-name="Trazado 779503" d="M104.259,313.264a.164.164,0,0,1-.022-.326l3.581-.489a.164.164,0,1,1,.044.325l-3.581.489h-.022" transform="translate(-55.568 -166.79)" fill="#fff"/>
            <path id="Trazado_779504" data-name="Trazado 779504" d="M106.187,318.083a.164.164,0,0,1-.024-.326l6.025-.917a.164.164,0,0,1,.049.324l-6.025.917-.025,0" transform="translate(-56.597 -169.134)" fill="#fff"/>
            <path id="Trazado_779505" data-name="Trazado 779505" d="M75.368,250.071a.165.165,0,0,1-.164-.168c.007-.255.629-25.493,0-28.454-.426-2.017-6.83-8.307-6.895-8.371a.164.164,0,0,1,.058-.271l4.617-1.695a.164.164,0,1,1,.113.308l-4.375,1.606c1.085,1.076,6.392,6.417,6.8,8.355.634,3,.029,27.488,0,28.529a.164.164,0,0,1-.164.16" transform="translate(-36.44 -112.69)" fill="#304572"/>
            <path id="Trazado_779506" data-name="Trazado 779506" d="M48.138,192.33s4.019,1.623,4.812,1.515,3.655-.428,3.772-1.032l-1.077-1.844a3.762,3.762,0,0,0,2.685.109,5.86,5.86,0,0,0,2.651-2.556c.264-.864-.985-.69-.985-.69s1.413-.88-.382-1.633-9.554-1.87-12.785.156,1.309,5.975,1.309,5.975" transform="translate(-24.379 -98.866)" fill="#d8998b"/>
            <path id="Trazado_779507" data-name="Trazado 779507" d="M71.692,190.322a.158.158,0,0,1-.053-.009,9.554,9.554,0,0,0-3.875-.359.164.164,0,1,1-.046-.324,9.7,9.7,0,0,1,4.027.372.164.164,0,0,1-.053.319" transform="translate(-36.074 -101.192)"/>
            <path id="Trazado_779508" data-name="Trazado 779508" d="M44.416,245.025a.167.167,0,0,1-.09-.026.165.165,0,0,1-.074-.153c.01-.1.25-2.454,1.41-3.232a1.487,1.487,0,0,1,1.314-.169c.415.125.642.337.674.628.117,1.061-2.819,2.743-3.155,2.932a.163.163,0,0,1-.08.021m2.053-3.332a1.1,1.1,0,0,0-.623.193,4.345,4.345,0,0,0-1.222,2.666c1.182-.7,2.766-1.856,2.7-2.444-.016-.148-.165-.265-.443-.349a1.41,1.41,0,0,0-.413-.066" transform="translate(-23.623 -128.845)" fill="#304572"/>
            <path id="Trazado_779509" data-name="Trazado 779509" d="M67.846,187.136h20.7l5.912-13.372H74.574a1.253,1.253,0,0,0-1.146.746Z" transform="translate(-36.217 -92.758)" fill="#fff"/>
            <path id="Trazado_779510" data-name="Trazado 779510" d="M71.7,187.136H92.4L97.679,175.2a1.024,1.024,0,0,0-.937-1.438H77.615Z" transform="translate(-38.276 -92.758)" fill="#b2b2b2"/>
            <path id="Trazado_779511" data-name="Trazado 779511" d="M51.995,204.139H81.221a.844.844,0,1,0,0-1.689H51.995a.844.844,0,1,0,0,1.689" transform="translate(-27.305 -108.071)"/>
            <path id="Trazado_779512" data-name="Trazado 779512" d="M13.063,152.7s-11.575,12.6-9.693,20.8S28.1,176.348,28.1,176.348l-.249-9.587L15.976,164.9Z" transform="translate(-1.688 -81.515)" fill="#283f65"/>
            <path id="Trazado_779513" data-name="Trazado 779513" d="M20.4,178.2c-.758,0-1.367-.1-1.522-.381-.1-.187-.037-.407.193-.652,1.418-1.521,4.83.266,4.974.343a.164.164,0,0,1-.048.306,24.07,24.07,0,0,1-3.6.384m.316-1.317a1.85,1.85,0,0,0-1.405.507c-.136.146-.163.238-.144.273.187.344,2.262.227,4.259-.084a7.419,7.419,0,0,0-2.71-.7" transform="translate(-10.054 -94.249)" fill="#e29233"/>
            <path id="Trazado_779514" data-name="Trazado 779514" d="M27.381,207.091h-.325a.191.191,0,0,1,0-.382h.324A46.469,46.469,0,0,0,37.6,205.547a.191.191,0,0,1,.095.371,46.852,46.852,0,0,1-10.316,1.173" transform="translate(-14.342 -109.721)" fill="#e29233"/>
            <path id="Trazado_779515" data-name="Trazado 779515" d="M29.665,175.015a.164.164,0,0,1-.094-.3c1.05-.726.136-3.167.127-3.191a.164.164,0,0,1,.306-.117c.042.11,1.013,2.706-.246,3.578a.164.164,0,0,1-.093.029" transform="translate(-15.748 -91.444)" fill="#e29233"/>
            <path id="Trazado_779516" data-name="Trazado 779516" d="M3.4,208.536H68.362a1.52,1.52,0,1,0,0-3.04H3.4a1.52,1.52,0,1,0,0,3.04" transform="translate(-1.001 -109.697)" fill="#12171e"/>
            <path id="Trazado_779517" data-name="Trazado 779517" d="M59.039,288.773l-13.469-.706a.163.163,0,0,1-.155-.172.154.154,0,0,1,.172-.155l13.461.705a.164.164,0,0,1-.008.327" transform="translate(-24.243 -153.599)" fill="#304572"/>
            <path id="Trazado_779518" data-name="Trazado 779518" d="M95.47,288.07H83.457a.164.164,0,1,1,0-.328H95.47a.164.164,0,1,1,0,.328" transform="translate(-44.463 -153.602)" fill="#304572"/>
            <path id="Trazado_779519" data-name="Trazado 779519" d="M51.7,191.99h1.885a.444.444,0,0,0,.444-.444V181.267a.444.444,0,0,0-.444-.444H51.7a.444.444,0,0,0-.444.444v10.279a.444.444,0,0,0,.444.444" transform="translate(-27.363 -96.527)" fill="#304572"/>
            <path id="Trazado_779520" data-name="Trazado 779520" d="M95.888,186.093a1.758,1.758,0,1,0,1.758-1.758,1.758,1.758,0,0,0-1.758,1.758" transform="translate(-51.187 -98.401)" fill="#fff"/>
            <path id="Trazado_779521" data-name="Trazado 779521" d="M53.889,147.753s1.384,4.644.918,4.554a26.006,26.006,0,0,1-3.239-2.581s-2.02,2.565-2.682,2.582-.894-4.978-.894-4.978a3.885,3.885,0,0,0,3.134,1.914c2.45.351,2.763-1.49,2.763-1.49" transform="translate(-25.619 -78.647)" fill="#304572"/>
            <path id="Trazado_779522" data-name="Trazado 779522" d="M12.786,267.247a1.192,1.192,0,0,0,1.192-1.193V208.773H11.594v57.282a1.192,1.192,0,0,0,1.192,1.193" transform="translate(-6.189 -111.447)" fill="#12171e"/>
            <path id="Trazado_779523" data-name="Trazado 779523" d="M117.481,45.459H84.441a3.908,3.908,0,0,1-3.9-3.9V26.975a3.908,3.908,0,0,1,3.9-3.9h33.04a3.908,3.908,0,0,1,3.9,3.9V41.556a3.908,3.908,0,0,1-3.9,3.9M84.441,23.4a3.58,3.58,0,0,0-3.576,3.576V41.556a3.58,3.58,0,0,0,3.576,3.576h33.04a3.58,3.58,0,0,0,3.576-3.576V26.975a3.58,3.58,0,0,0-3.576-3.576Z" transform="translate(-42.992 -12.316)" fill="#373f51"/>
            <path id="Trazado_779524" data-name="Trazado 779524" d="M121.221,33.752H80.7a.164.164,0,1,1,0-.328h40.52a.164.164,0,1,1,0,.328" transform="translate(-42.992 -17.842)" fill="#373f51"/>
            <path id="Trazado_779525" data-name="Trazado 779525" d="M87.219,28.949a.164.164,0,0,1-.112-.283L89.1,26.8a.164.164,0,1,1,.224.239l-1.995,1.865a.162.162,0,0,1-.112.044" transform="translate(-46.472 -14.283)" fill="#373f51"/>
            <path id="Trazado_779526" data-name="Trazado 779526" d="M89.214,28.949a.162.162,0,0,1-.112-.044l-2-1.865a.164.164,0,1,1,.224-.239l1.995,1.865a.164.164,0,0,1,.008.232.166.166,0,0,1-.12.052" transform="translate(-46.472 -14.283)" fill="#373f51"/>
            <g id="Grupo_1032948" data-name="Grupo 1032948" transform="translate(157.103 29.805)" opacity="0.56" style="mix-blend-mode: screen;isolation: isolate">
              <g id="Grupo_1032947" data-name="Grupo 1032947">
                <g id="Grupo_1032946" data-name="Grupo 1032946" clip-path="url(#clip-path-3)">
                  <path id="Trazado_779527" data-name="Trazado 779527" d="M377.932,84.4a20.466,20.466,0,1,1-20.466-20.466A20.467,20.467,0,0,1,377.932,84.4" transform="translate(-336.999 -63.935)" fill="#e0dfe5"/>
                </g>
              </g>
            </g>
            <path id="Trazado_779528" data-name="Trazado 779528" d="M357.409,105.041a22.065,22.065,0,0,1-2.848-.185,21.654,21.654,0,1,1,2.848.185m-.067-41.123a19.388,19.388,0,1,0,15.394,7.559,19.3,19.3,0,0,0-15.394-7.559" transform="translate(-179.173 -32.877)" fill="#3d5da3"/>
            <path id="Trazado_779529" data-name="Trazado 779529" d="M323.488,144.947l-4.433,7.914a13.611,13.611,0,0,0,12.041-3.777c4.664-4.382-7.608-4.137-7.608-4.137" transform="translate(-170.317 -77.374)" fill="#d8998b"/>
            <path id="Trazado_779530" data-name="Trazado 779530" d="M237.72,95.747c-.164-.16-5.251,2.055-6.277,8.823s4.431,8,4.431,8l7.505-4.225-2.891-12.9Z" transform="translate(-123.48 -50.952)"/>
            <path id="Trazado_779531" data-name="Trazado 779531" d="M275.93,118.765a31.041,31.041,0,0,0,9.681,8.313c4.838,2.819,12.324,1.791,12.324,1.791l.639,10.16s-16.279,5.6-22.568-1.477c-8.108-9.129-.076-18.788-.076-18.788" transform="translate(-145.402 -63.399)" fill="#12263f"/>
            <path id="Trazado_779532" data-name="Trazado 779532" d="M270.441,291.023s3.222,4.521,3.348,5.4-2.338,2.478-2.338,2.478l5.937,7.39h-13.16l-.646-14.26Z" transform="translate(-140.705 -155.353)" fill="#3d5da3"/>
            <path id="Trazado_779533" data-name="Trazado 779533" d="M250.6,82.185s-5.021-2.323-7.27,1.8c-2.183,4,1.049,7.72,1.049,7.72l5.546-5.771Z" transform="translate(-129.489 -43.524)"/>
            <rect id="Rectángulo_366084" data-name="Rectángulo 366084" width="11.412" height="9.923" transform="matrix(0.023, -1, 1, 0.023, 115.415, 149.057)" fill="#d8998b"/>
            <path id="Trazado_779534" data-name="Trazado 779534" d="M242,175.727s-1.822,6.484-1.927,19.219c-.09,11-2.12,35.393-1.293,36.551s17.7.5,18.358.165.827-7.939.827-7.939,11.247-18.854,12.735-22-8.27-30.535-8.27-30.535Z" transform="translate(-127.361 -91.385)" fill="#bed2af"/>
            <path id="Trazado_779535" data-name="Trazado 779535" d="M243.928,114.318s-7.939,2.9-8.931,7.331,5.954,22.146,7.774,22.757,16.373-2.6,17.7-3.666-.166-12.066-.5-13.593-1.654-7.637-3.473-10.233-3.308-2.768-5.127-2.768-7.443.172-7.443.172" transform="translate(-125.394 -60.933)" fill="#12263f"/>
            <path id="Trazado_779536" data-name="Trazado 779536" d="M248.913,113.075a4.629,4.629,0,0,0-1.954,1.189c-.51.782.443,2.842,3.156,4.444a15.18,15.18,0,0,0,3.654,1.584,15.16,15.16,0,0,0,2.056-3.837c.331-1.451-.883-3.353-.883-3.353Z" transform="translate(-131.761 -60.361)" fill="#e29233"/>
            <path id="Trazado_779537" data-name="Trazado 779537" d="M250.991,107.634l.423,4.322s.9,1.166,3.449,1.124a4.5,4.5,0,0,0,2.518-.521L256.9,110.4l-.468-2.109-4.663-.558Z" transform="translate(-133.983 -57.457)" fill="#d8998b"/>
            <path id="Trazado_779538" data-name="Trazado 779538" d="M252.67,107.837a1.426,1.426,0,0,0,.166.4c1.178,2.064,3.867,2.271,4.964,2.262l-.468-2.109Z" transform="translate(-134.88 -57.565)"/>
            <path id="Trazado_779539" data-name="Trazado 779539" d="M252.634,86.136s2.8,5.2,2.2,8.294-3.4,2.848-5.1,2.4a5.484,5.484,0,0,1-2.548-1.4,2.479,2.479,0,0,1-2.448-4.2,2.429,2.429,0,0,1,1.949.1l-.949-1.5s2.8-8.244,6.895-3.7" transform="translate(-130.181 -45.25)" fill="#d8998b"/>
            <path id="Trazado_779540" data-name="Trazado 779540" d="M247.447,319.465A1.436,1.436,0,0,1,246.115,318c-.009-3.1.032-10.287.606-10.289.732,0,7.637,2.185,7.637,2.185s.2-4.3,3.232-3.537c2.328.586,5.031,3.314,6.162,4.551a2.634,2.634,0,0,0,1.319.789c2.169.528,8.135,2.268,8.229,5.424.115,3.859-1.455,3.422-2.187,3.424-.628,0-18.591-.845-23.666-1.085" transform="translate(-131.38 -163.493)" fill="#304572"/>
            <path id="Trazado_779541" data-name="Trazado 779541" d="M248.236,90.31a3.949,3.949,0,0,0,3.777-2.4c1.424-2.7,1.2-3.747,1.2-3.747l1.8,2.548a4.919,4.919,0,0,0-.6-3c-.824-1.124-1.574-.825-1.574-.825l-5.021,1.649-1.049,4.2Z" transform="translate(-131.729 -44.229)"/>
            <path id="Trazado_779542" data-name="Trazado 779542" d="M280.691,231.647a.164.164,0,0,1-.164-.164l.123-38.429a.166.166,0,0,1,.048-.115l3.774-3.787a.164.164,0,1,1,.232.231l-3.727,3.739-.124,38.361a.163.163,0,0,1-.164.164" transform="translate(-149.75 -100.947)" fill="#fff"/>
            <path id="Trazado_779543" data-name="Trazado 779543" d="M247.448,196.949a.164.164,0,0,1-.022-.326,5.12,5.12,0,0,0,3.571-1.9,5.863,5.863,0,0,0,.94-3.947.165.165,0,0,1,.137-.187.167.167,0,0,1,.187.137,6.092,6.092,0,0,1-1,4.191,5.431,5.431,0,0,1-3.79,2.029l-.023,0" transform="translate(-132.004 -101.74)" fill="#fff"/>
            <path id="Trazado_779544" data-name="Trazado 779544" d="M263.435,90.964l-.028,0-.724-.125a.164.164,0,0,1,.056-.323l.724.125a.164.164,0,0,1-.028.325" transform="translate(-140.153 -48.316)"/>
            <path id="Trazado_779545" data-name="Trazado 779545" d="M257.516,91.27a.164.164,0,0,1-.038-.323l1.225-.3a.164.164,0,0,1,.077.318l-1.225.3a.154.154,0,0,1-.039,0" transform="translate(-137.379 -48.388)"/>
            <path id="Trazado_779546" data-name="Trazado 779546" d="M258.324,96.023a.164.164,0,0,1-.161-.136l-.151-.878a.162.162,0,0,1,.067-.162l.613-.43a.164.164,0,0,1,.188.268l-.528.371.134.775a.164.164,0,0,1-.133.19l-.028,0" transform="translate(-137.729 -50.386)"/>
            <path id="Trazado_779547" data-name="Trazado 779547" d="M264.662,94.622a.164.164,0,0,1-.161-.136l-.152-.877a.162.162,0,0,1,.067-.162l.612-.43a.164.164,0,1,1,.188.268l-.527.37.134.775a.164.164,0,0,1-.134.19l-.028,0" transform="translate(-141.113 -49.638)"/>
            <path id="Trazado_779548" data-name="Trazado 779548" d="M263.074,98.525a.161.161,0,0,1-.051-.008.163.163,0,0,1-.1-.207,3.416,3.416,0,0,0-.35-2.277.164.164,0,0,1,.287-.157,3.679,3.679,0,0,1,.374,2.536.164.164,0,0,1-.156.113" transform="translate(-140.153 -51.135)"/>
            <path id="Trazado_779549" data-name="Trazado 779549" d="M260.419,105.057c-.763,0-1.075-.869-1.088-.906a.164.164,0,0,1,.155-.218h1.865a.164.164,0,0,1,.155.218c-.013.037-.324.906-1.087.906m-.672-.8a.716.716,0,0,0,1.344,0Z" transform="translate(-138.431 -55.481)"/>
            <path id="Trazado_779550" data-name="Trazado 779550" d="M247.914,102.138a.16.16,0,0,1-.1-.032l-1.949-1.444a.164.164,0,0,1,.195-.263l1.949,1.443a.164.164,0,0,1-.1.3" transform="translate(-131.213 -53.578)"/>
            <path id="Trazado_779551" data-name="Trazado 779551" d="M245.966,103.444a.164.164,0,0,1-.08-.307l1.281-.713a.164.164,0,1,1,.159.286l-1.282.713a.158.158,0,0,1-.079.021" transform="translate(-131.213 -54.665)"/>
            <path id="Trazado_779552" data-name="Trazado 779552" d="M249.765,113.255s2.369,2.15,4.078,2.166a1.522,1.522,0,0,0,1.659-1.572l.683,2.4-2.114,2.142L250.3,116.87l-2.119-2.371Z" transform="translate(-132.482 -60.458)" fill="#e29233"/>
            <path id="Trazado_779553" data-name="Trazado 779553" d="M256.41,124.324a9.783,9.783,0,0,0-1.54,4.5,12.5,12.5,0,0,0,1.335,5.835s2.557-2.9,2.9-5.089a13.128,13.128,0,0,0-.833-5.3,25.1,25.1,0,0,1,1.446,4.251c.286,1.613.682,3.688.682,3.688a7.9,7.9,0,0,0,1.459-4.5c-.093-2.442-2.716-4.046-2.716-4.046Z" transform="translate(-136.039 -66.014)" fill="#e29233"/>
            <path id="Trazado_779554" data-name="Trazado 779554" d="M257.436,122.751a1.692,1.692,0,0,1-.461-.053c-.784-.227-.911-2.057-.758-2.8a.164.164,0,0,1,.321.066c-.158.767.048,2.281.528,2.42a4.856,4.856,0,0,0,1.837-.181c-.2-.513-.672-1.914-.286-2.547a.671.671,0,0,1,.543-.323.563.563,0,0,1,.541.223c.471.652-.333,2.6-.427,2.822a.16.16,0,0,1-.074.081.2.2,0,0,1-.033.013,7.851,7.851,0,0,1-1.732.279m1.794-3.094-.042,0a.344.344,0,0,0-.29.167c-.247.406.01,1.4.23,2.032.282-.771.54-1.79.309-2.11a.227.227,0,0,0-.206-.091" transform="translate(-136.743 -63.7)" fill="#304572"/>
            <path id="Trazado_779555" data-name="Trazado 779555" d="M258.421,130.119a.5.5,0,0,1-.428-.22c-.511-.733.415-3.338.522-3.632a.165.165,0,0,1,.164-.108.163.163,0,0,1,.15.128c.066.292.627,2.879.036,3.615a.555.555,0,0,1-.444.217m.206-3.16c-.328,1.043-.625,2.38-.365,2.753a.173.173,0,0,0,.157.079.225.225,0,0,0,.19-.1c.332-.413.18-1.806.018-2.737" transform="translate(-137.64 -67.346)" fill="#304572"/>
            <path id="Trazado_779556" data-name="Trazado 779556" d="M280.112,139.118a.164.164,0,0,1-.16-.129l-.783-3.594a.161.161,0,0,1,.012-.106,9.214,9.214,0,0,0,.75-4.134,12.028,12.028,0,0,0-2.068-4.928.164.164,0,0,1,.267-.191,12.123,12.123,0,0,1,2.128,5.1,9.413,9.413,0,0,1-.757,4.246l.772,3.541a.164.164,0,0,1-.125.195.149.149,0,0,1-.035,0" transform="translate(-148.312 -67.243)" fill="#e29233"/>
            <path id="Trazado_779557" data-name="Trazado 779557" d="M286.611,157.01l-10.227,3.156s8.314,10.461,11.81,4.92-1.583-8.076-1.583-8.076" transform="translate(-147.539 -83.815)" fill="#d8998b"/>
            <path id="Trazado_779558" data-name="Trazado 779558" d="M299.682,159.255s5.662-.006,5.377,1.519-3.588.8-3.588.8Z" transform="translate(-159.976 -85.013)" fill="#d8998b"/>
            <path id="Trazado_779559" data-name="Trazado 779559" d="M337.043,135.708s-1.563-5.442-.019-5.588,1.755,3.23,1.755,3.23Z" transform="translate(-179.546 -69.458)" fill="#d8998b"/>
            <path id="Trazado_779560" data-name="Trazado 779560" d="M288.231,155.881l-.341-.443a1.015,1.015,0,0,1,.186-1.424l26.161-20.136a1.015,1.015,0,0,1,1.424.185l.341.443a1.016,1.016,0,0,1-.186,1.424l-26.161,20.137a1.016,1.016,0,0,1-1.424-.186" transform="translate(-153.568 -71.354)" fill="#3d5da3"/>
            <path id="Trazado_779561" data-name="Trazado 779561" d="M287.484,154.91l-.342-.443a1.016,1.016,0,0,1,.186-1.424l26.161-20.136a1.015,1.015,0,0,1,1.424.185l.342.443a1.015,1.015,0,0,1-.186,1.424L288.907,155.1a1.015,1.015,0,0,1-1.423-.186" transform="translate(-153.169 -70.835)" fill="#373f51"/>
            <path id="Trazado_779562" data-name="Trazado 779562" d="M356.062,105.041a22.064,22.064,0,0,1-2.848-.185,21.654,21.654,0,1,1,2.848.185M356,63.918a19.388,19.388,0,1,0,15.394,7.559A19.3,19.3,0,0,0,356,63.918" transform="translate(-178.454 -32.877)" fill="#373f51"/>
            <path id="Trazado_779563" data-name="Trazado 779563" d="M344.266,86.873a.162.162,0,0,1-.119-.052.164.164,0,0,1,.007-.232l15.309-14.368a.164.164,0,0,1,.224.239L344.379,86.829a.166.166,0,0,1-.112.044" transform="translate(-183.688 -38.53)" fill="#fff"/>
            <path id="Trazado_779564" data-name="Trazado 779564" d="M327.375,138.594a2.913,2.913,0,0,0,.26,1.36c.628,1.454,3.109,5.217,4.75,4.881,1.572-.322.259-2.455.259-2.455s1.4,1.507,2.1.2a1.994,1.994,0,0,0-.275-2.106s1.838,2.575,2.12.666-2.837-6.711-4.233-7.522-1.544,1.589-1.544,1.589-1.62-.676-2.128.139c-.537.863.415,1.912.415,1.912a1.379,1.379,0,0,0-1.727,1.337" transform="translate(-174.755 -71.238)" fill="#d8998b"/>
            <path id="Trazado_779565" data-name="Trazado 779565" d="M334.861,147.144a.164.164,0,0,1-.137-.073l-3.176-4.75a.164.164,0,1,1,.272-.182L335,146.889a.163.163,0,0,1-.136.255" transform="translate(-176.971 -75.838)"/>
            <path id="Trazado_779566" data-name="Trazado 779566" d="M338.7,143.081a.163.163,0,0,1-.135-.071l-3.246-4.727a.164.164,0,0,1,.27-.185l3.246,4.727a.164.164,0,0,1-.042.227.161.161,0,0,1-.092.029" transform="translate(-178.985 -73.681)"/>
            <path id="Trazado_779567" data-name="Trazado 779567" d="M297.664,163.8a2.89,2.89,0,0,0-.247-1.351c-.612-1.452-3.047-5.23-4.683-4.936-1.568.281-.28,2.42-.28,2.42s-1.382-1.523-2.09-.248a1.975,1.975,0,0,0,.254,2.088s-1.587-1.449-1.885.431,2.543,5.561,3.925,6.4,1.551-1.534,1.551-1.534,1.606.707,2.119-.087c.543-.84-.4-1.9-.4-1.9a1.353,1.353,0,0,0,1.731-1.28" transform="translate(-154.119 -84.075)" fill="#d8998b"/>
            <path id="Trazado_779568" data-name="Trazado 779568" d="M299.787,167.291a.164.164,0,0,1-.138-.075l-3.1-4.8a.164.164,0,0,1,.276-.178l3.1,4.8a.164.164,0,0,1-.138.253" transform="translate(-158.291 -86.565)"/>
            <path id="Trazado_779569" data-name="Trazado 779569" d="M295.869,171.292a.165.165,0,0,1-.137-.073l-3.167-4.78a.164.164,0,1,1,.273-.181l3.167,4.78a.164.164,0,0,1-.046.227.16.16,0,0,1-.09.028" transform="translate(-156.162 -88.712)"/>
            <path id="Trazado_779570" data-name="Trazado 779570" d="M231.063,126.5s-8.351,9.672-3.424,20.222c4.387,9.393,14.724,9.648,20.017,7.995a20.082,20.082,0,0,0,7.87-4.271l-1.487-8.762s-9.635-.04-14.927-.536-8.049-14.647-8.049-14.647" transform="translate(-120.688 -67.527)" fill="#12263f"/>
            <path id="Trazado_779571" data-name="Trazado 779571" d="M245.336,157.469c-.684,0-1.212-.09-1.344-.345-.15-.293.163-.59.265-.688,1.671-1.587,4.979.167,5.119.243a.164.164,0,0,1-.047.3,25.1,25.1,0,0,1-3.994.485m.793-1.363a2.315,2.315,0,0,0-1.645.568c-.2.185-.21.279-.2.3.168.325,2.365.153,4.487-.221a7.124,7.124,0,0,0-2.642-.648" transform="translate(-130.226 -83.155)" fill="#e29233"/>
            <path id="Trazado_779572" data-name="Trazado 779572" d="M259.417,158.2l-4.46-.311a.164.164,0,0,1-.152-.175.167.167,0,0,1,.175-.152l4.449.31a.164.164,0,0,1-.011.327" transform="translate(-136.019 -84.112)" fill="#e29233"/>
            <path id="Trazado_779573" data-name="Trazado 779573" d="M643.053,26.6H583.131a.164.164,0,1,1,0-.328h59.922a.164.164,0,1,1,0,.328" transform="translate(-311.198 -14.024)" fill="#fff"/>
            <path id="Trazado_779574" data-name="Trazado 779574" d="M704.262,22.919a.164.164,0,0,1-.106-.289l1.553-1.321a.164.164,0,1,1,.213.25l-1.553,1.321a.163.163,0,0,1-.106.039" transform="translate(-375.86 -11.354)" fill="#fff"/>
            <path id="Trazado_779575" data-name="Trazado 779575" d="M705.815,22.919a.162.162,0,0,1-.106-.039l-1.553-1.321a.164.164,0,0,1,.212-.25l1.553,1.321a.164.164,0,0,1-.106.289" transform="translate(-375.86 -11.354)" fill="#fff"/>
            <path id="Trazado_779576" data-name="Trazado 779576" d="M710.159,22.532H683.218a3.217,3.217,0,0,1-3.213-3.213V7.43a3.217,3.217,0,0,1,3.213-3.213h26.941a3.217,3.217,0,0,1,3.213,3.213v11.89a3.217,3.217,0,0,1-3.213,3.213M683.218,4.545a2.889,2.889,0,0,0-2.886,2.885v11.89a2.889,2.889,0,0,0,2.886,2.885h26.941a2.888,2.888,0,0,0,2.885-2.885V7.43a2.888,2.888,0,0,0-2.885-2.885Z" transform="translate(-362.999 -2.251)" fill="#304572"/>
            <path id="Trazado_779577" data-name="Trazado 779577" d="M713.209,12.986h-33.04a.164.164,0,0,1,0-.328h33.04a.164.164,0,1,1,0,.328" transform="translate(-362.999 -6.757)" fill="#304572"/>
            <path id="Trazado_779578" data-name="Trazado 779578" d="M733.01,7.756a.673.673,0,1,1-.673-.673.673.673,0,0,1,.673.673" transform="translate(-390.575 -3.781)" fill="#304572"/>
            <path id="Trazado_779579" data-name="Trazado 779579" d="M738.5,7.756a.673.673,0,1,1-.673-.673.673.673,0,0,1,.673.673" transform="translate(-393.508 -3.781)" fill="#304572"/>
            <path id="Trazado_779580" data-name="Trazado 779580" d="M744.241,7.756a.673.673,0,1,1-.673-.673.673.673,0,0,1,.673.673" transform="translate(-396.57 -3.781)" fill="#304572"/>
          </g>
        </g>
      </g>
    </g>
    <g id="Grupo_1102688" data-name="Grupo 1102688" transform="translate(1003.831 7580.985)">
      <g id="Grupo_1101659" data-name="Grupo 1101659" clip-path="url(#clip-path-4)">
        <g id="Grupo_1101658" data-name="Grupo 1101658" transform="translate(0 0)">
          <g id="Grupo_1101657" data-name="Grupo 1101657" clip-path="url(#clip-path-5)">
            <g id="Grupo_1101650" data-name="Grupo 1101650" transform="translate(42.318 25.682)" opacity="0.09" style="mix-blend-mode: multiply;isolation: isolate">
              <g id="Grupo_1101649" data-name="Grupo 1101649">
                <g id="Grupo_1101648" data-name="Grupo 1101648" clip-path="url(#clip-path-6)">
                  <path id="Trazado_874456" data-name="Trazado 874456" d="M126.68,42.85A18.032,18.032,0,0,0,98.951,60.043c-4.962.874-20.555,3.857-31.759,8.619a2.252,2.252,0,0,0-1.34,2.471c.1.576.237,1.245.405,1.926a2.239,2.239,0,0,0,2.685,1.634,236.715,236.715,0,0,0,31.263-9.821A18.031,18.031,0,1,0,126.68,42.85" transform="translate(-65.817 -39.942)" fill="#17014e"/>
                </g>
              </g>
            </g>
            <path id="Trazado_874457" data-name="Trazado 874457" d="M97.622,64.745S78.044,69.351,65.014,76.059a2.252,2.252,0,0,0-1.155,2.563c.145.568.328,1.224.545,1.891a2.238,2.238,0,0,0,2.8,1.433,236.859,236.859,0,0,0,31.933-12.8Z" transform="translate(-22.774 -23.116)" fill="#7f7aff"/>
            <path id="Trazado_874458" data-name="Trazado 874458" d="M85.106,80.369c2.16-.811,4.528-1.735,7.059-2.776a40.887,40.887,0,0,0-1.771-6.63c-2.309.739-4.749,1.569-7.2,2.475a36.1,36.1,0,0,0,1.914,6.931" transform="translate(-29.702 -25.336)" fill="#3a257a"/>
            <path id="Trazado_874459" data-name="Trazado 874459" d="M147.311,58.761a18.032,18.032,0,1,0-24.484,7.127,18.032,18.032,0,0,0,24.484-7.127" transform="translate(-40.512 -11.442)" fill="#ffce79"/>
            <path id="Trazado_874460" data-name="Trazado 874460" d="M146.058,59.05a14.132,14.132,0,1,0-19.189,5.585,14.132,14.132,0,0,0,19.189-5.585" transform="translate(-42.678 -13.607)" fill="#d6ceff"/>
            <path id="Trazado_874461" data-name="Trazado 874461" d="M113.671,63.418a18.135,18.135,0,0,0,2.3,6.9" transform="translate(-40.584 -22.642)" fill="none" stroke="#17014e" stroke-linecap="round" stroke-linejoin="round" stroke-width="1"/>
            <path id="Trazado_874462" data-name="Trazado 874462" d="M148.065,59.05a14.131,14.131,0,0,0-22.907-16.236v.744H127.4V45.8h2.238v2.238h2.238v2.238h2.237v2.238h2.238v2.238h-2.238v2.237h-2.237V59.22h-2.238v2.238H127.4V63.7a14.315,14.315,0,0,0,1.481.941,14.132,14.132,0,0,0,19.189-5.585" transform="translate(-44.685 -13.608)" fill="#7f7aff"/>
            <g id="Grupo_1101653" data-name="Grupo 1101653" transform="translate(80.481 26.679)" style="mix-blend-mode: soft-light;isolation: isolate">
              <g id="Grupo_1101652" data-name="Grupo 1101652">
                <g id="Grupo_1101651" data-name="Grupo 1101651" clip-path="url(#clip-path-7)">
                  <path id="Trazado_874463" data-name="Trazado 874463" d="M131.456,41.7c-3.586.946-6.667,4.55-6.248,7.045s2.851,2.348,3.9.5.838-3.291,3.124-4.172,3.354-4.466-.776-3.376" transform="translate(-125.17 -41.492)" fill="#fff"/>
                </g>
              </g>
            </g>
            <circle id="Elipse_11512" data-name="Elipse 11512" cx="1.394" cy="1.394" r="1.394" transform="translate(95.272 38.533)" fill="none" stroke="#17014e" stroke-linecap="round" stroke-linejoin="round" stroke-width="1"/>
            <path id="Trazado_874464" data-name="Trazado 874464" d="M135.634,46.44c2.15-8.761-4.008-27.861-26.487-23.71" transform="translate(-38.969 -7.907)" fill="none" stroke="#17014e" stroke-linecap="round" stroke-linejoin="round" stroke-width="1"/>
            <g id="Grupo_1101656" data-name="Grupo 1101656" transform="translate(2.689 1.745)" opacity="0.09" style="mix-blend-mode: multiply;isolation: isolate">
              <g id="Grupo_1101655" data-name="Grupo 1101655">
                <g id="Grupo_1101654" data-name="Grupo 1101654" clip-path="url(#clip-path-8)">
                  <path id="Trazado_874465" data-name="Trazado 874465" d="M68.6,33.74A530.615,530.615,0,0,1,10.6,31.476a6.761,6.761,0,0,1-6.133-6.23A133.246,133.246,0,0,1,4.386,9.1a6.748,6.748,0,0,1,6.9-6.381c18.818.418,37.732.858,57.589,1.512a6.737,6.737,0,0,1,6.506,6.039,83.883,83.883,0,0,1-.153,17.511A6.755,6.755,0,0,1,68.6,33.74" transform="translate(-4.182 -2.714)" fill="#17014e"/>
                </g>
              </g>
            </g>
            <path id="Trazado_874466" data-name="Trazado 874466" d="M65.229,29.5a530.688,530.688,0,0,1-58.037.267,6.76,6.76,0,0,1-6.4-5.956A133.435,133.435,0,0,1,0,7.677,6.749,6.749,0,0,1,6.619,1C25.436.6,44.351.214,64.219,0A6.737,6.737,0,0,1,70.981,5.75a83.856,83.856,0,0,1,.611,17.5A6.754,6.754,0,0,1,65.229,29.5" transform="translate(0 0)" fill="#fff"/>
            <path id="Trazado_874467" data-name="Trazado 874467" d="M4.912,41.145A6.809,6.809,0,0,0,8.945,42.73a530.686,530.686,0,0,0,58.037-.267,6.755,6.755,0,0,0,6.352-6.147,9.11,9.11,0,0,1-5,3.687,24.9,24.9,0,0,1-7.86.754c-18.57-.2-37.139-.385-55.561.388" transform="translate(-1.754 -12.966)" fill="#7f7aff"/>
            <path id="Trazado_874468" data-name="Trazado 874468" d="M62.075,43.125c-17.6-.188-35.2-.365-52.679.275" transform="translate(-3.355 -15.335)" fill="none" stroke="#17014e" stroke-linecap="round" stroke-linejoin="round" stroke-width="1"/>
            <path id="Trazado_874469" data-name="Trazado 874469" d="M105.215,38.9a9.926,9.926,0,0,1-3.6,2.025,15.956,15.956,0,0,1-3.483.658" transform="translate(-35.037 -13.889)" fill="none" stroke="#17014e" stroke-linecap="round" stroke-linejoin="round" stroke-width="1"/>
            <path id="Trazado_874470" data-name="Trazado 874470" d="M31.224,11.138H12.268a1.51,1.51,0,0,1,0-3.019H31.224a1.51,1.51,0,1,1,0,3.019" transform="translate(-3.841 -2.898)" fill="#ffce79"/>
            <path id="Trazado_874471" data-name="Trazado 874471" d="M71.532,11.138H67.674a1.51,1.51,0,0,1,0-3.019h3.858a1.51,1.51,0,0,1,0,3.019" transform="translate(-23.622 -2.898)" fill="#ffce79"/>
            <path id="Trazado_874472" data-name="Trazado 874472" d="M96.315,11.138H92.457a1.51,1.51,0,1,1,0-3.019h3.858a1.51,1.51,0,0,1,0,3.019" transform="translate(-32.471 -2.898)" fill="#ffce79"/>
            <line id="Línea_3829" data-name="Línea 3829" x2="30.582" transform="translate(6.917 14.397)" fill="none" stroke="#17014e" stroke-linecap="round" stroke-linejoin="round" stroke-width="1"/>
            <line id="Línea_3830" data-name="Línea 3830" x2="17.407" transform="translate(6.917 18.926)" fill="none" stroke="#17014e" stroke-linecap="round" stroke-linejoin="round" stroke-width="1"/>
            <line id="Línea_3831" data-name="Línea 3831" x2="3.648" transform="translate(52.263 16.63)" fill="none" stroke="#17014e" stroke-linecap="round" stroke-linejoin="round" stroke-width="1"/>
            <path id="Trazado_874473" data-name="Trazado 874473" d="M84.626,23.739l1.5,1.366-1.5,1.527" transform="translate(-30.214 -8.475)" fill="none" stroke="#17014e" stroke-linecap="round" stroke-linejoin="round" stroke-width="1"/>
            <path id="Trazado_874474" data-name="Trazado 874474" d="M73.026,21.329H70.42v2.607H67.813v2.607H66.164v.5A1.755,1.755,0,0,0,67.919,28.8h3.368a1.755,1.755,0,0,0,1.755-1.755V21.364c0-.051-.01-.1-.015-.149Z" transform="translate(-23.622 -7.574)" fill="#7f7aff"/>
            <rect id="Rectángulo_402525" data-name="Rectángulo 402525" width="6.877" height="9.191" rx="2.729" transform="translate(42.542 12.035)" fill="none" stroke="#17014e" stroke-linecap="round" stroke-linejoin="round" stroke-width="1"/>
            <path id="Trazado_874475" data-name="Trazado 874475" d="M97.824,21.121a1.748,1.748,0,0,0-.107-.584H96.18v1.94H94.24v1.94H92.3v1.94H90.947V26.8A1.755,1.755,0,0,0,92.7,28.557h3.368A1.755,1.755,0,0,0,97.824,26.8Z" transform="translate(-32.471 -7.332)" fill="#7f7aff"/>
            <rect id="Rectángulo_402526" data-name="Rectángulo 402526" width="6.877" height="9.191" rx="2.729" transform="translate(58.476 12.035)" fill="none" stroke="#17014e" stroke-linecap="round" stroke-linejoin="round" stroke-width="1"/>
          </g>
        </g>
      </g>
    </g>
    <g id="Grupo_1115051" data-name="Grupo 1115051" transform="translate(944.803 4695.757)">
      <g id="Grupo_1114294" data-name="Grupo 1114294" transform="translate(226.539 2894.037)" opacity="0.51">
        <g id="Grupo_1114042" data-name="Grupo 1114042" transform="translate(0 0)" clip-path="url(#clip-path-9)">
          <path id="Trazado_911486" data-name="Trazado 911486" d="M7.063,62.651h-5.8A1.261,1.261,0,0,1,0,61.39V24.114a1.261,1.261,0,0,1,1.261-1.261h5.8a1.261,1.261,0,0,1,1.261,1.261V61.39a1.261,1.261,0,0,1-1.261,1.261" transform="translate(0 -10.033)" fill="#e2e2e2"/>
          <path id="Trazado_911487" data-name="Trazado 911487" d="M35.673,67.063h-5.8A1.261,1.261,0,0,1,28.61,65.8V34.165A1.261,1.261,0,0,1,29.871,32.9h5.8a1.261,1.261,0,0,1,1.261,1.261V65.8a1.261,1.261,0,0,1-1.261,1.261" transform="translate(-12.561 -14.446)" fill="#e2e2e2"/>
          <path id="Trazado_911488" data-name="Trazado 911488" d="M64.283,58.339h-5.8a1.261,1.261,0,0,1-1.261-1.261V14.292a1.261,1.261,0,0,1,1.261-1.261h5.8a1.261,1.261,0,0,1,1.261,1.261V57.078a1.261,1.261,0,0,1-1.261,1.261" transform="translate(-25.121 -5.721)" fill="#e2e2e2"/>
          <path id="Trazado_911489" data-name="Trazado 911489" d="M92.893,52.618h-5.8a1.261,1.261,0,0,1-1.261-1.261V1.261A1.261,1.261,0,0,1,87.091,0h5.8a1.261,1.261,0,0,1,1.261,1.261v50.1a1.261,1.261,0,0,1-1.261,1.261" transform="translate(-37.682 0)" fill="#e2e2e2"/>
          <path id="Trazado_911490" data-name="Trazado 911490" d="M121.5,70.3h-5.8a1.261,1.261,0,0,1-1.261-1.261V41.527a1.261,1.261,0,0,1,1.261-1.261h5.8a1.261,1.261,0,0,1,1.261,1.261V69.034A1.261,1.261,0,0,1,121.5,70.3" transform="translate(-50.242 -17.678)" fill="#e2e2e2"/>
          <path id="Trazado_911491" data-name="Trazado 911491" d="M150.113,62.651h-5.8a1.261,1.261,0,0,1-1.261-1.261V24.114a1.261,1.261,0,0,1,1.261-1.261h5.8a1.261,1.261,0,0,1,1.261,1.261V61.39a1.261,1.261,0,0,1-1.261,1.261" transform="translate(-62.803 -10.033)" fill="#e2e2e2"/>
        </g>
      </g>
      <g id="Grupo_1114295" data-name="Grupo 1114295" transform="translate(246.525 2885.229)">
        <g id="Grupo_1114060" data-name="Grupo 1114060" clip-path="url(#clip-path-10)">
          <g id="Grupo_1114045" data-name="Grupo 1114045" transform="translate(0.28 0.28)">
            <g id="Grupo_1114044" data-name="Grupo 1114044" clip-path="url(#clip-path-11)">
              <rect id="Rectángulo_406250" data-name="Rectángulo 406250" width="75.345" height="75.345" transform="matrix(0.571, -0.821, 0.821, 0.571, -25.366, 36.512)" fill="#efc556"/>
            </g>
          </g>
          <g id="Grupo_1114047" data-name="Grupo 1114047" transform="translate(0 0)">
            <g id="Grupo_1114046" data-name="Grupo 1114046" clip-path="url(#clip-path-10)">
              <path id="Trazado_911493" data-name="Trazado 911493" d="M.5,27.567h0A27.067,27.067,0,1,0,27.567.5,27.067,27.067,0,0,0,.5,27.567h0A27.067,27.067,0,1,1,27.567,54.634,27.067,27.067,0,0,1,.5,27.567Z" transform="translate(-0.22 -0.22)" fill="url(#linear-gradient)"/>
            </g>
          </g>
          <g id="Grupo_1114049" data-name="Grupo 1114049" transform="translate(7.442 7.441)">
            <g id="Grupo_1114048" data-name="Grupo 1114048" clip-path="url(#clip-path-13)">
              <rect id="Rectángulo_406252" data-name="Rectángulo 406252" width="39.812" height="39.812" transform="translate(0 0)" fill="url(#radial-gradient)"/>
            </g>
          </g>
          <g id="Grupo_1114051" data-name="Grupo 1114051" transform="translate(14.603 14.603)">
            <g id="Grupo_1114050" data-name="Grupo 1114050" clip-path="url(#clip-path-14)">
              <rect id="Rectángulo_406253" data-name="Rectángulo 406253" width="34.77" height="34.77" transform="translate(-10.97 19.232) rotate(-60.299)" fill="#5c8e2e"/>
            </g>
          </g>
          <g id="Grupo_1114053" data-name="Grupo 1114053" transform="translate(21.765 21.765)">
            <g id="Grupo_1114052" data-name="Grupo 1114052" clip-path="url(#clip-path-15)">
              <rect id="Rectángulo_406254" data-name="Rectángulo 406254" width="11.166" height="11.166" transform="translate(0 0)" fill="url(#radial-gradient-2)"/>
            </g>
          </g>
          <g id="Grupo_1114055" data-name="Grupo 1114055" transform="translate(0 0)">
            <g id="Grupo_1114054" data-name="Grupo 1114054" clip-path="url(#clip-path-10)">
              <path id="Trazado_911497" data-name="Trazado 911497" d="M48.391,34.161,80.315,15.817a.28.28,0,1,1,.279.486L48.67,34.647a.28.28,0,0,1-.279-.486" transform="translate(-21.183 -6.928)" fill="#12263f"/>
            </g>
          </g>
          <g id="Grupo_1114057" data-name="Grupo 1114057" transform="translate(55.166 1.748)">
            <g id="Grupo_1114056" data-name="Grupo 1114056" clip-path="url(#clip-path-17)">
              <rect id="Rectángulo_406256" data-name="Rectángulo 406256" width="16.747" height="15.952" transform="translate(-4.715 2.729) rotate(-30.065)" fill="#12263f"/>
            </g>
          </g>
        </g>
      </g>
    </g>
  </g>
</svg>
