<svg xmlns="http://www.w3.org/2000/svg" xmlns:xlink="http://www.w3.org/1999/xlink" width="680.505" height="636.391" viewBox="0 0 680.505 636.391">
  <defs>
    <filter id="Elipse_4871" x="483.026" y="145.671" width="155.384" height="155.384" filterUnits="userSpaceOnUse">
      <feOffset dy="3" input="SourceAlpha"/>
      <feGaussianBlur stdDeviation="3" result="blur"/>
      <feFlood flood-opacity="0.161"/>
      <feComposite operator="in" in2="blur"/>
      <feComposite in="SourceGraphic"/>
    </filter>
    <filter id="Elipse_4872" x="510.208" y="420.447" width="155.384" height="155.384" filterUnits="userSpaceOnUse">
      <feOffset dy="3" input="SourceAlpha"/>
      <feGaussianBlur stdDeviation="3" result="blur-2"/>
      <feFlood flood-opacity="0.161"/>
      <feComposite operator="in" in2="blur-2"/>
      <feComposite in="SourceGraphic"/>
    </filter>
    <filter id="Elipse_4873" x="42.095" y="444.156" width="155.384" height="155.384" filterUnits="userSpaceOnUse">
      <feOffset dy="3" input="SourceAlpha"/>
      <feGaussianBlur stdDeviation="3" result="blur-3"/>
      <feFlood flood-opacity="0.161"/>
      <feComposite operator="in" in2="blur-3"/>
      <feComposite in="SourceGraphic"/>
    </filter>
    <filter id="Elipse_4874" x="14.912" y="158.134" width="155.384" height="155.384" filterUnits="userSpaceOnUse">
      <feOffset dy="3" input="SourceAlpha"/>
      <feGaussianBlur stdDeviation="3" result="blur-4"/>
      <feFlood flood-opacity="0.161"/>
      <feComposite operator="in" in2="blur-4"/>
      <feComposite in="SourceGraphic"/>
    </filter>
    <filter id="Elipse_4875" x="254.182" y="27.363" width="155.384" height="155.384" filterUnits="userSpaceOnUse">
      <feOffset dy="3" input="SourceAlpha"/>
      <feGaussianBlur stdDeviation="3" result="blur-5"/>
      <feFlood flood-opacity="0.161"/>
      <feComposite operator="in" in2="blur-5"/>
      <feComposite in="SourceGraphic"/>
    </filter>
    <filter id="Elipse_4878" x="170.845" y="197.396" width="350.533" height="351.658" filterUnits="userSpaceOnUse">
      <feOffset dx="5" dy="5" input="SourceAlpha"/>
      <feGaussianBlur stdDeviation="12.5" result="blur-6"/>
      <feFlood flood-opacity="0.031"/>
      <feComposite operator="in" in2="blur-6"/>
      <feComposite in="SourceGraphic"/>
    </filter>
    <clipPath id="clip-path">
      <rect id="Rect치ngulo_406479" data-name="Rect치ngulo 406479" width="203.5" height="108.251" fill="none"/>
    </clipPath>
    <clipPath id="clip-path-5">
      <rect id="Rect치ngulo_406475" data-name="Rect치ngulo 406475" width="15.169" height="11.785" fill="none"/>
    </clipPath>
    <filter id="Trazado_779304" x="131.841" y="554.107" width="82.283" height="82.284" filterUnits="userSpaceOnUse">
      <feOffset dy="3" input="SourceAlpha"/>
      <feGaussianBlur stdDeviation="3" result="blur-7"/>
      <feFlood flood-opacity="0.161"/>
      <feComposite operator="in" in2="blur-7"/>
      <feComposite in="SourceGraphic"/>
    </filter>
    <filter id="Trazado_779304-2" x="16.156" y="266.935" width="82.283" height="82.284" filterUnits="userSpaceOnUse">
      <feOffset dy="3" input="SourceAlpha"/>
      <feGaussianBlur stdDeviation="3" result="blur-8"/>
      <feFlood flood-opacity="0.161"/>
      <feComposite operator="in" in2="blur-8"/>
      <feComposite in="SourceGraphic"/>
    </filter>
    <filter id="Trazado_779304-3" x="204.827" y="55.898" width="82.283" height="82.284" filterUnits="userSpaceOnUse">
      <feOffset dy="3" input="SourceAlpha"/>
      <feGaussianBlur stdDeviation="3" result="blur-9"/>
      <feFlood flood-opacity="0.161"/>
      <feComposite operator="in" in2="blur-9"/>
      <feComposite in="SourceGraphic"/>
    </filter>
    <filter id="Trazado_779304-4" x="491.664" y="88.04" width="82.283" height="82.284" filterUnits="userSpaceOnUse">
      <feOffset dy="3" input="SourceAlpha"/>
      <feGaussianBlur stdDeviation="3" result="blur-10"/>
      <feFlood flood-opacity="0.161"/>
      <feComposite operator="in" in2="blur-10"/>
      <feComposite in="SourceGraphic"/>
    </filter>
    <filter id="Trazado_779304-5" x="591.226" y="369.196" width="82.283" height="82.284" filterUnits="userSpaceOnUse">
      <feOffset dy="3" input="SourceAlpha"/>
      <feGaussianBlur stdDeviation="3" result="blur-11"/>
      <feFlood flood-opacity="0.161"/>
      <feComposite operator="in" in2="blur-11"/>
      <feComposite in="SourceGraphic"/>
    </filter>
  </defs>
  <g id="Grupo_1115054" data-name="Grupo 1115054" transform="translate(-444.495 -6053.11)">
    <g id="Grupo_1114479" data-name="Grupo 1114479" transform="translate(444.495 6675.5) rotate(-90)">
      <ellipse id="Elipse_4877" data-name="Elipse 4877" cx="253.603" cy="253.041" rx="253.603" ry="253.041" transform="translate(0 87.137)" fill="#e9efea"/>
      <g id="Grupo_84801" data-name="Grupo 84801" transform="translate(9.712)">
        <g id="Grupo_84775" data-name="Grupo 84775" transform="translate(486.146 468.114) rotate(90)">
          <g id="Grupo_84772" data-name="Grupo 84772" transform="translate(0 0)">
            <path id="Trazado_118719" data-name="Trazado 118719" d="M93.4,186.8a93.4,93.4,0,1,1,93.4-93.4A93.506,93.506,0,0,1,93.4,186.8Zm0-183.867A90.467,90.467,0,1,0,183.867,93.4,90.569,90.569,0,0,0,93.4,2.933Z" fill="#204623"/>
          </g>
          <g id="Grupo_84774" data-name="Grupo 84774" transform="translate(21.173 92.282)">
            <g id="Grupo_84773" data-name="Grupo 84773">
              <path id="Trazado_118720" data-name="Trazado 118720" d="M191.218,0H70.923L0,95.28a119.149,119.149,0,0,0,71.563,23.746A119.662,119.662,0,0,0,191.218,0Z" fill="#5d9037"/>
            </g>
          </g>
          <g id="Grupo_84771" data-name="Grupo 84771" transform="translate(23.912 25.138)">
            <g transform="matrix(1, 0, 0, 1, -492.03, -151.67)" filter="url(#Elipse_4871)">
              <circle id="Elipse_4871-2" data-name="Elipse 4871" cx="68.692" cy="68.692" r="68.692" transform="translate(492.03 151.67)" fill="#fafafa"/>
            </g>
          </g>
        </g>
        <g id="Grupo_84780" data-name="Grupo 84780" transform="translate(211.37 468.114) rotate(90)">
          <g id="Grupo_84777" data-name="Grupo 84777" transform="translate(25.591 0)">
            <path id="Trazado_118721" data-name="Trazado 118721" d="M0,93.4a93.4,93.4,0,1,1,93.4,93.4A93.505,93.505,0,0,1,0,93.4Zm2.933,0A90.467,90.467,0,1,0,93.4,2.933,90.569,90.569,0,0,0,2.933,93.4Z" fill="#204623"/>
          </g>
          <g id="Grupo_84779" data-name="Grupo 84779" transform="translate(0 92.282)">
            <g id="Grupo_84778" data-name="Grupo 84778">
              <path id="Trazado_118722" data-name="Trazado 118722" d="M0,0H120.294l70.923,95.28a119.143,119.143,0,0,1-71.562,23.746A119.662,119.662,0,0,1,0,0Z" fill="#5d9037"/>
            </g>
          </g>
          <g id="Grupo_84776" data-name="Grupo 84776" transform="translate(51.095 25.138)">
            <g transform="matrix(1, 0, 0, 1, -519.21, -426.45)" filter="url(#Elipse_4872)">
              <circle id="Elipse_4872-2" data-name="Elipse 4872" cx="68.692" cy="68.692" r="68.692" transform="translate(519.21 426.45)" fill="#fafafa"/>
            </g>
          </g>
        </g>
        <g id="Grupo_84785" data-name="Grupo 84785" transform="translate(211.309 0) rotate(90)">
          <g id="Grupo_84782" data-name="Grupo 84782" transform="translate(25.591 24.507)">
            <path id="Trazado_118723" data-name="Trazado 118723" d="M93.4,0A93.4,93.4,0,1,1,0,93.4,93.507,93.507,0,0,1,93.4,0Zm0,183.869A90.468,90.468,0,1,0,2.933,93.4,90.569,90.569,0,0,0,93.4,183.869Z" transform="translate(0 0)" fill="#204623"/>
          </g>
          <g id="Grupo_84784" data-name="Grupo 84784" transform="translate(0 0)">
            <g id="Grupo_84783" data-name="Grupo 84783">
              <path id="Trazado_118724" data-name="Trazado 118724" d="M0,119.027H120.3l70.923-95.28A119.669,119.669,0,0,0,0,119.027Z" fill="#5d9037"/>
            </g>
          </g>
          <g id="Grupo_84781" data-name="Grupo 84781" transform="translate(51.095 48.786)">
            <g transform="matrix(1, 0, 0, 1, -51.1, -450.16)" filter="url(#Elipse_4873)">
              <circle id="Elipse_4873-2" data-name="Elipse 4873" cx="68.692" cy="68.692" r="68.692" transform="translate(51.1 450.16)" fill="#fafafa"/>
            </g>
          </g>
        </g>
        <g id="Grupo_84790" data-name="Grupo 84790" transform="translate(497.331) rotate(90)">
          <g id="Grupo_84787" data-name="Grupo 84787" transform="translate(0 24.507)">
            <path id="Trazado_118725" data-name="Trazado 118725" d="M186.8,93.4A93.4,93.4,0,1,1,93.4,0,93.505,93.505,0,0,1,186.8,93.4Zm-2.933,0A90.467,90.467,0,1,0,93.4,183.869,90.57,90.57,0,0,0,183.867,93.4Z" transform="translate(0 0)" fill="#204623"/>
          </g>
          <g id="Grupo_84789" data-name="Grupo 84789" transform="translate(21.175 0)">
            <g id="Grupo_84788" data-name="Grupo 84788">
              <path id="Trazado_118726" data-name="Trazado 118726" d="M191.217,119.027H70.923L0,23.747a119.668,119.668,0,0,1,191.217,95.28Z" fill="#5d9037"/>
            </g>
          </g>
          <g id="Grupo_84786" data-name="Grupo 84786" transform="translate(23.912 48.786)">
            <g transform="matrix(1, 0, 0, 1, -23.91, -164.13)" filter="url(#Elipse_4874)">
              <circle id="Elipse_4874-2" data-name="Elipse 4874" cx="68.692" cy="68.692" r="68.692" transform="translate(23.91 164.13)" fill="#fafafa"/>
            </g>
          </g>
        </g>
        <g id="Grupo_84795" data-name="Grupo 84795" transform="translate(612.679 239.269) rotate(90)">
          <g id="Grupo_84792" data-name="Grupo 84792" transform="translate(0 9.085)">
            <path id="Trazado_118727" data-name="Trazado 118727" d="M186.8,93.4A93.4,93.4,0,1,1,93.4,0,93.505,93.505,0,0,1,186.8,93.4Zm-2.932,0A90.467,90.467,0,1,0,93.4,183.867,90.569,90.569,0,0,0,183.867,93.4Z" fill="#204623"/>
          </g>
          <g id="Grupo_84794" data-name="Grupo 84794" transform="translate(91.587 0)">
            <g id="Grupo_84793" data-name="Grupo 84793">
              <path id="Trazado_118728" data-name="Trazado 118728" d="M47.962,213.35,0,103.03,59.1,0a119.134,119.134,0,0,1,50.31,56.16A119.662,119.662,0,0,1,47.962,213.35Z" fill="#5d9037"/>
            </g>
          </g>
          <g id="Grupo_84791" data-name="Grupo 84791" transform="translate(23.913 33.363)">
            <g transform="matrix(1, 0, 0, 1, -263.18, -33.36)" filter="url(#Elipse_4875)">
              <circle id="Elipse_4875-2" data-name="Elipse 4875" cx="68.692" cy="68.692" r="68.692" transform="translate(263.18 33.36)" fill="#fafafa"/>
            </g>
          </g>
        </g>
      </g>
      <path id="Trazado_911697" data-name="Trazado 911697" d="M16.967,16h-2.2L10.493,8.983V16H8.3V5.336h2.2l4.285,7.031V5.336h2.19Zm1.45-4.036a4.7,4.7,0,0,1,.454-2.1,3.324,3.324,0,0,1,1.307-1.428,3.814,3.814,0,0,1,1.981-.505,3.609,3.609,0,0,1,2.618.981,3.939,3.939,0,0,1,1.132,2.666l.015.542a4.142,4.142,0,0,1-1.018,2.926,3.539,3.539,0,0,1-2.732,1.1,3.556,3.556,0,0,1-2.736-1.1,4.215,4.215,0,0,1-1.022-2.988Zm2.117.15a2.962,2.962,0,0,0,.425,1.727,1.526,1.526,0,0,0,2.417.007,3.241,3.241,0,0,0,.432-1.889,2.933,2.933,0,0,0-.432-1.716,1.4,1.4,0,0,0-1.216-.609,1.382,1.382,0,0,0-1.2.605A3.3,3.3,0,0,0,20.534,12.115Zm14.077,4.032a3.89,3.89,0,0,1-2.838-1.069,3.8,3.8,0,0,1-1.095-2.849v-.205a4.787,4.787,0,0,1,.461-2.135,3.386,3.386,0,0,1,1.307-1.45,3.669,3.669,0,0,1,1.93-.509,3.289,3.289,0,0,1,2.56,1.025,4.167,4.167,0,0,1,.934,2.908v.864H32.824a1.966,1.966,0,0,0,.619,1.245,1.871,1.871,0,0,0,1.307.469,2.285,2.285,0,0,0,1.912-.886l1.04,1.165a3.178,3.178,0,0,1-1.289,1.051A4.229,4.229,0,0,1,34.611,16.146ZM34.37,9.635a1.323,1.323,0,0,0-1.022.427,2.209,2.209,0,0,0-.5,1.221h2.944v-.169a1.576,1.576,0,0,0-.381-1.092A1.365,1.365,0,0,0,34.37,9.635Zm8.994,4.175a.682.682,0,0,0-.385-.612,4.368,4.368,0,0,0-1.234-.4q-2.827-.593-2.827-2.4a2.178,2.178,0,0,1,.875-1.761,3.531,3.531,0,0,1,2.289-.707,3.8,3.8,0,0,1,2.413.71,2.239,2.239,0,0,1,.9,1.846H43.283a1.024,1.024,0,0,0-.293-.751,1.24,1.24,0,0,0-.916-.3,1.267,1.267,0,0,0-.828.242.763.763,0,0,0-.293.615.652.652,0,0,0,.333.568,3.428,3.428,0,0,0,1.124.374,9.183,9.183,0,0,1,1.333.355,2.19,2.19,0,0,1,1.677,2.131,2.067,2.067,0,0,1-.93,1.754,4.013,4.013,0,0,1-2.4.67,4.191,4.191,0,0,1-1.769-.355,2.968,2.968,0,0,1-1.212-.974,2.263,2.263,0,0,1-.439-1.337h2.007a1.105,1.105,0,0,0,.417.864,1.656,1.656,0,0,0,1.04.3,1.533,1.533,0,0,0,.919-.231A.718.718,0,0,0,43.364,13.81Zm10.452.63a1.388,1.388,0,0,0,.952-.322,1.129,1.129,0,0,0,.381-.857h1.985a2.715,2.715,0,0,1-.439,1.476,2.9,2.9,0,0,1-1.183,1.04,3.7,3.7,0,0,1-1.659.37,3.44,3.44,0,0,1-2.681-1.08,4.275,4.275,0,0,1-.981-2.985v-.139a4.226,4.226,0,0,1,.974-2.922,3.4,3.4,0,0,1,2.673-1.091,3.333,3.333,0,0,1,2.384.846,3,3,0,0,1,.912,2.252H55.149a1.455,1.455,0,0,0-.381-1.005,1.416,1.416,0,0,0-2.084.153,3.125,3.125,0,0,0-.377,1.749v.22A3.164,3.164,0,0,0,52.68,13.9,1.291,1.291,0,0,0,53.816,14.44Zm4.2-2.476a4.7,4.7,0,0,1,.454-2.1,3.324,3.324,0,0,1,1.307-1.428,3.814,3.814,0,0,1,1.981-.505,3.609,3.609,0,0,1,2.618.981A3.939,3.939,0,0,1,65.5,11.576l.015.542A4.142,4.142,0,0,1,64.5,15.044a3.946,3.946,0,0,1-5.468,0,4.215,4.215,0,0,1-1.022-2.988Zm2.117.15a2.962,2.962,0,0,0,.425,1.727,1.526,1.526,0,0,0,2.417.007,3.241,3.241,0,0,0,.432-1.889,2.933,2.933,0,0,0-.432-1.716,1.4,1.4,0,0,0-1.216-.609,1.382,1.382,0,0,0-1.2.605A3.3,3.3,0,0,0,60.129,12.115Zm13.828,0a4.753,4.753,0,0,1-.831,2.933,2.665,2.665,0,0,1-2.245,1.1,2.469,2.469,0,0,1-1.941-.835v3.735H66.823V8.075h1.963l.073.776a2.488,2.488,0,0,1,2.007-.923,2.683,2.683,0,0,1,2.278,1.084A4.882,4.882,0,0,1,73.957,12Zm-2.117-.154a3.119,3.119,0,0,0-.392-1.707,1.276,1.276,0,0,0-1.139-.6,1.386,1.386,0,0,0-1.37.762v3.245a1.41,1.41,0,0,0,1.384.784Q71.84,14.44,71.84,11.957ZM77.5,16H75.378V8.075H77.5ZM75.254,6.024a1.042,1.042,0,0,1,.319-.784,1.373,1.373,0,0,1,1.732,0,1.036,1.036,0,0,1,.322.784,1.039,1.039,0,0,1-.326.791,1.358,1.358,0,0,1-1.721,0A1.039,1.039,0,0,1,75.254,6.024ZM83.837,16a2.351,2.351,0,0,1-.212-.71,2.561,2.561,0,0,1-2,.857,2.814,2.814,0,0,1-1.93-.674,2.167,2.167,0,0,1-.765-1.7,2.24,2.24,0,0,1,.934-1.934,4.608,4.608,0,0,1,2.7-.681h.974V10.7a1.306,1.306,0,0,0-.282-.879,1.109,1.109,0,0,0-.89-.33,1.261,1.261,0,0,0-.839.256.871.871,0,0,0-.3.7H79.106a2.126,2.126,0,0,1,.425-1.274,2.808,2.808,0,0,1,1.2-.919,4.378,4.378,0,0,1,1.743-.333,3.459,3.459,0,0,1,2.325.736,2.575,2.575,0,0,1,.861,2.069v3.435a3.789,3.789,0,0,0,.315,1.707V16Zm-1.75-1.472a1.823,1.823,0,0,0,.864-.209,1.371,1.371,0,0,0,.586-.56V12.4h-.791q-1.589,0-1.692,1.1l-.007.125a.847.847,0,0,0,.278.652A1.081,1.081,0,0,0,82.087,14.528ZM91.74,10.06A5.751,5.751,0,0,0,90.979,10a1.55,1.55,0,0,0-1.575.813V16H87.287V8.075h2l.059.945A1.961,1.961,0,0,1,91.11,7.929a2.218,2.218,0,0,1,.659.1Zm-.139,4.9a1.066,1.066,0,0,1,.341-.82,1.323,1.323,0,0,1,1.714,0,1.066,1.066,0,0,1,.341.82,1.051,1.051,0,0,1-.337.809,1.345,1.345,0,0,1-1.721,0A1.051,1.051,0,0,1,91.6,14.96Z" transform="translate(117.555 67.304) rotate(90)" fill="#12263f"/>
      <path id="Trazado_911700" data-name="Trazado 911700" d="M26.871,16h-2.2L20.4,8.983V16H18.2V5.336h2.2l4.285,7.031V5.336h2.19Zm1.45-4.036a4.7,4.7,0,0,1,.454-2.1,3.324,3.324,0,0,1,1.307-1.428,3.814,3.814,0,0,1,1.981-.505,3.609,3.609,0,0,1,2.618.981,3.939,3.939,0,0,1,1.132,2.666l.015.542a4.142,4.142,0,0,1-1.018,2.926,3.539,3.539,0,0,1-2.732,1.1,3.556,3.556,0,0,1-2.736-1.1,4.215,4.215,0,0,1-1.022-2.988Zm2.117.15a2.962,2.962,0,0,0,.425,1.727,1.526,1.526,0,0,0,2.417.007,3.241,3.241,0,0,0,.432-1.889,2.933,2.933,0,0,0-.432-1.716,1.4,1.4,0,0,0-1.216-.609,1.382,1.382,0,0,0-1.2.605A3.3,3.3,0,0,0,30.438,12.115Zm14.077,4.032a3.89,3.89,0,0,1-2.838-1.069,3.8,3.8,0,0,1-1.095-2.849v-.205a4.787,4.787,0,0,1,.461-2.135,3.386,3.386,0,0,1,1.307-1.45,3.669,3.669,0,0,1,1.93-.509,3.289,3.289,0,0,1,2.56,1.025,4.167,4.167,0,0,1,.934,2.908v.864H42.728a1.966,1.966,0,0,0,.619,1.245,1.871,1.871,0,0,0,1.307.469,2.285,2.285,0,0,0,1.912-.886l1.04,1.165a3.178,3.178,0,0,1-1.289,1.051A4.229,4.229,0,0,1,44.515,16.146Zm-.242-6.511a1.323,1.323,0,0,0-1.022.427,2.209,2.209,0,0,0-.5,1.221h2.944v-.169a1.576,1.576,0,0,0-.381-1.092A1.365,1.365,0,0,0,44.273,9.635Zm8.994,4.175a.682.682,0,0,0-.385-.612,4.368,4.368,0,0,0-1.234-.4q-2.827-.593-2.827-2.4A2.178,2.178,0,0,1,49.7,8.635a3.531,3.531,0,0,1,2.289-.707,3.8,3.8,0,0,1,2.413.71,2.239,2.239,0,0,1,.9,1.846H53.187a1.024,1.024,0,0,0-.293-.751,1.24,1.24,0,0,0-.916-.3,1.267,1.267,0,0,0-.828.242.763.763,0,0,0-.293.615.652.652,0,0,0,.333.568,3.428,3.428,0,0,0,1.124.374,9.183,9.183,0,0,1,1.333.355,2.19,2.19,0,0,1,1.677,2.131,2.067,2.067,0,0,1-.93,1.754,4.013,4.013,0,0,1-2.4.67,4.191,4.191,0,0,1-1.769-.355,2.968,2.968,0,0,1-1.212-.974,2.263,2.263,0,0,1-.439-1.337H50.58a1.105,1.105,0,0,0,.417.864,1.656,1.656,0,0,0,1.04.3,1.533,1.533,0,0,0,.919-.231A.718.718,0,0,0,53.268,13.81Zm11.448,0a.682.682,0,0,0-.385-.612,4.368,4.368,0,0,0-1.234-.4q-2.827-.593-2.827-2.4a2.178,2.178,0,0,1,.875-1.761,3.531,3.531,0,0,1,2.289-.707,3.8,3.8,0,0,1,2.413.71,2.239,2.239,0,0,1,.9,1.846H64.635a1.024,1.024,0,0,0-.293-.751,1.24,1.24,0,0,0-.916-.3,1.267,1.267,0,0,0-.828.242.763.763,0,0,0-.293.615.652.652,0,0,0,.333.568,3.428,3.428,0,0,0,1.124.374,9.183,9.183,0,0,1,1.333.355,2.19,2.19,0,0,1,1.677,2.131,2.067,2.067,0,0,1-.93,1.754,4.013,4.013,0,0,1-2.4.67,4.191,4.191,0,0,1-1.769-.355,2.968,2.968,0,0,1-1.212-.974,2.263,2.263,0,0,1-.439-1.337h2.007a1.105,1.105,0,0,0,.417.864,1.656,1.656,0,0,0,1.04.3,1.533,1.533,0,0,0,.919-.231A.718.718,0,0,0,64.715,13.81Zm3.091-1.846a4.7,4.7,0,0,1,.454-2.1,3.324,3.324,0,0,1,1.307-1.428,3.814,3.814,0,0,1,1.981-.505,3.609,3.609,0,0,1,2.618.981A3.939,3.939,0,0,1,75.3,11.576l.015.542A4.142,4.142,0,0,1,74.3,15.044a3.946,3.946,0,0,1-5.468,0,4.215,4.215,0,0,1-1.022-2.988Zm2.117.15a2.962,2.962,0,0,0,.425,1.727,1.526,1.526,0,0,0,2.417.007,3.241,3.241,0,0,0,.432-1.889,2.933,2.933,0,0,0-.432-1.716,1.4,1.4,0,0,0-1.216-.609,1.382,1.382,0,0,0-1.2.605A3.3,3.3,0,0,0,69.923,12.115ZM78.851,16H76.727V4.75h2.124Zm1.414-4.036a4.7,4.7,0,0,1,.454-2.1,3.324,3.324,0,0,1,1.307-1.428,3.814,3.814,0,0,1,1.981-.505,3.609,3.609,0,0,1,2.618.981,3.939,3.939,0,0,1,1.132,2.666l.015.542a4.142,4.142,0,0,1-1.018,2.926,3.946,3.946,0,0,1-5.468,0,4.215,4.215,0,0,1-1.022-2.988Zm2.117.15a2.962,2.962,0,0,0,.425,1.727,1.526,1.526,0,0,0,2.417.007,3.241,3.241,0,0,0,.432-1.889,2.933,2.933,0,0,0-.432-1.716,1.4,1.4,0,0,0-1.216-.609,1.382,1.382,0,0,0-1.2.605A3.3,3.3,0,0,0,82.381,12.115ZM24.593,36.44a1.388,1.388,0,0,0,.952-.322,1.129,1.129,0,0,0,.381-.857h1.985a2.715,2.715,0,0,1-.439,1.476,2.9,2.9,0,0,1-1.183,1.04,3.7,3.7,0,0,1-1.659.37,3.44,3.44,0,0,1-2.681-1.08,4.275,4.275,0,0,1-.981-2.985v-.139a4.226,4.226,0,0,1,.974-2.922,3.4,3.4,0,0,1,2.673-1.091A3.333,3.333,0,0,1,27,30.775a3,3,0,0,1,.912,2.252H25.926a1.455,1.455,0,0,0-.381-1.005,1.416,1.416,0,0,0-2.084.153,3.125,3.125,0,0,0-.377,1.749v.22a3.164,3.164,0,0,0,.374,1.761A1.291,1.291,0,0,0,24.593,36.44Zm4.2-2.476a4.7,4.7,0,0,1,.454-2.1,3.324,3.324,0,0,1,1.307-1.428,3.814,3.814,0,0,1,1.981-.505,3.609,3.609,0,0,1,2.618.981,3.939,3.939,0,0,1,1.132,2.666l.015.542a4.142,4.142,0,0,1-1.018,2.926,3.946,3.946,0,0,1-5.468,0A4.215,4.215,0,0,1,28.79,34.06Zm2.117.15a2.962,2.962,0,0,0,.425,1.727,1.526,1.526,0,0,0,2.417.007,3.241,3.241,0,0,0,.432-1.889,2.933,2.933,0,0,0-.432-1.716,1.4,1.4,0,0,0-1.216-.609,1.382,1.382,0,0,0-1.2.605A3.3,3.3,0,0,0,30.907,34.115Zm8.679-4.039.066.886a2.785,2.785,0,0,1,2.278-1.033,2.114,2.114,0,0,1,2.1,1.208,2.721,2.721,0,0,1,2.38-1.208,2.364,2.364,0,0,1,1.919.751,3.451,3.451,0,0,1,.63,2.26V38H46.837V32.946a1.509,1.509,0,0,0-.264-.985,1.169,1.169,0,0,0-.93-.311,1.321,1.321,0,0,0-1.318.908L44.332,38H42.215V32.954a1.491,1.491,0,0,0-.271-1,1.18,1.18,0,0,0-.923-.308,1.372,1.372,0,0,0-1.3.747V38H37.6V30.075Zm18.135,4.036a4.753,4.753,0,0,1-.831,2.933,2.665,2.665,0,0,1-2.245,1.1,2.469,2.469,0,0,1-1.941-.835v3.735H50.587V30.075H52.55l.073.776a2.488,2.488,0,0,1,2.007-.923,2.683,2.683,0,0,1,2.278,1.084A4.882,4.882,0,0,1,57.721,34ZM55.6,33.957a3.119,3.119,0,0,0-.392-1.707,1.276,1.276,0,0,0-1.139-.6,1.386,1.386,0,0,0-1.37.762v3.245a1.41,1.41,0,0,0,1.384.784Q55.6,36.44,55.6,33.957ZM63.624,38a2.351,2.351,0,0,1-.212-.71,2.561,2.561,0,0,1-2,.857,2.814,2.814,0,0,1-1.93-.674,2.167,2.167,0,0,1-.765-1.7,2.24,2.24,0,0,1,.934-1.934,4.608,4.608,0,0,1,2.7-.681h.974V32.7a1.306,1.306,0,0,0-.282-.879,1.109,1.109,0,0,0-.89-.33,1.261,1.261,0,0,0-.839.256.871.871,0,0,0-.3.7H58.893a2.126,2.126,0,0,1,.425-1.274,2.808,2.808,0,0,1,1.2-.919,4.378,4.378,0,0,1,1.743-.333,3.459,3.459,0,0,1,2.325.736,2.575,2.575,0,0,1,.861,2.069v3.435a3.789,3.789,0,0,0,.315,1.707V38Zm-1.75-1.472a1.823,1.823,0,0,0,.864-.209,1.371,1.371,0,0,0,.586-.56V34.4h-.791q-1.589,0-1.692,1.1l-.007.125a.847.847,0,0,0,.278.652A1.081,1.081,0,0,0,61.874,36.528Zm9.653-4.468A5.75,5.75,0,0,0,70.765,32a1.55,1.55,0,0,0-1.575.813V38H67.074V30.075h2l.059.945A1.961,1.961,0,0,1,70.9,29.929a2.218,2.218,0,0,1,.659.1ZM76.917,38a2.351,2.351,0,0,1-.212-.71,2.561,2.561,0,0,1-2,.857,2.814,2.814,0,0,1-1.93-.674,2.167,2.167,0,0,1-.765-1.7,2.24,2.24,0,0,1,.934-1.934,4.608,4.608,0,0,1,2.7-.681h.974V32.7a1.306,1.306,0,0,0-.282-.879,1.109,1.109,0,0,0-.89-.33,1.261,1.261,0,0,0-.839.256.871.871,0,0,0-.3.7H72.186a2.126,2.126,0,0,1,.425-1.274,2.808,2.808,0,0,1,1.2-.919,4.378,4.378,0,0,1,1.743-.333,3.459,3.459,0,0,1,2.325.736,2.575,2.575,0,0,1,.861,2.069v3.435a3.789,3.789,0,0,0,.315,1.707V38Zm-1.75-1.472a1.823,1.823,0,0,0,.864-.209,1.371,1.371,0,0,0,.586-.56V34.4h-.791q-1.589,0-1.692,1.1l-.007.125a.847.847,0,0,0,.278.652A1.081,1.081,0,0,0,75.167,36.528ZM84.82,32.06A5.75,5.75,0,0,0,84.059,32a1.55,1.55,0,0,0-1.575.813V38H80.367V30.075h2l.059.945a1.961,1.961,0,0,1,1.765-1.091,2.218,2.218,0,0,1,.659.1ZM23.692,52.075l.066.916a2.767,2.767,0,0,1,2.278-1.062,2.3,2.3,0,0,1,1.875.74,3.451,3.451,0,0,1,.63,2.212V60H26.424V54.932a1.373,1.373,0,0,0-.293-.978,1.312,1.312,0,0,0-.974-.3,1.456,1.456,0,0,0-1.34.762V60H21.7V52.075Zm11.2,7.119a2.654,2.654,0,0,1-2.168.952,2.5,2.5,0,0,1-1.945-.732,3.127,3.127,0,0,1-.685-2.146V52.075H32.21V57.2q0,1.239,1.128,1.239a1.528,1.528,0,0,0,1.479-.748V52.075h2.124V60H34.95ZM33.946,48.75h2.307l-2.029,2.271H32.5Zm6.577,3.325.066.886a2.785,2.785,0,0,1,2.278-1.033,2.114,2.114,0,0,1,2.1,1.208,2.721,2.721,0,0,1,2.38-1.208,2.364,2.364,0,0,1,1.919.751,3.451,3.451,0,0,1,.63,2.26V60H47.774V54.946a1.509,1.509,0,0,0-.264-.985,1.169,1.169,0,0,0-.93-.311,1.321,1.321,0,0,0-1.318.908L45.27,60H43.153V54.954a1.491,1.491,0,0,0-.271-1,1.18,1.18,0,0,0-.923-.308,1.372,1.372,0,0,0-1.3.747V60H38.539V52.075Zm14.648,8.071a3.89,3.89,0,0,1-2.838-1.069,3.8,3.8,0,0,1-1.095-2.849v-.205a4.787,4.787,0,0,1,.461-2.135,3.386,3.386,0,0,1,1.307-1.45,3.669,3.669,0,0,1,1.93-.509,3.289,3.289,0,0,1,2.56,1.025,4.167,4.167,0,0,1,.934,2.908v.864H53.385A1.966,1.966,0,0,0,54,57.971a1.871,1.871,0,0,0,1.307.469,2.285,2.285,0,0,0,1.912-.886l1.04,1.165a3.178,3.178,0,0,1-1.289,1.051A4.229,4.229,0,0,1,55.172,60.146Zm-.242-6.511a1.323,1.323,0,0,0-1.022.427,2.209,2.209,0,0,0-.5,1.221h2.944v-.169a1.576,1.576,0,0,0-.381-1.092A1.365,1.365,0,0,0,54.93,53.635Zm9.155.425A5.75,5.75,0,0,0,63.324,54a1.55,1.55,0,0,0-1.575.813V60H59.632V52.075h2l.059.945a1.961,1.961,0,0,1,1.765-1.091,2.218,2.218,0,0,1,.659.1Zm.425,1.9a4.7,4.7,0,0,1,.454-2.1,3.324,3.324,0,0,1,1.307-1.428,3.814,3.814,0,0,1,1.981-.505,3.609,3.609,0,0,1,2.618.981A3.939,3.939,0,0,1,72,55.576l.015.542A4.142,4.142,0,0,1,71,59.044a3.946,3.946,0,0,1-5.468,0A4.215,4.215,0,0,1,64.51,56.06Zm2.117.15a2.962,2.962,0,0,0,.425,1.727,1.526,1.526,0,0,0,2.417.007,3.241,3.241,0,0,0,.432-1.889,2.933,2.933,0,0,0-.432-1.716,1.4,1.4,0,0,0-1.216-.609,1.382,1.382,0,0,0-1.2.605A3.3,3.3,0,0,0,66.627,56.115Zm10.986,1.7a.682.682,0,0,0-.385-.612,4.368,4.368,0,0,0-1.234-.4q-2.827-.593-2.827-2.4a2.178,2.178,0,0,1,.875-1.761,3.531,3.531,0,0,1,2.289-.707,3.8,3.8,0,0,1,2.413.71,2.239,2.239,0,0,1,.9,1.846H77.533a1.024,1.024,0,0,0-.293-.751,1.24,1.24,0,0,0-.916-.3,1.267,1.267,0,0,0-.828.242.763.763,0,0,0-.293.615.652.652,0,0,0,.333.568,3.428,3.428,0,0,0,1.124.374,9.183,9.183,0,0,1,1.333.355,2.19,2.19,0,0,1,1.677,2.131,2.067,2.067,0,0,1-.93,1.754,4.013,4.013,0,0,1-2.4.67,4.191,4.191,0,0,1-1.769-.355,2.968,2.968,0,0,1-1.212-.974,2.263,2.263,0,0,1-.439-1.337h2.007a1.105,1.105,0,0,0,.417.864,1.656,1.656,0,0,0,1.04.3,1.533,1.533,0,0,0,.919-.231A.718.718,0,0,0,77.613,57.81Zm3.53,1.15a1.066,1.066,0,0,1,.341-.82,1.323,1.323,0,0,1,1.714,0,1.066,1.066,0,0,1,.341.82,1.051,1.051,0,0,1-.337.809,1.345,1.345,0,0,1-1.721,0A1.051,1.051,0,0,1,81.144,58.96Z" transform="translate(158.372 535.606) rotate(90)" fill="#12263f"/>
      <path id="Trazado_911698" data-name="Trazado 911698" d="M20.9,14.415a6.843,6.843,0,0,1-1.16,4.286,4.048,4.048,0,0,1-3.4,1.484,4.076,4.076,0,0,1-3.377-1.457,6.643,6.643,0,0,1-1.2-4.175V12.068a6.753,6.753,0,0,1,1.174-4.3,4.078,4.078,0,0,1,3.382-1.466,4.082,4.082,0,0,1,3.377,1.452,6.622,6.622,0,0,1,1.2,4.17Zm-2.681-2.734a4.946,4.946,0,0,0-.459-2.447,1.552,1.552,0,0,0-1.433-.766,1.524,1.524,0,0,0-1.4.729,4.629,4.629,0,0,0-.478,2.28v3.287a5.192,5.192,0,0,0,.45,2.456,1.531,1.531,0,0,0,1.443.8,1.506,1.506,0,0,0,1.419-.771,5.068,5.068,0,0,0,.455-2.359Zm11,8.319H26.544V9.665l-3.2.993V8.478l5.594-2h.288Z" transform="translate(200.777 62.806) rotate(90)" fill="#fff"/>
      <path id="Trazado_911692" data-name="Trazado 911692" d="M20.95,13.709a6.483,6.483,0,0,1-1.1,4.061,3.835,3.835,0,0,1-3.217,1.406,3.862,3.862,0,0,1-3.2-1.38A6.293,6.293,0,0,1,12.3,13.841V11.485a6.4,6.4,0,0,1,1.112-4.069,3.864,3.864,0,0,1,3.2-1.389,3.867,3.867,0,0,1,3.2,1.375,6.273,6.273,0,0,1,1.134,3.951Zm-2.54-2.59A4.686,4.686,0,0,0,17.975,8.8a1.47,1.47,0,0,0-1.358-.726,1.444,1.444,0,0,0-1.323.691,4.385,4.385,0,0,0-.453,2.16V14.04a4.919,4.919,0,0,0,.426,2.327,1.451,1.451,0,0,0,1.367.761,1.426,1.426,0,0,0,1.345-.73,4.8,4.8,0,0,0,.431-2.235ZM31.435,19H22.664V17.26l4.14-4.412a10.212,10.212,0,0,0,1.261-1.626A2.612,2.612,0,0,0,28.473,9.9a1.955,1.955,0,0,0-.431-1.34,1.555,1.555,0,0,0-1.23-.488,1.677,1.677,0,0,0-1.358.593,2.35,2.35,0,0,0-.5,1.56H22.409a4.2,4.2,0,0,1,.558-2.136,3.934,3.934,0,0,1,1.578-1.516,4.8,4.8,0,0,1,2.312-.549,4.54,4.54,0,0,1,3.072.949,3.358,3.358,0,0,1,1.094,2.681,4.3,4.3,0,0,1-.492,1.934,10.745,10.745,0,0,1-1.687,2.294l-2.909,3.067h5.5Z" transform="translate(486.799 111.922) rotate(90)" fill="#fff"/>
      <path id="Trazado_911694" data-name="Trazado 911694" d="M20.9,14.415a6.843,6.843,0,0,1-1.16,4.286,4.048,4.048,0,0,1-3.4,1.484,4.076,4.076,0,0,1-3.377-1.457,6.643,6.643,0,0,1-1.2-4.175V12.068a6.753,6.753,0,0,1,1.174-4.3,4.078,4.078,0,0,1,3.382-1.466,4.082,4.082,0,0,1,3.377,1.452,6.622,6.622,0,0,1,1.2,4.17Zm-2.681-2.734a4.946,4.946,0,0,0-.459-2.447,1.552,1.552,0,0,0-1.433-.766,1.524,1.524,0,0,0-1.4.729,4.629,4.629,0,0,0-.478,2.28v3.287a5.192,5.192,0,0,0,.45,2.456,1.531,1.531,0,0,0,1.443.8,1.506,1.506,0,0,0,1.419-.771,5.068,5.068,0,0,0,.455-2.359Zm7.218.377h1.429a2.013,2.013,0,0,0,1.512-.51,1.87,1.87,0,0,0,.492-1.354,1.653,1.653,0,0,0-.487-1.271,1.888,1.888,0,0,0-1.341-.455,1.979,1.979,0,0,0-1.29.422,1.35,1.35,0,0,0-.52,1.1H22.554a3.3,3.3,0,0,1,.571-1.9,3.8,3.8,0,0,1,1.6-1.313,5.326,5.326,0,0,1,2.259-.473,5.051,5.051,0,0,1,3.358,1.025,3.5,3.5,0,0,1,1.215,2.825,2.842,2.842,0,0,1-.566,1.707,3.677,3.677,0,0,1-1.484,1.2,3.356,3.356,0,0,1,1.7,1.225,3.322,3.322,0,0,1,.561,1.93A3.556,3.556,0,0,1,30.454,19.1a5.278,5.278,0,0,1-3.474,1.085,5,5,0,0,1-3.307-1.067,3.484,3.484,0,0,1-1.285-2.82h2.681a1.553,1.553,0,0,0,.571,1.243,2.38,2.38,0,0,0,2.9-.023,1.745,1.745,0,0,0,.543-1.341q0-2.022-2.227-2.022H25.44Z" transform="translate(534.903 403.714) rotate(90)" fill="#fff"/>
      <path id="Trazado_911696" data-name="Trazado 911696" d="M20.9,14.415a6.843,6.843,0,0,1-1.16,4.286,4.048,4.048,0,0,1-3.4,1.484,4.076,4.076,0,0,1-3.377-1.457,6.643,6.643,0,0,1-1.2-4.175V12.068a6.753,6.753,0,0,1,1.174-4.3,4.078,4.078,0,0,1,3.382-1.466,4.082,4.082,0,0,1,3.377,1.452,6.622,6.622,0,0,1,1.2,4.17Zm-2.681-2.734a4.946,4.946,0,0,0-.459-2.447,1.552,1.552,0,0,0-1.433-.766,1.524,1.524,0,0,0-1.4.729,4.629,4.629,0,0,0-.478,2.28v3.287a5.192,5.192,0,0,0,.45,2.456,1.531,1.531,0,0,0,1.443.8,1.506,1.506,0,0,0,1.419-.771,5.068,5.068,0,0,0,.455-2.359Zm12.422,3.235h1.531v2.162H30.644V20H27.963V17.078H22.425L22.3,15.389l5.631-8.9h2.709Zm-5.668,0h2.987V10.147l-.176.306Z" transform="translate(333.056 583.349) rotate(90)" fill="#fff"/>
      <path id="Trazado_911699" data-name="Trazado 911699" d="M20.9,14.415a6.843,6.843,0,0,1-1.16,4.286,4.048,4.048,0,0,1-3.4,1.484,4.076,4.076,0,0,1-3.377-1.457,6.643,6.643,0,0,1-1.2-4.175V12.068a6.753,6.753,0,0,1,1.174-4.3,4.078,4.078,0,0,1,3.382-1.466,4.082,4.082,0,0,1,3.377,1.452,6.622,6.622,0,0,1,1.2,4.17Zm-2.681-2.734a4.946,4.946,0,0,0-.459-2.447,1.552,1.552,0,0,0-1.433-.766,1.524,1.524,0,0,0-1.4.729,4.629,4.629,0,0,0-.478,2.28v3.287a5.192,5.192,0,0,0,.45,2.456,1.531,1.531,0,0,0,1.443.8,1.506,1.506,0,0,0,1.419-.771,5.068,5.068,0,0,0,.455-2.359Zm4.889,1.676.779-6.865h7.57V8.728H26.089l-.334,2.9a4.251,4.251,0,0,1,2.032-.51,3.893,3.893,0,0,1,3.024,1.2,4.78,4.78,0,0,1,1.095,3.349,4.9,4.9,0,0,1-.552,2.343,3.9,3.9,0,0,1-1.582,1.6,4.938,4.938,0,0,1-2.431.571,5.244,5.244,0,0,1-2.273-.5,4.032,4.032,0,0,1-1.656-1.4,3.805,3.805,0,0,1-.645-2.05h2.653a1.982,1.982,0,0,0,.589,1.313,1.868,1.868,0,0,0,1.322.469,1.648,1.648,0,0,0,1.4-.654,3.03,3.03,0,0,0,.492-1.851,2.505,2.505,0,0,0-.566-1.763,2.077,2.077,0,0,0-1.6-.612,2.321,2.321,0,0,0-1.549.5l-.26.241Z" transform="translate(58.281 537.606) rotate(90)" fill="#fff"/>
      <path id="Trazado_911695" data-name="Trazado 911695" d="M42.31,16h-2.2L35.835,8.983V16h-2.2V5.336h2.2l4.285,7.031V5.336h2.19Zm1.45-4.036a4.7,4.7,0,0,1,.454-2.1,3.324,3.324,0,0,1,1.307-1.428A3.814,3.814,0,0,1,47.5,7.929a3.609,3.609,0,0,1,2.618.981,3.939,3.939,0,0,1,1.132,2.666l.015.542a4.142,4.142,0,0,1-1.018,2.926,3.946,3.946,0,0,1-5.468,0A4.215,4.215,0,0,1,43.76,12.06Zm2.117.15a2.962,2.962,0,0,0,.425,1.727,1.526,1.526,0,0,0,2.417.007,3.241,3.241,0,0,0,.432-1.889,2.933,2.933,0,0,0-.432-1.716A1.4,1.4,0,0,0,47.5,9.635a1.382,1.382,0,0,0-1.2.605A3.3,3.3,0,0,0,45.877,12.115Zm14.077,4.032a3.89,3.89,0,0,1-2.838-1.069,3.8,3.8,0,0,1-1.095-2.849v-.205a4.787,4.787,0,0,1,.461-2.135,3.386,3.386,0,0,1,1.307-1.45,3.669,3.669,0,0,1,1.93-.509,3.289,3.289,0,0,1,2.56,1.025,4.167,4.167,0,0,1,.934,2.908v.864H58.167a1.966,1.966,0,0,0,.619,1.245,1.871,1.871,0,0,0,1.307.469A2.285,2.285,0,0,0,62,13.554l1.04,1.165a3.178,3.178,0,0,1-1.289,1.051A4.229,4.229,0,0,1,59.954,16.146Zm-.242-6.511a1.323,1.323,0,0,0-1.022.427,2.209,2.209,0,0,0-.5,1.221h2.944v-.169a1.576,1.576,0,0,0-.381-1.092A1.365,1.365,0,0,0,59.712,9.635Zm8.994,4.175a.682.682,0,0,0-.385-.612,4.368,4.368,0,0,0-1.234-.4q-2.827-.593-2.827-2.4a2.178,2.178,0,0,1,.875-1.761,3.531,3.531,0,0,1,2.289-.707,3.8,3.8,0,0,1,2.413.71,2.239,2.239,0,0,1,.9,1.846H68.626a1.024,1.024,0,0,0-.293-.751,1.24,1.24,0,0,0-.916-.3,1.267,1.267,0,0,0-.828.242.763.763,0,0,0-.293.615.652.652,0,0,0,.333.568,3.428,3.428,0,0,0,1.124.374,9.183,9.183,0,0,1,1.333.355,2.19,2.19,0,0,1,1.677,2.131,2.067,2.067,0,0,1-.93,1.754,4.013,4.013,0,0,1-2.4.67,4.191,4.191,0,0,1-1.769-.355,2.968,2.968,0,0,1-1.212-.974,2.263,2.263,0,0,1-.439-1.337h2.007a1.105,1.105,0,0,0,.417.864,1.656,1.656,0,0,0,1.04.3,1.533,1.533,0,0,0,.919-.231A.718.718,0,0,0,68.707,13.81ZM21.7,38.146a3.89,3.89,0,0,1-2.838-1.069,3.8,3.8,0,0,1-1.095-2.849v-.205a4.787,4.787,0,0,1,.461-2.135,3.386,3.386,0,0,1,1.307-1.45,3.669,3.669,0,0,1,1.93-.509,3.289,3.289,0,0,1,2.56,1.025,4.167,4.167,0,0,1,.934,2.908v.864H19.909a1.966,1.966,0,0,0,.619,1.245,1.871,1.871,0,0,0,1.307.469,2.285,2.285,0,0,0,1.912-.886l1.04,1.165A3.178,3.178,0,0,1,23.5,37.769,4.229,4.229,0,0,1,21.7,38.146Zm-.242-6.511a1.323,1.323,0,0,0-1.022.427,2.209,2.209,0,0,0-.5,1.221h2.944v-.169a1.576,1.576,0,0,0-.381-1.092A1.365,1.365,0,0,0,21.454,31.635Zm8.994,4.175a.682.682,0,0,0-.385-.612,4.368,4.368,0,0,0-1.234-.4Q26,34.206,26,32.4a2.178,2.178,0,0,1,.875-1.761,3.531,3.531,0,0,1,2.289-.707,3.8,3.8,0,0,1,2.413.71,2.239,2.239,0,0,1,.9,1.846H30.368a1.024,1.024,0,0,0-.293-.751,1.24,1.24,0,0,0-.916-.3,1.267,1.267,0,0,0-.828.242.763.763,0,0,0-.293.615.652.652,0,0,0,.333.568,3.428,3.428,0,0,0,1.124.374,9.183,9.183,0,0,1,1.333.355,2.19,2.19,0,0,1,1.677,2.131,2.067,2.067,0,0,1-.93,1.754,4.013,4.013,0,0,1-2.4.67,4.191,4.191,0,0,1-1.769-.355,2.968,2.968,0,0,1-1.212-.974,2.263,2.263,0,0,1-.439-1.337H27.76a1.105,1.105,0,0,0,.417.864,1.656,1.656,0,0,0,1.04.3,1.533,1.533,0,0,0,.919-.231A.718.718,0,0,0,30.448,35.81ZM41,34.111a4.753,4.753,0,0,1-.831,2.933,2.665,2.665,0,0,1-2.245,1.1,2.469,2.469,0,0,1-1.941-.835v3.735H33.869V30.075h1.963l.073.776a2.488,2.488,0,0,1,2.007-.923,2.683,2.683,0,0,1,2.278,1.084A4.882,4.882,0,0,1,41,34Zm-2.117-.154a3.119,3.119,0,0,0-.392-1.707,1.276,1.276,0,0,0-1.139-.6,1.386,1.386,0,0,0-1.37.762v3.245a1.41,1.41,0,0,0,1.384.784Q38.886,36.44,38.886,33.957ZM44.548,38H42.424V30.075h2.124ZM42.3,28.024a1.042,1.042,0,0,1,.319-.784,1.373,1.373,0,0,1,1.732,0,1.118,1.118,0,0,1,0,1.575,1.358,1.358,0,0,1-1.721,0A1.039,1.039,0,0,1,42.3,28.024Zm3.662,5.94a4.7,4.7,0,0,1,.454-2.1,3.324,3.324,0,0,1,1.307-1.428,3.814,3.814,0,0,1,1.981-.505,3.609,3.609,0,0,1,2.618.981,3.939,3.939,0,0,1,1.132,2.666l.015.542a4.142,4.142,0,0,1-1.018,2.926,3.946,3.946,0,0,1-5.468,0,4.215,4.215,0,0,1-1.022-2.988Zm2.117.15a2.962,2.962,0,0,0,.425,1.727,1.526,1.526,0,0,0,2.417.007,3.241,3.241,0,0,0,.432-1.889,2.933,2.933,0,0,0-.432-1.716,1.4,1.4,0,0,0-1.216-.609,1.382,1.382,0,0,0-1.2.605A3.3,3.3,0,0,0,48.078,34.115Zm8.643-4.039.066.916a2.767,2.767,0,0,1,2.278-1.062,2.3,2.3,0,0,1,1.875.74,3.451,3.451,0,0,1,.63,2.212V38H59.452V32.932a1.373,1.373,0,0,0-.293-.978,1.312,1.312,0,0,0-.974-.3,1.456,1.456,0,0,0-1.34.762V38H54.728V30.075ZM67.765,38a2.351,2.351,0,0,1-.212-.71,2.561,2.561,0,0,1-2,.857,2.814,2.814,0,0,1-1.93-.674,2.167,2.167,0,0,1-.765-1.7,2.24,2.24,0,0,1,.934-1.934,4.608,4.608,0,0,1,2.7-.681h.974V32.7a1.306,1.306,0,0,0-.282-.879,1.109,1.109,0,0,0-.89-.33,1.261,1.261,0,0,0-.839.256.871.871,0,0,0-.3.7H63.034a2.126,2.126,0,0,1,.425-1.274,2.808,2.808,0,0,1,1.2-.919,4.378,4.378,0,0,1,1.743-.333,3.459,3.459,0,0,1,2.325.736,2.575,2.575,0,0,1,.861,2.069v3.435a3.789,3.789,0,0,0,.315,1.707V38Zm-1.75-1.472a1.823,1.823,0,0,0,.864-.209,1.371,1.371,0,0,0,.586-.56V34.4h-.791q-1.589,0-1.692,1.1l-.007.125a.847.847,0,0,0,.278.652A1.081,1.081,0,0,0,66.015,36.528Zm7.441-6.453v8.357a2.835,2.835,0,0,1-.7,2.04,2.645,2.645,0,0,1-2.007.729,4.3,4.3,0,0,1-1.047-.125V39.4a3.973,3.973,0,0,0,.667.066q.959,0,.959-1.018V30.075Zm-2.292-2.051a1.042,1.042,0,0,1,.319-.784,1.378,1.378,0,0,1,1.736,0,1.123,1.123,0,0,1-.007,1.575,1.358,1.358,0,0,1-1.721,0A1.039,1.039,0,0,1,71.164,28.024Zm7.6,10.122a3.89,3.89,0,0,1-2.838-1.069,3.8,3.8,0,0,1-1.095-2.849v-.205a4.787,4.787,0,0,1,.461-2.135,3.386,3.386,0,0,1,1.307-1.45,3.669,3.669,0,0,1,1.93-.509,3.289,3.289,0,0,1,2.56,1.025,4.167,4.167,0,0,1,.934,2.908v.864H76.972a1.966,1.966,0,0,0,.619,1.245,1.871,1.871,0,0,0,1.307.469,2.285,2.285,0,0,0,1.912-.886l1.04,1.165a3.178,3.178,0,0,1-1.289,1.051A4.229,4.229,0,0,1,78.759,38.146Zm-.242-6.511a1.323,1.323,0,0,0-1.022.427,2.209,2.209,0,0,0-.5,1.221h2.944v-.169a1.576,1.576,0,0,0-.381-1.092A1.365,1.365,0,0,0,78.517,31.635Zm4.812,5.325a1.066,1.066,0,0,1,.341-.82,1.323,1.323,0,0,1,1.714,0,1.066,1.066,0,0,1,.341.82,1.051,1.051,0,0,1-.337.809,1.345,1.345,0,0,1-1.721,0A1.051,1.051,0,0,1,83.329,36.96Z" transform="translate(423.649 509.126) rotate(90)" fill="#12263f"/>
      <path id="Trazado_911693" data-name="Trazado 911693" d="M35.29,16h-2.2L28.815,8.983V16h-2.2V5.336h2.2L33.1,12.367V5.336h2.19Zm1.45-4.036a4.7,4.7,0,0,1,.454-2.1A3.324,3.324,0,0,1,38.5,8.434a3.814,3.814,0,0,1,1.981-.505A3.609,3.609,0,0,1,43.1,8.91a3.939,3.939,0,0,1,1.132,2.666l.015.542a4.142,4.142,0,0,1-1.018,2.926,3.946,3.946,0,0,1-5.468,0A4.215,4.215,0,0,1,36.74,12.06Zm2.117.15a2.962,2.962,0,0,0,.425,1.727,1.526,1.526,0,0,0,2.417.007,3.241,3.241,0,0,0,.432-1.889,2.933,2.933,0,0,0-.432-1.716,1.4,1.4,0,0,0-1.216-.609,1.382,1.382,0,0,0-1.2.605A3.3,3.3,0,0,0,38.856,12.115Zm14.077,4.032A3.89,3.89,0,0,1,50.1,15.077,3.8,3.8,0,0,1,49,12.228v-.205a4.787,4.787,0,0,1,.461-2.135,3.386,3.386,0,0,1,1.307-1.45,3.669,3.669,0,0,1,1.93-.509,3.289,3.289,0,0,1,2.56,1.025,4.167,4.167,0,0,1,.934,2.908v.864H51.147a1.966,1.966,0,0,0,.619,1.245,1.871,1.871,0,0,0,1.307.469,2.285,2.285,0,0,0,1.912-.886l1.04,1.165a3.178,3.178,0,0,1-1.289,1.051A4.229,4.229,0,0,1,52.934,16.146Zm-.242-6.511a1.323,1.323,0,0,0-1.022.427,2.209,2.209,0,0,0-.5,1.221h2.944v-.169a1.576,1.576,0,0,0-.381-1.092A1.365,1.365,0,0,0,52.692,9.635Zm8.994,4.175A.682.682,0,0,0,61.3,13.2a4.368,4.368,0,0,0-1.234-.4q-2.827-.593-2.827-2.4a2.178,2.178,0,0,1,.875-1.761A3.531,3.531,0,0,1,60.4,7.929a3.8,3.8,0,0,1,2.413.71,2.239,2.239,0,0,1,.9,1.846H61.606a1.024,1.024,0,0,0-.293-.751,1.24,1.24,0,0,0-.916-.3,1.267,1.267,0,0,0-.828.242.763.763,0,0,0-.293.615.652.652,0,0,0,.333.568,3.428,3.428,0,0,0,1.124.374,9.183,9.183,0,0,1,1.333.355,2.19,2.19,0,0,1,1.677,2.131,2.067,2.067,0,0,1-.93,1.754,4.013,4.013,0,0,1-2.4.67,4.191,4.191,0,0,1-1.769-.355,2.968,2.968,0,0,1-1.212-.974,2.263,2.263,0,0,1-.439-1.337H59a1.105,1.105,0,0,0,.417.864,1.656,1.656,0,0,0,1.04.3,1.533,1.533,0,0,0,.919-.231A.718.718,0,0,0,61.686,13.81Zm11.9,1.384a2.654,2.654,0,0,1-2.168.952,2.5,2.5,0,0,1-1.945-.732,3.127,3.127,0,0,1-.685-2.146V8.075h2.117V13.2q0,1.239,1.128,1.239a1.528,1.528,0,0,0,1.479-.748V8.075h2.124V16H73.647Zm5.6-7.119.066.916a2.767,2.767,0,0,1,2.278-1.062,2.3,2.3,0,0,1,1.875.74,3.451,3.451,0,0,1,.63,2.212V16H81.916V10.932a1.373,1.373,0,0,0-.293-.978,1.312,1.312,0,0,0-.974-.3,1.456,1.456,0,0,0-1.34.762V16H77.191V8.075ZM36.062,34.111a4.753,4.753,0,0,1-.831,2.933,2.665,2.665,0,0,1-2.245,1.1,2.469,2.469,0,0,1-1.941-.835v3.735H28.929V30.075h1.963l.073.776a2.488,2.488,0,0,1,2.007-.923,2.683,2.683,0,0,1,2.278,1.084A4.882,4.882,0,0,1,36.062,34Zm-2.117-.154a3.119,3.119,0,0,0-.392-1.707,1.276,1.276,0,0,0-1.139-.6,1.386,1.386,0,0,0-1.37.762v3.245a1.41,1.41,0,0,0,1.384.784Q33.946,36.44,33.946,33.957Zm7.881-1.9A5.75,5.75,0,0,0,41.065,32a1.55,1.55,0,0,0-1.575.813V38H37.373V30.075h2l.059.945A1.961,1.961,0,0,1,41.2,29.929a2.218,2.218,0,0,1,.659.1Zm.425,1.9a4.7,4.7,0,0,1,.454-2.1,3.324,3.324,0,0,1,1.307-1.428,3.814,3.814,0,0,1,1.981-.505,3.609,3.609,0,0,1,2.618.981,3.939,3.939,0,0,1,1.132,2.666l.015.542a4.142,4.142,0,0,1-1.018,2.926,3.946,3.946,0,0,1-5.468,0,4.215,4.215,0,0,1-1.022-2.988Zm2.117.15a2.962,2.962,0,0,0,.425,1.727,1.526,1.526,0,0,0,2.417.007,3.241,3.241,0,0,0,.432-1.889,2.933,2.933,0,0,0-.432-1.716,1.4,1.4,0,0,0-1.216-.609,1.382,1.382,0,0,0-1.2.605A3.3,3.3,0,0,0,44.368,34.115Zm9.99,2.325a1.388,1.388,0,0,0,.952-.322,1.129,1.129,0,0,0,.381-.857h1.985a2.715,2.715,0,0,1-.439,1.476,2.9,2.9,0,0,1-1.183,1.04,3.7,3.7,0,0,1-1.659.37,3.44,3.44,0,0,1-2.681-1.08,4.275,4.275,0,0,1-.981-2.985v-.139a4.226,4.226,0,0,1,.974-2.922,3.4,3.4,0,0,1,2.673-1.091,3.333,3.333,0,0,1,2.384.846,3,3,0,0,1,.912,2.252H55.691a1.455,1.455,0,0,0-.381-1.005,1.416,1.416,0,0,0-2.084.153,3.125,3.125,0,0,0-.377,1.749v.22a3.164,3.164,0,0,0,.374,1.761A1.291,1.291,0,0,0,54.358,36.44Zm8.174,1.707a3.89,3.89,0,0,1-2.838-1.069A3.8,3.8,0,0,1,58.6,34.228v-.205a4.787,4.787,0,0,1,.461-2.135,3.386,3.386,0,0,1,1.307-1.45,3.669,3.669,0,0,1,1.93-.509,3.289,3.289,0,0,1,2.56,1.025,4.167,4.167,0,0,1,.934,2.908v.864H60.745a1.966,1.966,0,0,0,.619,1.245,1.871,1.871,0,0,0,1.307.469,2.285,2.285,0,0,0,1.912-.886l1.04,1.165a3.178,3.178,0,0,1-1.289,1.051A4.229,4.229,0,0,1,62.532,38.146Zm-.242-6.511a1.323,1.323,0,0,0-1.022.427,2.209,2.209,0,0,0-.5,1.221h2.944v-.169a1.576,1.576,0,0,0-.381-1.092A1.365,1.365,0,0,0,62.29,31.635Zm8.994,4.175A.682.682,0,0,0,70.9,35.2a4.368,4.368,0,0,0-1.234-.4q-2.827-.593-2.827-2.4a2.178,2.178,0,0,1,.875-1.761A3.531,3.531,0,0,1,70,29.929a3.8,3.8,0,0,1,2.413.71,2.239,2.239,0,0,1,.9,1.846H71.2a1.024,1.024,0,0,0-.293-.751,1.24,1.24,0,0,0-.916-.3,1.267,1.267,0,0,0-.828.242.763.763,0,0,0-.293.615.652.652,0,0,0,.333.568,3.428,3.428,0,0,0,1.124.374,9.183,9.183,0,0,1,1.333.355,2.19,2.19,0,0,1,1.677,2.131,2.067,2.067,0,0,1-.93,1.754,4.013,4.013,0,0,1-2.4.67,4.191,4.191,0,0,1-1.769-.355,2.968,2.968,0,0,1-1.212-.974,2.263,2.263,0,0,1-.439-1.337H68.6a1.105,1.105,0,0,0,.417.864,1.656,1.656,0,0,0,1.04.3,1.533,1.533,0,0,0,.919-.231A.718.718,0,0,0,71.284,35.81Zm3.091-1.846a4.7,4.7,0,0,1,.454-2.1,3.324,3.324,0,0,1,1.307-1.428,3.814,3.814,0,0,1,1.981-.505,3.609,3.609,0,0,1,2.618.981,3.939,3.939,0,0,1,1.132,2.666l.015.542a4.142,4.142,0,0,1-1.018,2.926,3.946,3.946,0,0,1-5.468,0,4.215,4.215,0,0,1-1.022-2.988Zm2.117.15a2.962,2.962,0,0,0,.425,1.727,1.526,1.526,0,0,0,2.417.007,3.241,3.241,0,0,0,.432-1.889,2.933,2.933,0,0,0-.432-1.716,1.4,1.4,0,0,0-1.216-.609,1.382,1.382,0,0,0-1.2.605A3.3,3.3,0,0,0,76.492,34.115Zm-40.84,22a4.753,4.753,0,0,1-.831,2.933,2.665,2.665,0,0,1-2.245,1.1,2.469,2.469,0,0,1-1.941-.835v3.735H28.518V52.075h1.963l.073.776a2.488,2.488,0,0,1,2.007-.923,2.683,2.683,0,0,1,2.278,1.084A4.882,4.882,0,0,1,35.652,56Zm-2.117-.154a3.119,3.119,0,0,0-.392-1.707A1.276,1.276,0,0,0,32,53.65a1.386,1.386,0,0,0-1.37.762v3.245a1.41,1.41,0,0,0,1.384.784Q33.535,58.44,33.535,55.957Zm8.174,3.237a2.654,2.654,0,0,1-2.168.952,2.5,2.5,0,0,1-1.945-.732,3.127,3.127,0,0,1-.685-2.146V52.075h2.117V57.2q0,1.239,1.128,1.239a1.528,1.528,0,0,0,1.479-.748V52.075H43.76V60H41.768Zm5.6-7.119.066.916a2.767,2.767,0,0,1,2.278-1.062,2.3,2.3,0,0,1,1.875.74,3.451,3.451,0,0,1,.63,2.212V60H50.037V54.932a1.373,1.373,0,0,0-.293-.978,1.312,1.312,0,0,0-.974-.3,1.456,1.456,0,0,0-1.34.762V60H45.313V52.075Zm8.987-1.948v1.948h1.355v1.553H56.292v3.955a.944.944,0,0,0,.168.63.846.846,0,0,0,.645.19,3.376,3.376,0,0,0,.623-.051v1.6a4.358,4.358,0,0,1-1.282.19A2.021,2.021,0,0,1,54.175,57.9v-4.27H53.018V52.075h1.157V50.127Zm7.28,9.067a2.654,2.654,0,0,1-2.168.952,2.5,2.5,0,0,1-1.945-.732,3.127,3.127,0,0,1-.685-2.146V52.075h2.117V57.2q0,1.239,1.128,1.239a1.528,1.528,0,0,0,1.479-.748V52.075h2.124V60H63.631Zm8.24.806a2.351,2.351,0,0,1-.212-.71,2.561,2.561,0,0,1-2,.857,2.814,2.814,0,0,1-1.93-.674,2.167,2.167,0,0,1-.765-1.7,2.24,2.24,0,0,1,.934-1.934,4.608,4.608,0,0,1,2.7-.681h.974V54.7a1.306,1.306,0,0,0-.282-.879,1.109,1.109,0,0,0-.89-.33,1.261,1.261,0,0,0-.839.256.871.871,0,0,0-.3.7H67.08a2.126,2.126,0,0,1,.425-1.274,2.808,2.808,0,0,1,1.2-.919,4.378,4.378,0,0,1,1.743-.333,3.459,3.459,0,0,1,2.325.736,2.575,2.575,0,0,1,.861,2.069v3.435a3.789,3.789,0,0,0,.315,1.707V60Zm-1.75-1.472a1.823,1.823,0,0,0,.864-.209,1.371,1.371,0,0,0,.586-.56V56.4h-.791q-1.589,0-1.692,1.1l-.007.125a.847.847,0,0,0,.278.652A1.081,1.081,0,0,0,70.061,58.528ZM77.5,60H75.371V48.75H77.5Zm1.853-1.04a1.066,1.066,0,0,1,.341-.82,1.323,1.323,0,0,1,1.714,0,1.066,1.066,0,0,1,.341.82,1.051,1.051,0,0,1-.337.809,1.345,1.345,0,0,1-1.721,0A1.051,1.051,0,0,1,79.348,58.96Z" transform="translate(555.146 278.88) rotate(90)" fill="#12263f"/>
      <g transform="matrix(0, 1, -1, 0, 622.39, 0)" filter="url(#Elipse_4878)">
        <ellipse id="Elipse_4878-2" data-name="Elipse 4878" cx="138.329" cy="137.767" rx="138.329" ry="137.767" transform="translate(203.34 506.55) rotate(-90)" fill="#fff"/>
      </g>
      <path id="Trazado_911691" data-name="Trazado 911691" d="M26.191,16h-2.2L19.717,8.983V16h-2.2V5.336h2.2L24,12.367V5.336h2.19Zm1.45-4.036a4.7,4.7,0,0,1,.454-2.1A3.324,3.324,0,0,1,29.4,8.434a3.814,3.814,0,0,1,1.981-.505A3.609,3.609,0,0,1,34,8.91a3.939,3.939,0,0,1,1.132,2.666l.015.542a4.142,4.142,0,0,1-1.018,2.926,3.539,3.539,0,0,1-2.732,1.1,3.556,3.556,0,0,1-2.736-1.1,4.215,4.215,0,0,1-1.022-2.988Zm2.117.15a2.962,2.962,0,0,0,.425,1.727,1.526,1.526,0,0,0,2.417.007,3.241,3.241,0,0,0,.432-1.889,2.933,2.933,0,0,0-.432-1.716,1.4,1.4,0,0,0-1.216-.609,1.382,1.382,0,0,0-1.2.605A3.3,3.3,0,0,0,29.758,12.115Zm14.077,4.032A3.89,3.89,0,0,1,41,15.077,3.8,3.8,0,0,1,39.9,12.228v-.205a4.787,4.787,0,0,1,.461-2.135,3.386,3.386,0,0,1,1.307-1.45,3.669,3.669,0,0,1,1.93-.509,3.289,3.289,0,0,1,2.56,1.025,4.167,4.167,0,0,1,.934,2.908v.864H42.048a1.966,1.966,0,0,0,.619,1.245,1.871,1.871,0,0,0,1.307.469,2.285,2.285,0,0,0,1.912-.886l1.04,1.165a3.178,3.178,0,0,1-1.289,1.051A4.229,4.229,0,0,1,43.835,16.146Zm-.242-6.511a1.323,1.323,0,0,0-1.022.427,2.209,2.209,0,0,0-.5,1.221h2.944v-.169a1.576,1.576,0,0,0-.381-1.092A1.365,1.365,0,0,0,43.594,9.635Zm8.994,4.175A.682.682,0,0,0,52.2,13.2a4.368,4.368,0,0,0-1.234-.4q-2.827-.593-2.827-2.4a2.178,2.178,0,0,1,.875-1.761,3.531,3.531,0,0,1,2.289-.707,3.8,3.8,0,0,1,2.413.71,2.239,2.239,0,0,1,.9,1.846H52.507a1.024,1.024,0,0,0-.293-.751,1.24,1.24,0,0,0-.916-.3,1.267,1.267,0,0,0-.828.242.763.763,0,0,0-.293.615.652.652,0,0,0,.333.568,3.428,3.428,0,0,0,1.124.374,9.183,9.183,0,0,1,1.333.355,2.19,2.19,0,0,1,1.677,2.131,2.067,2.067,0,0,1-.93,1.754,4.013,4.013,0,0,1-2.4.67,4.191,4.191,0,0,1-1.769-.355,2.968,2.968,0,0,1-1.212-.974,2.263,2.263,0,0,1-.439-1.337H49.9a1.105,1.105,0,0,0,.417.864,1.656,1.656,0,0,0,1.04.3,1.533,1.533,0,0,0,.919-.231A.718.718,0,0,0,52.588,13.81Zm11.448,0a.682.682,0,0,0-.385-.612,4.368,4.368,0,0,0-1.234-.4q-2.827-.593-2.827-2.4a2.178,2.178,0,0,1,.875-1.761,3.531,3.531,0,0,1,2.289-.707,3.8,3.8,0,0,1,2.413.71,2.239,2.239,0,0,1,.9,1.846H63.955a1.024,1.024,0,0,0-.293-.751,1.24,1.24,0,0,0-.916-.3,1.267,1.267,0,0,0-.828.242.763.763,0,0,0-.293.615.652.652,0,0,0,.333.568,3.428,3.428,0,0,0,1.124.374,9.183,9.183,0,0,1,1.333.355,2.19,2.19,0,0,1,1.677,2.131,2.067,2.067,0,0,1-.93,1.754,4.013,4.013,0,0,1-2.4.67,4.191,4.191,0,0,1-1.769-.355,2.968,2.968,0,0,1-1.212-.974,2.263,2.263,0,0,1-.439-1.337h2.007a1.105,1.105,0,0,0,.417.864,1.656,1.656,0,0,0,1.04.3,1.533,1.533,0,0,0,.919-.231A.718.718,0,0,0,64.036,13.81Zm3.091-1.846a4.7,4.7,0,0,1,.454-2.1,3.324,3.324,0,0,1,1.307-1.428,3.814,3.814,0,0,1,1.981-.505,3.609,3.609,0,0,1,2.618.981,3.939,3.939,0,0,1,1.132,2.666l.015.542a4.142,4.142,0,0,1-1.018,2.926,3.946,3.946,0,0,1-5.468,0,4.215,4.215,0,0,1-1.022-2.988Zm2.117.15a2.962,2.962,0,0,0,.425,1.727,1.526,1.526,0,0,0,2.417.007,3.241,3.241,0,0,0,.432-1.889,2.933,2.933,0,0,0-.432-1.716,1.4,1.4,0,0,0-1.216-.609,1.382,1.382,0,0,0-1.2.605A3.3,3.3,0,0,0,69.243,12.115ZM78.171,16H76.047V4.75h2.124Zm1.414-4.036a4.7,4.7,0,0,1,.454-2.1,3.324,3.324,0,0,1,1.307-1.428,3.814,3.814,0,0,1,1.981-.505,3.609,3.609,0,0,1,2.618.981,3.939,3.939,0,0,1,1.132,2.666l.015.542a4.142,4.142,0,0,1-1.018,2.926,3.946,3.946,0,0,1-5.468,0,4.215,4.215,0,0,1-1.022-2.988Zm2.117.15a2.962,2.962,0,0,0,.425,1.727,1.526,1.526,0,0,0,2.417.007,3.241,3.241,0,0,0,.432-1.889,2.933,2.933,0,0,0-.432-1.716,1.4,1.4,0,0,0-1.216-.609,1.382,1.382,0,0,0-1.2.605A3.3,3.3,0,0,0,81.7,12.115Zm15.176,3.08a2.654,2.654,0,0,1-2.168.952,2.5,2.5,0,0,1-1.945-.732,3.127,3.127,0,0,1-.685-2.146V8.075H94.2V13.2q0,1.239,1.128,1.239a1.528,1.528,0,0,0,1.479-.748V8.075h2.124V16H96.936Zm5.6-7.119.066.916a2.767,2.767,0,0,1,2.278-1.062,2.3,2.3,0,0,1,1.875.74,3.451,3.451,0,0,1,.63,2.212V16h-2.117V10.932a1.373,1.373,0,0,0-.293-.978,1.312,1.312,0,0,0-.974-.3,1.456,1.456,0,0,0-1.34.762V16h-2.117V8.075ZM23.679,38.146a3.89,3.89,0,0,1-2.838-1.069,3.8,3.8,0,0,1-1.095-2.849v-.205a4.787,4.787,0,0,1,.461-2.135,3.386,3.386,0,0,1,1.307-1.45,3.669,3.669,0,0,1,1.93-.509A3.289,3.289,0,0,1,26,30.954a4.167,4.167,0,0,1,.934,2.908v.864H21.892a1.966,1.966,0,0,0,.619,1.245,1.871,1.871,0,0,0,1.307.469,2.285,2.285,0,0,0,1.912-.886l1.04,1.165a3.178,3.178,0,0,1-1.289,1.051A4.229,4.229,0,0,1,23.679,38.146Zm-.242-6.511a1.323,1.323,0,0,0-1.022.427,2.209,2.209,0,0,0-.5,1.221h2.944v-.169a1.576,1.576,0,0,0-.381-1.092A1.365,1.365,0,0,0,23.437,31.635Zm8.994,4.175a.682.682,0,0,0-.385-.612,4.368,4.368,0,0,0-1.234-.4q-2.827-.593-2.827-2.4a2.178,2.178,0,0,1,.875-1.761,3.531,3.531,0,0,1,2.289-.707,3.8,3.8,0,0,1,2.413.71,2.239,2.239,0,0,1,.9,1.846H32.351a1.024,1.024,0,0,0-.293-.751,1.24,1.24,0,0,0-.916-.3,1.267,1.267,0,0,0-.828.242.763.763,0,0,0-.293.615.652.652,0,0,0,.333.568,3.428,3.428,0,0,0,1.124.374,9.183,9.183,0,0,1,1.333.355,2.19,2.19,0,0,1,1.677,2.131,2.067,2.067,0,0,1-.93,1.754,4.013,4.013,0,0,1-2.4.67,4.191,4.191,0,0,1-1.769-.355,2.968,2.968,0,0,1-1.212-.974,2.263,2.263,0,0,1-.439-1.337h2.007a1.105,1.105,0,0,0,.417.864,1.656,1.656,0,0,0,1.04.3,1.533,1.533,0,0,0,.919-.231A.718.718,0,0,0,32.432,35.81Zm5.955-7.683v1.948h1.355v1.553H38.386v3.955a.944.944,0,0,0,.168.63.846.846,0,0,0,.645.19,3.376,3.376,0,0,0,.623-.051v1.6a4.358,4.358,0,0,1-1.282.19A2.021,2.021,0,0,1,36.269,35.9v-4.27H35.112V30.075h1.157V28.127Zm7.28,9.067a2.654,2.654,0,0,1-2.168.952,2.5,2.5,0,0,1-1.945-.732,3.127,3.127,0,0,1-.685-2.146V30.075h2.117V35.2q0,1.239,1.128,1.239a1.528,1.528,0,0,0,1.479-.748V30.075h2.124V38H45.725Zm3.318-3.215a4.776,4.776,0,0,1,.831-2.952,2.7,2.7,0,0,1,2.274-1.1A2.427,2.427,0,0,1,54,30.793V26.75h2.124V38H54.214l-.1-.842a2.491,2.491,0,0,1-2.036.989,2.69,2.69,0,0,1-2.245-1.1A4.93,4.93,0,0,1,48.984,33.979Zm2.117.158a3.128,3.128,0,0,0,.388,1.709,1.265,1.265,0,0,0,1.128.594A1.416,1.416,0,0,0,54,35.611V32.479a1.4,1.4,0,0,0-1.37-.829Q51.1,31.65,51.1,34.137ZM60,38H57.876V30.075H60Zm-2.249-9.976a1.042,1.042,0,0,1,.319-.784,1.373,1.373,0,0,1,1.732,0,1.118,1.118,0,0,1,0,1.575,1.358,1.358,0,0,1-1.721,0A1.039,1.039,0,0,1,57.751,28.024Zm3.662,5.94a4.7,4.7,0,0,1,.454-2.1,3.324,3.324,0,0,1,1.307-1.428,3.814,3.814,0,0,1,1.981-.505,3.609,3.609,0,0,1,2.618.981,3.939,3.939,0,0,1,1.132,2.666l.015.542A4.142,4.142,0,0,1,67.9,37.044a3.946,3.946,0,0,1-5.468,0,4.215,4.215,0,0,1-1.022-2.988Zm2.117.15a2.962,2.962,0,0,0,.425,1.727,1.526,1.526,0,0,0,2.417.007,3.241,3.241,0,0,0,.432-1.889,2.933,2.933,0,0,0-.432-1.716,1.4,1.4,0,0,0-1.216-.609,1.382,1.382,0,0,0-1.2.605A3.3,3.3,0,0,0,63.53,34.115Zm10.1-.136a4.776,4.776,0,0,1,.831-2.952,2.7,2.7,0,0,1,2.274-1.1,2.427,2.427,0,0,1,1.912.864V26.75h2.124V38H78.86l-.1-.842a2.491,2.491,0,0,1-2.036.989,2.69,2.69,0,0,1-2.245-1.1A4.93,4.93,0,0,1,73.63,33.979Zm2.117.158a3.128,3.128,0,0,0,.388,1.709,1.265,1.265,0,0,0,1.128.594,1.416,1.416,0,0,0,1.384-.829V32.479a1.4,1.4,0,0,0-1.37-.829Q75.747,31.65,75.747,34.137Zm10.313,4.01a3.89,3.89,0,0,1-2.838-1.069,3.8,3.8,0,0,1-1.095-2.849v-.205a4.787,4.787,0,0,1,.461-2.135,3.386,3.386,0,0,1,1.307-1.45,3.669,3.669,0,0,1,1.93-.509,3.289,3.289,0,0,1,2.56,1.025,4.167,4.167,0,0,1,.934,2.908v.864H84.272a1.966,1.966,0,0,0,.619,1.245,1.871,1.871,0,0,0,1.307.469,2.285,2.285,0,0,0,1.912-.886l1.04,1.165a3.178,3.178,0,0,1-1.289,1.051A4.229,4.229,0,0,1,86.06,38.146Zm-.242-6.511a1.323,1.323,0,0,0-1.022.427,2.209,2.209,0,0,0-.5,1.221h2.944v-.169a1.576,1.576,0,0,0-.381-1.092A1.365,1.365,0,0,0,85.818,31.635ZM96.489,38H94.365V26.75h2.124Zm6.335,0a2.351,2.351,0,0,1-.212-.71,2.561,2.561,0,0,1-2,.857,2.814,2.814,0,0,1-1.93-.674,2.167,2.167,0,0,1-.765-1.7,2.24,2.24,0,0,1,.934-1.934,4.608,4.608,0,0,1,2.7-.681h.974V32.7a1.306,1.306,0,0,0-.282-.879,1.109,1.109,0,0,0-.89-.33,1.261,1.261,0,0,0-.839.256.871.871,0,0,0-.3.7H98.093a2.126,2.126,0,0,1,.425-1.274,2.808,2.808,0,0,1,1.2-.919,4.378,4.378,0,0,1,1.743-.333,3.459,3.459,0,0,1,2.325.736,2.575,2.575,0,0,1,.861,2.069v3.435a3.789,3.789,0,0,0,.315,1.707V38Zm-1.75-1.472a1.823,1.823,0,0,0,.864-.209,1.371,1.371,0,0,0,.586-.56V34.4h-.791q-1.589,0-1.692,1.1l-.007.125a.847.847,0,0,0,.278.652A1.081,1.081,0,0,0,101.074,36.528ZM20.64,58.44a1.388,1.388,0,0,0,.952-.322,1.129,1.129,0,0,0,.381-.857h1.985a2.715,2.715,0,0,1-.439,1.476,2.9,2.9,0,0,1-1.183,1.04,3.7,3.7,0,0,1-1.659.37A3.44,3.44,0,0,1,18,59.066a4.275,4.275,0,0,1-.981-2.985v-.139a4.226,4.226,0,0,1,.974-2.922,3.4,3.4,0,0,1,2.673-1.091,3.333,3.333,0,0,1,2.384.846,3,3,0,0,1,.912,2.252H21.973a1.455,1.455,0,0,0-.381-1.005,1.416,1.416,0,0,0-2.084.153,3.125,3.125,0,0,0-.377,1.749v.22A3.164,3.164,0,0,0,19.5,57.9,1.291,1.291,0,0,0,20.64,58.44Zm4.2-2.476a4.7,4.7,0,0,1,.454-2.1A3.324,3.324,0,0,1,26.6,52.434a3.814,3.814,0,0,1,1.981-.505,3.609,3.609,0,0,1,2.618.981,3.939,3.939,0,0,1,1.132,2.666l.015.542a4.142,4.142,0,0,1-1.018,2.926,3.539,3.539,0,0,1-2.732,1.1,3.556,3.556,0,0,1-2.736-1.1,4.215,4.215,0,0,1-1.022-2.988Zm2.117.15a2.962,2.962,0,0,0,.425,1.727,1.526,1.526,0,0,0,2.417.007,3.241,3.241,0,0,0,.432-1.889,2.933,2.933,0,0,0-.432-1.716,1.4,1.4,0,0,0-1.216-.609,1.382,1.382,0,0,0-1.2.605A3.3,3.3,0,0,0,26.953,56.115Zm8.679-4.039.066.886a2.785,2.785,0,0,1,2.278-1.033,2.114,2.114,0,0,1,2.1,1.208,2.721,2.721,0,0,1,2.38-1.208,2.364,2.364,0,0,1,1.919.751,3.451,3.451,0,0,1,.63,2.26V60H42.883V54.946a1.509,1.509,0,0,0-.264-.985,1.169,1.169,0,0,0-.93-.311,1.321,1.321,0,0,0-1.318.908L40.378,60H38.262V54.954a1.491,1.491,0,0,0-.271-1,1.18,1.18,0,0,0-.923-.308,1.372,1.372,0,0,0-1.3.747V60H33.647V52.075Zm18.135,4.036a4.753,4.753,0,0,1-.831,2.933,2.665,2.665,0,0,1-2.245,1.1,2.469,2.469,0,0,1-1.941-.835v3.735H46.633V52.075H48.6l.073.776a2.488,2.488,0,0,1,2.007-.923,2.683,2.683,0,0,1,2.278,1.084A4.882,4.882,0,0,1,53.767,56Zm-2.117-.154a3.119,3.119,0,0,0-.392-1.707,1.276,1.276,0,0,0-1.139-.6,1.386,1.386,0,0,0-1.37.762v3.245a1.41,1.41,0,0,0,1.384.784Q51.65,58.44,51.65,55.957Zm7.075,4.189a3.89,3.89,0,0,1-2.838-1.069,3.8,3.8,0,0,1-1.095-2.849v-.205a4.787,4.787,0,0,1,.461-2.135,3.386,3.386,0,0,1,1.307-1.45,3.669,3.669,0,0,1,1.93-.509,3.289,3.289,0,0,1,2.56,1.025,4.167,4.167,0,0,1,.934,2.908v.864H56.938a1.966,1.966,0,0,0,.619,1.245,1.871,1.871,0,0,0,1.307.469,2.285,2.285,0,0,0,1.912-.886l1.04,1.165a3.178,3.178,0,0,1-1.289,1.051A4.229,4.229,0,0,1,58.726,60.146Zm-.242-6.511a1.323,1.323,0,0,0-1.022.427,2.209,2.209,0,0,0-.5,1.221H59.9v-.169a1.576,1.576,0,0,0-.381-1.092A1.365,1.365,0,0,0,58.484,53.635Zm7.236-3.508v1.948h1.355v1.553H65.72v3.955a.944.944,0,0,0,.168.63.846.846,0,0,0,.645.19,3.376,3.376,0,0,0,.623-.051v1.6a4.358,4.358,0,0,1-1.282.19A2.021,2.021,0,0,1,63.6,57.9v-4.27H62.446V52.075H63.6V50.127ZM71.9,60.146a3.89,3.89,0,0,1-2.838-1.069,3.8,3.8,0,0,1-1.095-2.849v-.205a4.787,4.787,0,0,1,.461-2.135,3.386,3.386,0,0,1,1.307-1.45,3.669,3.669,0,0,1,1.93-.509,3.289,3.289,0,0,1,2.56,1.025,4.167,4.167,0,0,1,.934,2.908v.864H70.115a1.966,1.966,0,0,0,.619,1.245,1.871,1.871,0,0,0,1.307.469,2.285,2.285,0,0,0,1.912-.886l1.04,1.165A3.178,3.178,0,0,1,73.7,59.769,4.229,4.229,0,0,1,71.9,60.146Zm-.242-6.511a1.323,1.323,0,0,0-1.022.427,2.209,2.209,0,0,0-.5,1.221h2.944v-.169a1.576,1.576,0,0,0-.381-1.092A1.365,1.365,0,0,0,71.66,53.635Zm6.65-1.56.066.916a2.767,2.767,0,0,1,2.278-1.062,2.3,2.3,0,0,1,1.875.74,3.451,3.451,0,0,1,.63,2.212V60H81.042V54.932a1.373,1.373,0,0,0-.293-.978,1.312,1.312,0,0,0-.974-.3,1.456,1.456,0,0,0-1.34.762V60H76.318V52.075Zm9.749,6.365a1.388,1.388,0,0,0,.952-.322,1.129,1.129,0,0,0,.381-.857h1.985a2.715,2.715,0,0,1-.439,1.476,2.9,2.9,0,0,1-1.183,1.04,3.7,3.7,0,0,1-1.659.37,3.44,3.44,0,0,1-2.681-1.08,4.275,4.275,0,0,1-.981-2.985v-.139a4.226,4.226,0,0,1,.974-2.922,3.4,3.4,0,0,1,2.673-1.091,3.333,3.333,0,0,1,2.384.846,3,3,0,0,1,.912,2.252H89.392a1.455,1.455,0,0,0-.381-1.005,1.416,1.416,0,0,0-2.084.153,3.125,3.125,0,0,0-.377,1.749v.22a3.164,3.164,0,0,0,.374,1.761A1.291,1.291,0,0,0,88.059,58.44ZM94.819,60H92.7V52.075h2.124Zm-2.249-9.976a1.042,1.042,0,0,1,.319-.784,1.373,1.373,0,0,1,1.732,0,1.118,1.118,0,0,1,0,1.575,1.358,1.358,0,0,1-1.721,0A1.039,1.039,0,0,1,92.571,50.024ZM101.155,60a2.351,2.351,0,0,1-.212-.71,2.561,2.561,0,0,1-2,.857,2.814,2.814,0,0,1-1.93-.674,2.167,2.167,0,0,1-.765-1.7,2.24,2.24,0,0,1,.934-1.934,4.608,4.608,0,0,1,2.7-.681h.974V54.7a1.306,1.306,0,0,0-.282-.879,1.109,1.109,0,0,0-.89-.33,1.261,1.261,0,0,0-.839.256.871.871,0,0,0-.3.7H96.423a2.126,2.126,0,0,1,.425-1.274,2.808,2.808,0,0,1,1.2-.919,4.378,4.378,0,0,1,1.743-.333,3.459,3.459,0,0,1,2.325.736,2.575,2.575,0,0,1,.861,2.069v3.435a3.789,3.789,0,0,0,.315,1.707V60ZM99.4,58.528a1.823,1.823,0,0,0,.864-.209,1.371,1.371,0,0,0,.586-.56V56.4h-.791q-1.589,0-1.692,1.1l-.007.125a.847.847,0,0,0,.278.652A1.081,1.081,0,0,0,99.4,58.528Zm5.31.432a1.066,1.066,0,0,1,.341-.82,1.323,1.323,0,0,1,1.714,0,1.066,1.066,0,0,1,.341.82,1.051,1.051,0,0,1-.337.809,1.345,1.345,0,0,1-1.721,0A1.051,1.051,0,0,1,104.714,58.96Z" transform="translate(424.495 30.506) rotate(90)" fill="#12263f"/>
      <path id="Trazado_911701" data-name="Trazado 911701" d="M72.921,12.892a7.71,7.71,0,0,1-.58,3.116,5.349,5.349,0,0,1-1.608,2.123L72.86,19.8l-1.679,1.485L68.457,19.1a5.767,5.767,0,0,1-.967.079,5.324,5.324,0,0,1-2.839-.765,5.08,5.08,0,0,1-1.934-2.184,7.5,7.5,0,0,1-.694-3.265v-.633A7.685,7.685,0,0,1,62.7,9,5.072,5.072,0,0,1,64.629,6.8a5.64,5.64,0,0,1,5.687,0A5.072,5.072,0,0,1,72.24,9a7.663,7.663,0,0,1,.681,3.318Zm-2.672-.58a5.385,5.385,0,0,0-.721-3.059,2.546,2.546,0,0,0-4.1-.013,5.324,5.324,0,0,0-.729,3.028v.624a5.453,5.453,0,0,0,.721,3.041,2.524,2.524,0,0,0,4.113.04,5.421,5.421,0,0,0,.721-3.037Zm10.134,5.722a3.185,3.185,0,0,1-2.6,1.143,3,3,0,0,1-2.333-.879,3.752,3.752,0,0,1-.822-2.575V9.49h2.54v6.151q0,1.487,1.354,1.487a1.834,1.834,0,0,0,1.775-.9V9.49h2.549V19H80.454Zm8.754,1.143a4.668,4.668,0,0,1-3.406-1.283,4.561,4.561,0,0,1-1.314-3.419v-.246a5.745,5.745,0,0,1,.554-2.562,4.064,4.064,0,0,1,1.569-1.74,4.4,4.4,0,0,1,2.316-.611,3.947,3.947,0,0,1,3.072,1.23,5,5,0,0,1,1.121,3.489v1.037H86.993a2.36,2.36,0,0,0,.743,1.494,2.245,2.245,0,0,0,1.569.563A2.742,2.742,0,0,0,91.6,16.064l1.248,1.4A3.813,3.813,0,0,1,91.3,18.723,5.075,5.075,0,0,1,89.137,19.176Zm-.29-7.813a1.587,1.587,0,0,0-1.226.512,2.651,2.651,0,0,0-.6,1.466h3.533v-.2a1.891,1.891,0,0,0-.457-1.311A1.638,1.638,0,0,0,88.847,11.362ZM101.31,9.49l.079,1.1a3.32,3.32,0,0,1,2.733-1.274,2.759,2.759,0,0,1,2.25.888,4.142,4.142,0,0,1,.756,2.654V19h-2.54V12.918a1.648,1.648,0,0,0-.352-1.173,1.574,1.574,0,0,0-1.169-.365,1.747,1.747,0,0,0-1.608.914V19H98.92V9.49Zm7.348,4.667a5.64,5.64,0,0,1,.545-2.522,3.989,3.989,0,0,1,1.569-1.714,4.577,4.577,0,0,1,2.377-.606,4.33,4.33,0,0,1,3.142,1.178,4.727,4.727,0,0,1,1.358,3.2l.018.65a4.97,4.97,0,0,1-1.222,3.511,4.735,4.735,0,0,1-6.561,0,5.058,5.058,0,0,1-1.226-3.586Zm2.54.18a3.555,3.555,0,0,0,.51,2.073,1.831,1.831,0,0,0,2.9.009,3.89,3.89,0,0,0,.519-2.267,3.519,3.519,0,0,0-.519-2.06,1.686,1.686,0,0,0-1.459-.731,1.658,1.658,0,0,0-1.441.726A3.955,3.955,0,0,0,111.2,14.338Zm16.893,4.838a4.668,4.668,0,0,1-3.406-1.283,4.561,4.561,0,0,1-1.314-3.419v-.246a5.745,5.745,0,0,1,.554-2.562,4.064,4.064,0,0,1,1.569-1.74,4.4,4.4,0,0,1,2.316-.611,3.947,3.947,0,0,1,3.072,1.23A5,5,0,0,1,132,14.034v1.037h-6.056a2.36,2.36,0,0,0,.743,1.494,2.245,2.245,0,0,0,1.569.563,2.742,2.742,0,0,0,2.294-1.063l1.248,1.4a3.813,3.813,0,0,1-1.547,1.261A5.075,5.075,0,0,1,128.09,19.176Zm-.29-7.813a1.587,1.587,0,0,0-1.226.512,2.651,2.651,0,0,0-.6,1.466h3.533v-.2a1.891,1.891,0,0,0-.457-1.311A1.638,1.638,0,0,0,127.8,11.362Zm10.793,5.01a.818.818,0,0,0-.461-.734,5.241,5.241,0,0,0-1.481-.479q-3.393-.712-3.393-2.883a2.613,2.613,0,0,1,1.05-2.114,4.237,4.237,0,0,1,2.747-.848,4.56,4.56,0,0,1,2.9.853,2.687,2.687,0,0,1,1.085,2.215H138.5a1.229,1.229,0,0,0-.352-.9,1.488,1.488,0,0,0-1.1-.356,1.52,1.52,0,0,0-.993.29.916.916,0,0,0-.352.738.783.783,0,0,0,.4.681,4.114,4.114,0,0,0,1.349.448,11.019,11.019,0,0,1,1.6.426,2.628,2.628,0,0,1,2.013,2.558,2.481,2.481,0,0,1-1.116,2.1,4.815,4.815,0,0,1-2.883.8,5.029,5.029,0,0,1-2.123-.426,3.561,3.561,0,0,1-1.455-1.169,2.716,2.716,0,0,1-.527-1.6h2.408a1.326,1.326,0,0,0,.5,1.037,1.987,1.987,0,0,0,1.248.36,1.839,1.839,0,0,0,1.1-.277A.861.861,0,0,0,138.593,16.372Zm12.964,2.8a4.668,4.668,0,0,1-3.406-1.283,4.561,4.561,0,0,1-1.314-3.419v-.246a5.745,5.745,0,0,1,.554-2.562,4.064,4.064,0,0,1,1.569-1.74,4.4,4.4,0,0,1,2.316-.611,3.947,3.947,0,0,1,3.072,1.23,5,5,0,0,1,1.121,3.489v1.037h-6.056a2.36,2.36,0,0,0,.743,1.494,2.245,2.245,0,0,0,1.569.563,2.742,2.742,0,0,0,2.294-1.063l1.248,1.4a3.813,3.813,0,0,1-1.547,1.261A5.075,5.075,0,0,1,151.557,19.176Zm-.29-7.813a1.587,1.587,0,0,0-1.226.512,2.651,2.651,0,0,0-.6,1.466h3.533v-.2a1.891,1.891,0,0,0-.457-1.311A1.638,1.638,0,0,0,151.267,11.362ZM159.59,19h-2.549V5.5h2.549ZM49.274,44,51.5,31.2l3.99.009a5.293,5.293,0,0,1,3.34.905,2.8,2.8,0,0,1,1.011,2.522A3.223,3.223,0,0,1,57.6,37.479a2.15,2.15,0,0,1,1.187.989,2.959,2.959,0,0,1,.36,1.709,3.7,3.7,0,0,1-1.419,2.817A5.629,5.629,0,0,1,54.188,44Zm3.551-5.572-.606,3.454,2.03.009a2.618,2.618,0,0,0,1.591-.47,1.866,1.866,0,0,0,.765-1.27,1.577,1.577,0,0,0-.215-1.235,1.427,1.427,0,0,0-1.138-.479Zm.316-1.863,1.749.018a2.785,2.785,0,0,0,1.6-.457,1.772,1.772,0,0,0,.743-1.222q.22-1.547-1.626-1.556l-1.9-.009Zm11.725,7.611a4.137,4.137,0,0,1-2.21-.611,3.7,3.7,0,0,1-1.437-1.652A4.605,4.605,0,0,1,60.85,39.6l.026-.352a6.148,6.148,0,0,1,.809-2.549,4.884,4.884,0,0,1,1.74-1.789,4.306,4.306,0,0,1,2.355-.593,3.29,3.29,0,0,1,2.782,1.351A4.631,4.631,0,0,1,69.278,39l-.141,1.083H63.311a2.041,2.041,0,0,0,.448,1.477,1.711,1.711,0,0,0,1.318.571,3.041,3.041,0,0,0,2.373-1.055l1.134,1.406a3.527,3.527,0,0,1-1.547,1.261A5.059,5.059,0,0,1,64.866,44.176Zm.791-7.813a1.761,1.761,0,0,0-1.217.431,3.784,3.784,0,0,0-.954,1.556H66.9l.053-.229a2.33,2.33,0,0,0,.009-.668,1.276,1.276,0,0,0-.431-.8A1.35,1.35,0,0,0,65.657,36.362ZM73.8,34.481l-.211,1.125a3.422,3.422,0,0,1,2.769-1.292,2.281,2.281,0,0,1,1.986.984,3.966,3.966,0,0,1,.466,2.654L77.8,44H75.325l1.02-6.073a2.844,2.844,0,0,0,.018-.624,1.007,1.007,0,0,0-1.125-.923,2.133,2.133,0,0,0-1.749.905L72.3,44H69.823l1.652-9.51Zm10.116,7.655a1.628,1.628,0,0,0,1.143-.374,1.836,1.836,0,0,0,.6-1.042l2.329-.009a3.416,3.416,0,0,1-.628,1.8,3.818,3.818,0,0,1-1.512,1.248,4.327,4.327,0,0,1-1.991.422,3.514,3.514,0,0,1-2.742-1.2,4.461,4.461,0,0,1-.976-3.111l.026-.483.009-.1a5.945,5.945,0,0,1,1.564-3.678,4.231,4.231,0,0,1,3.278-1.305,3.428,3.428,0,0,1,2.553,1.05,3.71,3.71,0,0,1,.927,2.676H86.18a1.947,1.947,0,0,0-.334-1.2,1.269,1.269,0,0,0-1-.475q-1.775-.053-2.153,2.593a8.755,8.755,0,0,0-.1,1.617Q82.682,42.11,83.912,42.137Zm8.807-6.592a3.314,3.314,0,0,1,2.575-1.23,2.411,2.411,0,0,1,2.079,1.015,3.991,3.991,0,0,1,.5,2.676l-1,5.994H94.389L95.4,37.972a2.921,2.921,0,0,0,.018-.633,1,1,0,0,0-1.107-.977,2.141,2.141,0,0,0-1.758.862L91.357,44H88.878l2.338-13.5H93.7Zm10.037-1.063-.2,1.081a3.5,3.5,0,0,1,2.786-1.248,2.676,2.676,0,0,1,1.459.4,1.889,1.889,0,0,1,.782,1.046,3.662,3.662,0,0,1,2.953-1.45,2.391,2.391,0,0,1,1.973.9,3.68,3.68,0,0,1,.558,2.514l-.018.22L112.037,44H109.55l1.011-6.08a4.4,4.4,0,0,0,.026-.607.942.942,0,0,0-1.055-.95,2.093,2.093,0,0,0-1.749,1.091l-.026.2L106.649,44h-2.479l1.011-6.056a4.386,4.386,0,0,0,.026-.606.94.94,0,0,0-1.046-.958,2.1,2.1,0,0,0-1.7.888L101.279,44H98.8l1.644-9.51ZM119.508,44a2.566,2.566,0,0,1-.1-.861,3.221,3.221,0,0,1-2.426,1.037,2.919,2.919,0,0,1-2.07-.813,2.46,2.46,0,0,1-.769-1.964,2.843,2.843,0,0,1,1.305-2.386,5.924,5.924,0,0,1,3.335-.831l1.16.018.123-.571a1.984,1.984,0,0,0,.026-.554.952.952,0,0,0-.312-.646,1.075,1.075,0,0,0-.708-.242,1.514,1.514,0,0,0-.984.286,1.384,1.384,0,0,0-.519.875l-2.487.009a2.764,2.764,0,0,1,1.252-2.21,4.85,4.85,0,0,1,2.94-.831,3.507,3.507,0,0,1,2.531.962,2.816,2.816,0,0,1,.765,2.386l-.729,4.553-.044.563a2.714,2.714,0,0,0,.149,1.055l-.009.167ZM117.6,42.251a2.27,2.27,0,0,0,1.872-.932l.308-1.644-.861-.009a2.406,2.406,0,0,0-1.978.835,1.454,1.454,0,0,0-.272.712.844.844,0,0,0,.2.751A1,1,0,0,0,117.6,42.251Zm12.366-5.379a5.117,5.117,0,0,0-.835-.088,2.4,2.4,0,0,0-2.1.993L125.933,44h-2.479l1.652-9.51,2.329-.009-.229,1.16a2.615,2.615,0,0,1,2.215-1.345,3.615,3.615,0,0,1,.861.123Zm4.061,3.34-1.151,1L132.393,44h-2.479l2.338-13.5h2.487l-1.283,7.33.483-.519,2.821-2.821h3.182l-4.157,4.087L138.431,44h-2.716ZM141.946,44h-2.5l1.652-9.51h2.5Zm-.554-11.927a1.238,1.238,0,0,1,.387-.976,1.488,1.488,0,0,1,1.951-.044,1.233,1.233,0,0,1,.431.932,1.273,1.273,0,0,1-.365.949,1.367,1.367,0,0,1-1,.422,1.39,1.39,0,0,1-.971-.334A1.227,1.227,0,0,1,141.393,32.073Zm6.574,2.408-.211,1.125a3.422,3.422,0,0,1,2.769-1.292,2.281,2.281,0,0,1,1.986.984,3.966,3.966,0,0,1,.466,2.654l-1,6.047H149.5l1.02-6.073a2.844,2.844,0,0,0,.018-.624,1.007,1.007,0,0,0-1.125-.923,2.133,2.133,0,0,0-1.749.905L146.473,44h-2.479l1.652-9.51Zm6.425,4.755a6.58,6.58,0,0,1,1.437-3.582,3.647,3.647,0,0,1,2.958-1.349,2.667,2.667,0,0,1,2.268,1.1l.325-.923,2.276.009L162.1,43.675a4.481,4.481,0,0,1-1.617,3.006,5.03,5.03,0,0,1-3.375,1.072,4.689,4.689,0,0,1-1.881-.426,4.022,4.022,0,0,1-1.477-1.121l1.23-1.512a2.642,2.642,0,0,0,2.074,1.081,2.436,2.436,0,0,0,1.652-.505,2.7,2.7,0,0,0,.932-1.525l.141-.571a3.092,3.092,0,0,1-2.329,1,2.732,2.732,0,0,1-2.206-1.033,4.44,4.44,0,0,1-.9-2.641A8.876,8.876,0,0,1,154.392,39.236Zm2.435,1.043a2.273,2.273,0,0,0,.347,1.325,1.215,1.215,0,0,0,1.006.524,2.219,2.219,0,0,0,1.793-.863l.738-4.031a1.458,1.458,0,0,0-1.4-.863,1.944,1.944,0,0,0-1.608.766,4.006,4.006,0,0,0-.826,2.1A9.241,9.241,0,0,0,156.826,40.279ZM167,40.08a5.288,5.288,0,0,1,.3-1.962,4.025,4.025,0,0,1,1.094-1.438,5.6,5.6,0,0,0,1.059-1.153,1.81,1.81,0,0,0,.264-.938q0-1.488-1.371-1.488a1.389,1.389,0,0,0-1.042.4,1.575,1.575,0,0,0-.409,1.106h-2.549a3.39,3.39,0,0,1,1.085-2.63,5.013,5.013,0,0,1,5.805-.048,3.208,3.208,0,0,1,1.028,2.547,3.1,3.1,0,0,1-.334,1.412,5.817,5.817,0,0,1-1.169,1.474l-.712.677a2.413,2.413,0,0,0-.765,1.5l-.035.537Zm-.255,2.694a1.279,1.279,0,0,1,.4-.968,1.566,1.566,0,0,1,2.048,0,1.366,1.366,0,0,1,.009,1.923,1.6,1.6,0,0,1-2.065,0A1.269,1.269,0,0,1,166.74,42.774Z" transform="translate(224.482 225.029) rotate(90)" fill="#4a732c"/>
      <g id="Grupo_1115009" data-name="Grupo 1115009" transform="translate(343.953 237.965) rotate(90)">
        <g id="Grupo_1114560" data-name="Grupo 1114560" transform="translate(0 7)" clip-path="url(#clip-path)">
          <g id="Grupo_1114546" data-name="Grupo 1114546">
            <g id="Grupo_1114545" data-name="Grupo 1114545" clip-path="url(#clip-path)">
              <path id="Trazado_911585" data-name="Trazado 911585" d="M399.574,146.117a10.627,10.627,0,0,1,2.59-1.126l.534-2.564,4.332-.076.623,2.544a10.6,10.6,0,0,1,2.629,1.034l2.189-1.435,3.117,3.01-1.357,2.238a10.615,10.615,0,0,1,1.126,2.591l2.563.533L418,157.2l-2.543.623a10.591,10.591,0,0,1-1.034,2.629l1.435,2.189-3.009,3.118-2.238-1.357a10.607,10.607,0,0,1-2.591,1.126l-.534,2.564-4.332.076-.623-2.544a10.629,10.629,0,0,1-2.629-1.034l-2.189,1.435-3.117-3.01,1.357-2.238a10.605,10.605,0,0,1-1.126-2.591l-2.564-.534-.076-4.332,2.544-.624a10.624,10.624,0,0,1,1.034-2.628l-1.435-2.19,3.009-3.117Zm2.309,5.771a4.648,4.648,0,1,0,6.572-.116,4.647,4.647,0,0,0-6.572.116" transform="translate(-214.497 -77.856)" fill="#ebebeb"/>
              <path id="Trazado_911586" data-name="Trazado 911586" d="M90.029,146.172a18.508,18.508,0,0,1,4.515-1.962l.93-4.47,7.552-.132,1.087,4.434a18.493,18.493,0,0,1,4.582,1.8l3.817-2.5,5.434,5.247-2.365,3.9a18.481,18.481,0,0,1,1.962,4.517l4.469.93.133,7.552-4.434,1.087a18.5,18.5,0,0,1-1.8,4.581l2.5,3.817-5.246,5.434-3.9-2.366A18.5,18.5,0,0,1,104.746,180l-.931,4.47-7.551.133-1.087-4.434a18.5,18.5,0,0,1-4.581-1.8l-3.817,2.5-5.434-5.246,2.365-3.9a18.506,18.506,0,0,1-1.962-4.517l-4.47-.93-.133-7.551,4.434-1.087a18.522,18.522,0,0,1,1.8-4.581l-2.5-3.817,5.246-5.434Zm4.026,10.06a8.1,8.1,0,1,0,11.456-.2,8.1,8.1,0,0,0-11.456.2" transform="translate(-42.193 -76.356)" fill="#ebebeb"/>
              <path id="Trazado_911587" data-name="Trazado 911587" d="M202.96,52.386a9.012,9.012,0,0,1,2.2-.955l.453-2.175,3.675-.064.529,2.158a9.006,9.006,0,0,1,2.23.877l1.858-1.217,2.644,2.553-1.151,1.9a9,9,0,0,1,.955,2.2l2.175.453.065,3.674-2.158.529a9.019,9.019,0,0,1-.877,2.23L216.77,66.4l-2.553,2.644-1.9-1.151a9,9,0,0,1-2.2.955l-.453,2.175-3.675.064-.529-2.158a9.008,9.008,0,0,1-2.23-.877l-1.857,1.217-2.644-2.553,1.151-1.9a9,9,0,0,1-.955-2.2l-2.175-.453-.065-3.674,2.158-.529a9,9,0,0,1,.877-2.23l-1.217-1.857,2.553-2.644Zm1.959,4.9a3.943,3.943,0,1,0,5.575-.1,3.943,3.943,0,0,0-5.575.1" transform="translate(-107.576 -26.905)" fill="#f5f5f5"/>
              <path id="Trazado_911588" data-name="Trazado 911588" d="M247.115,72.193a15.787,15.787,0,0,1,3.852-1.674l.794-3.813,6.442-.113.927,3.782a15.768,15.768,0,0,1,3.909,1.538l3.256-2.134,4.634,4.475-2.018,3.328a15.779,15.779,0,0,1,1.674,3.853l3.813.794.113,6.442-3.783.927a15.782,15.782,0,0,1-1.537,3.908l2.133,3.256L266.85,101.4l-3.329-2.018a15.771,15.771,0,0,1-3.852,1.674l-.793,3.813-6.442.113-.927-3.782a15.8,15.8,0,0,1-3.908-1.538l-3.256,2.134-4.635-4.475,2.018-3.328a15.774,15.774,0,0,1-1.674-3.852l-3.813-.793-.113-6.442,3.782-.927a15.8,15.8,0,0,1,1.538-3.908l-2.134-3.256,4.475-4.635Zm3.434,8.582a6.912,6.912,0,1,0,9.773-.172,6.911,6.911,0,0,0-9.773.172" transform="translate(-129.144 -36.422)" fill="#ebebeb"/>
              <path id="Trazado_911589" data-name="Trazado 911589" d="M260.678,2.8a7.889,7.889,0,0,1,1.926-.837L263,.056,266.222,0l.463,1.891a7.9,7.9,0,0,1,1.955.769l1.628-1.067,2.318,2.238-1.009,1.664a7.885,7.885,0,0,1,.837,1.926l1.906.4.057,3.221-1.891.463a7.9,7.9,0,0,1-.769,1.954l1.067,1.628L270.545,17.4l-1.664-1.009a7.894,7.894,0,0,1-1.926.837l-.4,1.907-3.221.057-.464-1.892a7.886,7.886,0,0,1-1.954-.769L259.291,17.6l-2.317-2.237,1.009-1.665a7.871,7.871,0,0,1-.837-1.926l-1.906-.4-.057-3.221,1.891-.463a7.9,7.9,0,0,1,.769-1.955l-1.067-1.628,2.237-2.317Zm1.717,4.291A3.456,3.456,0,1,0,267.281,7a3.456,3.456,0,0,0-4.886.086" transform="translate(-139.567)" fill="#ebebeb"/>
            </g>
          </g>
          <g id="Grupo_1114548" data-name="Grupo 1114548">
            <g id="Grupo_1114547" data-name="Grupo 1114547" clip-path="url(#clip-path)">
              <path id="Trazado_911590" data-name="Trazado 911590" d="M165.225,102.257a20.34,20.34,0,0,1,4.969-2.159l1.023-4.919,8.31-.145,1.2,4.879a20.344,20.344,0,0,1,5.042,1.984l4.2-2.753,5.979,5.773-2.6,4.293a20.356,20.356,0,0,1,2.159,4.97l4.918,1.023.146,8.309-4.879,1.2a20.372,20.372,0,0,1-1.984,5.042l2.752,4.2-5.772,5.979-4.294-2.6a20.343,20.343,0,0,1-4.97,2.159l-1.023,4.919-8.309.146-1.2-4.879a20.389,20.389,0,0,1-5.042-1.984l-4.2,2.753-5.979-5.773,2.6-4.293a20.359,20.359,0,0,1-2.159-4.969l-4.918-1.023-.146-8.31,4.879-1.2a20.378,20.378,0,0,1,1.984-5.041l-2.752-4.2,5.772-5.979Z" transform="translate(-82.613 -51.977)" fill="#5d9037"/>
              <rect id="Rect치ngulo_406471" data-name="Rect치ngulo 406471" width="4.565" height="14.259" transform="translate(83.403 59.921)" fill="#fff"/>
              <rect id="Rect치ngulo_406472" data-name="Rect치ngulo 406472" width="4.565" height="11.001" transform="translate(90.22 63.178)" fill="#fff"/>
              <rect id="Rect치ngulo_406473" data-name="Rect치ngulo 406473" width="4.565" height="6.533" transform="translate(96.53 67.646)" fill="#fff"/>
              <path id="Trazado_911591" data-name="Trazado 911591" d="M14.177,100.033a20.339,20.339,0,0,1,4.969-2.159l1.023-4.919,8.31-.145,1.2,4.879a20.343,20.343,0,0,1,5.042,1.984l4.2-2.753,5.979,5.773-2.6,4.293a20.338,20.338,0,0,1,2.159,4.97l4.918,1.023.146,8.309-4.879,1.2a20.373,20.373,0,0,1-1.984,5.042l2.752,4.2-5.773,5.979-4.293-2.6a20.344,20.344,0,0,1-4.97,2.159l-1.023,4.919-8.309.146-1.2-4.879a20.372,20.372,0,0,1-5.042-1.984l-4.2,2.753L4.62,132.442l2.6-4.293a20.339,20.339,0,0,1-2.159-4.97L.146,122.156,0,113.846l4.879-1.2a20.376,20.376,0,0,1,1.984-5.041l-2.753-4.2L9.882,97.43Z" transform="translate(0 -50.761)" fill="#727997"/>
              <path id="Trazado_911592" data-name="Trazado 911592" d="M41,144.089A14.208,14.208,0,0,1,27.47,134.01a.226.226,0,1,1,.434-.129,13.67,13.67,0,1,0-.168-7.211.227.227,0,1,1-.44-.109A14.123,14.123,0,1,1,41,144.089" transform="translate(-14.925 -63.36)" fill="#fff"/>
              <path id="Trazado_911593" data-name="Trazado 911593" d="M45.971,144.982a9.848,9.848,0,0,1-9.45-7.168.226.226,0,1,1,.436-.122,9.36,9.36,0,1,0,0-5.048.227.227,0,1,1-.436-.122,9.813,9.813,0,1,1,9.45,12.46" transform="translate(-19.97 -68.562)" fill="#fff"/>
              <path id="Trazado_911594" data-name="Trazado 911594" d="M55.578,145.821a2.492,2.492,0,0,1-1.4-.429.226.226,0,1,1,.253-.375,2.054,2.054,0,1,0,.177-3.512.226.226,0,0,1-.216-.4,2.506,2.506,0,1,1,1.186,4.714" transform="translate(-29.576 -77.012)" fill="#fff"/>
              <path id="Trazado_911595" data-name="Trazado 911595" d="M41.485,144l-3.66-1.783.07,1.589-9.726.229.108.714,9.738-.16.028,1.613Z" transform="translate(-15.406 -77.782)" fill="#fff"/>
              <path id="Trazado_911596" data-name="Trazado 911596" d="M28.509,145.452l-.053-.1a1.574,1.574,0,0,0-1.339-.851l-3.219-.123,1.395,1.262-1.238,1.527,3.08-.065a1.575,1.575,0,0,0,1.485-1.152Z" transform="translate(-13.071 -78.964)" fill="#fff"/>
              <path id="Trazado_911597" data-name="Trazado 911597" d="M50.685,145.788A5.955,5.955,0,0,1,45,141.523a.226.226,0,0,1,.435-.126,5.469,5.469,0,1,0,.014-3.11.226.226,0,0,1-.434-.131,5.922,5.922,0,1,1,5.671,7.632" transform="translate(-24.606 -73.257)" fill="#fff"/>
              <path id="Trazado_911598" data-name="Trazado 911598" d="M314.645,99.192a20.341,20.341,0,0,1,4.969-2.159l1.023-4.919,8.31-.145,1.2,4.879a20.342,20.342,0,0,1,5.042,1.984l4.2-2.753,5.979,5.773-2.6,4.293a20.358,20.358,0,0,1,2.159,4.97l4.918,1.023.146,8.309-4.879,1.2a20.37,20.37,0,0,1-1.984,5.042l2.752,4.2-5.773,5.979-4.293-2.6a20.344,20.344,0,0,1-4.97,2.159l-1.023,4.919-8.309.146-1.2-4.879a20.374,20.374,0,0,1-5.042-1.984l-4.2,2.753-5.979-5.773,2.6-4.293a20.34,20.34,0,0,1-2.159-4.97l-4.918-1.023-.146-8.309,4.879-1.2a20.376,20.376,0,0,1,1.984-5.041l-2.753-4.2,5.773-5.979Z" transform="translate(-164.335 -50.301)" fill="#283f65"/>
              <path id="Trazado_911599" data-name="Trazado 911599" d="M328.25,136.931l3.185-3.185,6.142,5.459,12.057-11.6,2.957,3.185-15.469,14.559Z" transform="translate(-179.53 -69.791)" fill="#fff"/>
              <path id="Trazado_911600" data-name="Trazado 911600" d="M146.6,93.938a.744.744,0,0,1,.053-.143l.18-.409.3-.663a8.361,8.361,0,0,1,.444-.887l.6-1.088c.233-.391.514-.8.8-1.244s.642-.891,1-1.375.785-.958,1.223-1.463.95-.985,1.459-1.508c.251-.266.545-.5.828-.749s.574-.508.879-.755l.956-.726c.163-.121.323-.251.492-.368l.521-.344c.352-.228.7-.471,1.069-.7l1.139-.647c.379-.231.791-.409,1.2-.609s.815-.41,1.251-.57l1.3-.523,1.362-.441a24.7,24.7,0,0,1,11.8-.7l1.405.277,1.356.366c.451.107.879.275,1.309.418s.858.28,1.26.464l1.208.508c.391.179.768.38,1.144.565l.558.28c.182.1.356.206.532.307l1.035.608c.333.21.647.435.962.647s.63.411.911.646c.568.459,1.145.86,1.628,1.325s.981.861,1.387,1.308.829.827,1.157,1.246.665.78.942,1.14l.726,1.009a8.345,8.345,0,0,1,.546.829l.376.623.227.385a.7.7,0,0,1,.07.135.746.746,0,0,1-.091-.123l-.246-.372-.394-.609a8.739,8.739,0,0,0-.562-.814l-.739-.993c-.281-.354-.613-.719-.953-1.122s-.748-.8-1.163-1.227-.9-.845-1.391-1.288-1.06-.853-1.627-1.3c-.28-.231-.6-.422-.908-.636s-.628-.43-.96-.636l-1.03-.6c-.176-.1-.348-.208-.53-.3l-.555-.275c-.374-.182-.748-.379-1.137-.555l-1.2-.5c-.4-.181-.828-.307-1.252-.456s-.852-.306-1.3-.411l-1.346-.36-1.393-.272a24.638,24.638,0,0,0-11.691.695l-1.352.435-1.293.516c-.433.158-.835.372-1.242.562s-.813.373-1.189.6l-1.133.638c-.366.222-.714.462-1.064.686l-.518.339c-.169.116-.328.243-.49.363l-.952.715c-.3.244-.59.5-.878.746s-.576.476-.827.739c-.509.516-1.035.976-1.461,1.487s-.876.958-1.229,1.443-.731.907-1.01,1.356-.576.842-.814,1.227l-.617,1.074a8.682,8.682,0,0,0-.462.874l-.319.652-.2.4a.752.752,0,0,1-.076.133" transform="translate(-80.182 -42.458)" fill="#263238"/>
              <path id="Trazado_911601" data-name="Trazado 911601" d="M167.308,76.053a3.151,3.151,0,0,1,.515-.356c.338-.22.845-.508,1.487-.837a23.584,23.584,0,0,1,10.878-2.536c.72.01,1.3.045,1.7.093a3.235,3.235,0,0,1,.619.091,3.157,3.157,0,0,1-.626,0c-.4-.019-.981-.029-1.7-.018a26.05,26.05,0,0,0-10.8,2.519c-.646.307-1.163.571-1.514.766a3.18,3.18,0,0,1-.561.276" transform="translate(-91.505 -39.555)" fill="#263238"/>
              <path id="Trazado_911602" data-name="Trazado 911602" d="M350.182,182.24a.747.747,0,0,1-.053.142l-.18.41-.3.662a8.223,8.223,0,0,1-.444.888l-.6,1.088c-.232.391-.514.8-.8,1.244s-.642.891-1,1.375-.785.958-1.223,1.462-.95.985-1.459,1.508c-.251.266-.545.5-.828.749s-.574.508-.879.756l-.956.726c-.163.121-.323.251-.493.368l-.521.344c-.352.228-.7.471-1.069.7l-1.139.647c-.379.231-.791.409-1.2.609s-.815.41-1.25.57l-1.3.523-1.362.441a24.7,24.7,0,0,1-11.8.7l-1.405-.277-1.356-.366c-.451-.107-.879-.275-1.309-.418s-.858-.28-1.261-.464l-1.208-.508c-.392-.179-.767-.38-1.144-.565l-.558-.28c-.183-.1-.356-.206-.532-.307l-1.035-.608c-.333-.21-.647-.435-.962-.647s-.63-.411-.911-.646c-.568-.459-1.145-.86-1.628-1.325s-.982-.861-1.387-1.308-.829-.827-1.157-1.246-.666-.78-.942-1.14l-.726-1.009a8.337,8.337,0,0,1-.546-.829l-.376-.623-.227-.385a.738.738,0,0,1-.07-.135.747.747,0,0,1,.091.123l.246.372.394.609a8.742,8.742,0,0,0,.562.814l.739.993c.281.354.612.719.953,1.122s.748.8,1.163,1.227.9.845,1.391,1.288,1.06.853,1.626,1.3c.28.231.6.421.909.636s.628.43.96.636l1.03.6c.175.1.348.207.53.3l.555.275c.374.182.748.379,1.137.555l1.2.5c.4.181.828.307,1.252.456s.852.306,1.3.411l1.345.36,1.394.272a24.639,24.639,0,0,0,11.691-.695l1.351-.435,1.293-.516c.433-.158.835-.372,1.241-.562s.813-.373,1.189-.6l1.133-.638c.366-.222.714-.462,1.064-.686l.518-.339c.169-.116.327-.243.49-.363l.952-.715c.3-.244.589-.5.877-.746s.576-.476.827-.739c.509-.516,1.035-.976,1.461-1.487s.876-.958,1.229-1.443.73-.907,1.01-1.356.576-.842.814-1.227l.617-1.074a8.77,8.77,0,0,0,.462-.874l.319-.652.2-.4a.733.733,0,0,1,.076-.133" transform="translate(-165.494 -99.673)" fill="#263238"/>
              <path id="Trazado_911603" data-name="Trazado 911603" d="M368.992,218.347a3.152,3.152,0,0,1-.515.356c-.338.22-.845.508-1.487.837a23.584,23.584,0,0,1-10.878,2.536c-.72-.01-1.3-.045-1.7-.093a3.217,3.217,0,0,1-.619-.091,3.142,3.142,0,0,1,.625,0c.4.019.981.029,1.7.018a26.049,26.049,0,0,0,10.8-2.519c.647-.307,1.163-.572,1.514-.766a3.141,3.141,0,0,1,.561-.276" transform="translate(-193.499 -119.42)" fill="#263238"/>
              <path id="Trazado_911604" data-name="Trazado 911604" d="M50.957,180.016a.745.745,0,0,1-.053.142l-.18.41-.3.663a8.282,8.282,0,0,1-.444.887l-.6,1.088c-.233.391-.514.8-.8,1.244s-.642.891-1,1.375-.785.958-1.223,1.463-.95.985-1.459,1.508c-.251.266-.545.5-.828.749s-.574.508-.879.755l-.956.726c-.163.121-.323.251-.492.368l-.521.344c-.352.228-.7.471-1.069.7l-1.139.647c-.379.23-.791.408-1.2.609s-.815.41-1.25.57l-1.3.523-1.362.441a26.939,26.939,0,0,1-5.856,1.067,26.908,26.908,0,0,1-5.942-.366l-1.405-.277-1.356-.366c-.451-.107-.879-.275-1.309-.418s-.858-.28-1.26-.463l-1.208-.508c-.392-.179-.768-.38-1.144-.565l-.558-.28c-.183-.1-.356-.206-.532-.307l-1.035-.608c-.333-.21-.647-.435-.962-.647s-.63-.411-.911-.646c-.568-.459-1.145-.86-1.628-1.325s-.982-.861-1.387-1.308-.829-.827-1.157-1.246-.666-.78-.942-1.14l-.726-1.009a8.343,8.343,0,0,1-.545-.829l-.376-.623-.227-.385a.721.721,0,0,1-.07-.135.745.745,0,0,1,.091.123l.246.372.394.609a8.737,8.737,0,0,0,.562.814l.739.993c.281.354.613.719.953,1.122s.748.8,1.163,1.227.9.845,1.391,1.288,1.06.853,1.627,1.3c.28.231.6.422.909.636s.628.43.959.637l1.031.6c.175.1.348.208.53.3l.555.275c.374.182.748.379,1.137.556l1.2.5c.4.181.828.307,1.252.456s.852.306,1.3.411l1.345.36,1.394.272a26.881,26.881,0,0,0,5.889.357,26.9,26.9,0,0,0,5.8-1.052l1.352-.435,1.293-.516c.433-.158.835-.372,1.241-.562s.813-.373,1.189-.6l1.133-.638c.366-.221.714-.462,1.063-.686l.519-.339c.169-.116.328-.243.49-.363l.952-.715c.3-.244.589-.5.878-.746s.576-.476.827-.739c.509-.516,1.035-.976,1.461-1.487s.876-.958,1.228-1.443.731-.907,1.01-1.356.576-.842.814-1.227l.617-1.074a8.68,8.68,0,0,0,.462-.874l.319-.652.2-.4a.732.732,0,0,1,.076-.133" transform="translate(-1.838 -98.456)" fill="#263238"/>
              <path id="Trazado_911605" data-name="Trazado 911605" d="M69.766,216.123a3.2,3.2,0,0,1-.516.356c-.337.22-.845.508-1.486.837a23.585,23.585,0,0,1-10.878,2.536c-.72-.01-1.3-.045-1.7-.093a3.209,3.209,0,0,1-.619-.091,3.161,3.161,0,0,1,.626,0c.4.019.981.029,1.7.018a26.045,26.045,0,0,0,10.8-2.519c.647-.307,1.163-.571,1.515-.766a3.135,3.135,0,0,1,.561-.276" transform="translate(-29.843 -118.204)" fill="#263238"/>
            </g>
          </g>
          <g id="Grupo_1114559" data-name="Grupo 1114559">
            <g id="Grupo_1114558" data-name="Grupo 1114558" clip-path="url(#clip-path)">
              <path id="Trazado_911606" data-name="Trazado 911606" d="M201.8,39.459H110.425a7.73,7.73,0,0,1,0-15.46H201.8a7.73,7.73,0,0,1,0,15.46" transform="translate(-56.167 -13.126)" fill="#fafafa"/>
              <path id="Trazado_911607" data-name="Trazado 911607" d="M201.672,39.318s.2-.018.6-.042a8.423,8.423,0,0,0,1.713-.334,7.98,7.98,0,0,0,2.485-1.34,7.8,7.8,0,0,0,2.3-3.06,8.3,8.3,0,0,0,.548-2.226,7.964,7.964,0,0,0-.187-2.518,7.633,7.633,0,0,0-6.174-5.754,24.046,24.046,0,0,0-3.415-.111l-7.465.008-81.775.035a7.615,7.615,0,0,0-5.785,12.56,7.547,7.547,0,0,0,4.826,2.6c.916.1,1.863.055,2.794.067h8.274l10.627,0,36.764.025,24.785.038,6.739.022,1.753.012c.4,0,.6.012.6.012s-.2.008-.6.012l-1.753.011-6.739.022L167.8,39.4l-36.764.025-10.627,0h-8.274c-.933-.012-1.867.038-2.823-.068a7.845,7.845,0,0,1-4.475-13.41A7.861,7.861,0,0,1,110.3,23.74l81.775.034,7.465.009a24.034,24.034,0,0,1,3.438.122,7.754,7.754,0,0,1,6.259,5.867,8.064,8.064,0,0,1,.179,2.553,8.369,8.369,0,0,1-.565,2.252,7.854,7.854,0,0,1-2.342,3.079,7.954,7.954,0,0,1-2.515,1.331,8.1,8.1,0,0,1-1.725.313c-.4.016-.6.018-.6.018" transform="translate(-56.036 -12.984)" fill="#263238"/>
              <path id="Trazado_911608" data-name="Trazado 911608" d="M163.767,39.841H112.74a5.892,5.892,0,1,1,0-11.785h51.027a5.892,5.892,0,0,1,0,11.785" transform="translate(-58.438 -15.345)" fill="#ffce79"/>
              <g id="Grupo_1114551" data-name="Grupo 1114551" transform="translate(56.006 12.711)" opacity="0.4">
                <g id="Grupo_1114550" data-name="Grupo 1114550">
                  <g id="Grupo_1114549" data-name="Grupo 1114549" clip-path="url(#clip-path-5)">
                    <path id="Trazado_911609" data-name="Trazado 911609" d="M123.615,39.84l7.323-11.785h7.846L131.61,39.84Z" transform="translate(-123.615 -28.056)" fill="#fff"/>
                  </g>
                </g>
              </g>
              <g id="Grupo_1114554" data-name="Grupo 1114554" transform="translate(71.738 12.711)" opacity="0.4">
                <g id="Grupo_1114553" data-name="Grupo 1114553">
                  <g id="Grupo_1114552" data-name="Grupo 1114552" clip-path="url(#clip-path-5)">
                    <path id="Trazado_911610" data-name="Trazado 911610" d="M158.337,39.84l7.323-11.785h7.846L166.332,39.84Z" transform="translate(-158.337 -28.056)" fill="#fff"/>
                  </g>
                </g>
              </g>
              <g id="Grupo_1114557" data-name="Grupo 1114557" transform="translate(88.625 12.711)" opacity="0.4">
                <g id="Grupo_1114556" data-name="Grupo 1114556">
                  <g id="Grupo_1114555" data-name="Grupo 1114555" clip-path="url(#clip-path-5)">
                    <path id="Trazado_911611" data-name="Trazado 911611" d="M195.61,39.84l7.323-11.785h7.846L203.605,39.84Z" transform="translate(-195.61 -28.056)" fill="#fff"/>
                  </g>
                </g>
              </g>
              <path id="Trazado_911612" data-name="Trazado 911612" d="M189.911,11.356c0,.894-.67,1.45-1.742,1.45h-.808v1.106h-.929V9.9h1.737c1.072,0,1.742.556,1.742,1.456m-.94,0c0-.441-.286-.7-.854-.7h-.757v1.392h.757c.567,0,.854-.258.854-.693" transform="translate(-101.965 -5.415)" fill="#263238"/>
              <path id="Trazado_911613" data-name="Trazado 911613" d="M198.12,13.911l-.773-1.118h-.854v1.118h-.929V9.9H197.3c1.072,0,1.743.556,1.743,1.455a1.3,1.3,0,0,1-.826,1.267l.9,1.289Zm-.871-3.255h-.756v1.4h.756c.568,0,.854-.264.854-.7s-.286-.7-.854-.7" transform="translate(-106.96 -5.415)" fill="#263238"/>
              <path id="Trazado_911614" data-name="Trazado 911614" d="M204.3,11.823A2.2,2.2,0,1,1,206.5,13.9a2.076,2.076,0,0,1-2.195-2.075m3.45,0a1.256,1.256,0,1,0-2.51,0,1.256,1.256,0,1,0,2.51,0" transform="translate(-111.74 -5.331)" fill="#263238"/>
              <path id="Trazado_911615" data-name="Trazado 911615" d="M214.977,11.823a2.209,2.209,0,0,1,3.828-1.364l-.6.55a1.291,1.291,0,0,0-1.009-.47,1.284,1.284,0,1,0,0,2.568,1.28,1.28,0,0,0,1.009-.476l.6.55a2.205,2.205,0,0,1-3.828-1.358" transform="translate(-117.577 -5.331)" fill="#263238"/>
              <path id="Trazado_911616" data-name="Trazado 911616" d="M227.91,13.166v.745H224.8V9.9h3.031v.745h-2.109v.871h1.862v.722h-1.862v.928Z" transform="translate(-122.952 -5.414)" fill="#263238"/>
              <path id="Trazado_911617" data-name="Trazado 911617" d="M232.594,13.433l.315-.7a2.36,2.36,0,0,0,1.324.418c.55,0,.774-.183.774-.43,0-.751-2.332-.235-2.332-1.725,0-.682.551-1.249,1.69-1.249a2.69,2.69,0,0,1,1.393.355l-.286.7a2.268,2.268,0,0,0-1.112-.315c-.55,0-.762.206-.762.459,0,.739,2.332.229,2.332,1.7,0,.671-.555,1.244-1.7,1.244a2.859,2.859,0,0,1-1.633-.464" transform="translate(-127.213 -5.331)" fill="#263238"/>
              <path id="Trazado_911618" data-name="Trazado 911618" d="M240.662,13.433l.315-.7a2.36,2.36,0,0,0,1.324.418c.551,0,.774-.183.774-.43,0-.751-2.332-.235-2.332-1.725,0-.682.55-1.249,1.69-1.249a2.69,2.69,0,0,1,1.393.355l-.286.7a2.268,2.268,0,0,0-1.112-.315c-.55,0-.762.206-.762.459,0,.739,2.332.229,2.332,1.7,0,.671-.555,1.244-1.7,1.244a2.859,2.859,0,0,1-1.633-.464" transform="translate(-131.625 -5.331)" fill="#263238"/>
            </g>
          </g>
        </g>
      </g>
    </g>
    <g transform="matrix(1, 0, 0, 1, 444.5, 6053.11)" filter="url(#Trazado_779304)">
      <path id="Trazado_779304-6" data-name="Trazado 779304" d="M22.9,45.8A22.9,22.9,0,1,1,45.8,22.9,22.925,22.925,0,0,1,22.9,45.8" transform="matrix(-0.79, 0.62, -0.62, -0.79, 205.12, 596.2)" fill="#fff"/>
    </g>
    <g transform="matrix(1, 0, 0, 1, 444.5, 6053.11)" filter="url(#Trazado_779304-2)">
      <path id="Trazado_779304-7" data-name="Trazado 779304" d="M22.9,45.8A22.9,22.9,0,1,1,45.8,22.9,22.925,22.925,0,0,1,22.9,45.8" transform="matrix(-0.79, 0.62, -0.62, -0.79, 89.44, 309.02)" fill="#fff"/>
    </g>
    <g transform="matrix(1, 0, 0, 1, 444.5, 6053.11)" filter="url(#Trazado_779304-3)">
      <path id="Trazado_779304-8" data-name="Trazado 779304" d="M22.9,45.8A22.9,22.9,0,1,1,45.8,22.9,22.925,22.925,0,0,1,22.9,45.8" transform="matrix(-0.79, 0.62, -0.62, -0.79, 278.11, 97.99)" fill="#fff"/>
    </g>
    <g transform="matrix(1, 0, 0, 1, 444.5, 6053.11)" filter="url(#Trazado_779304-4)">
      <path id="Trazado_779304-9" data-name="Trazado 779304" d="M22.9,45.8A22.9,22.9,0,1,1,45.8,22.9,22.925,22.925,0,0,1,22.9,45.8" transform="matrix(-0.79, 0.62, -0.62, -0.79, 564.95, 130.13)" fill="#fff"/>
    </g>
    <g transform="matrix(1, 0, 0, 1, 444.5, 6053.11)" filter="url(#Trazado_779304-5)">
      <path id="Trazado_779304-10" data-name="Trazado 779304" d="M22.9,45.8A22.9,22.9,0,1,1,45.8,22.9,22.925,22.925,0,0,1,22.9,45.8" transform="matrix(-0.79, 0.62, -0.62, -0.79, 664.51, 411.28)" fill="#fff"/>
    </g>
  </g>
</svg>
